%TF.GenerationSoftware,KiCad,Pcbnew,10.0.6*%
%TF.CreationDate,2026-10-03T12:19:27+02:00*%
%TF.ProjectId,PCB,5043422e-6b69-4636-9164-5f7063625858,rev?*%
%TF.SameCoordinates,Original*%
%TF.FileFunction,Paste,Bot*%
%TF.FilePolarity,Positive*%
%FSLAX46Y46*%
G04 Gerber Fmt 4.6, Leading zero omitted, Abs format (unit mm)*
G04 Created by KiCad (PCBNEW 10.0.6) date 2026-10-03 12:19:27*
%MOMM*%
%LPD*%
G01*
G04 APERTURE LIST*
G04 Aperture macros list*
%AMRoundRect*
0 Rectangle with rounded corners*
0 $1 Rounding radius*
0 $2 $3 $4 $5 $6 $7 $8 $9 X,Y pos of 4 corners*
0 Add a 4 corners polygon primitive as box body*
4,1,4,$2,$3,$4,$5,$6,$7,$8,$9,$2,$3,0*
0 Add four circle primitives for the rounded corners*
1,1,$1+$1,$2,$3*
1,1,$1+$1,$4,$5*
1,1,$1+$1,$6,$7*
1,1,$1+$1,$8,$9*
0 Add four rect primitives between the rounded corners*
20,1,$1+$1,$2,$3,$4,$5,0*
20,1,$1+$1,$4,$5,$6,$7,0*
20,1,$1+$1,$6,$7,$8,$9,0*
20,1,$1+$1,$8,$9,$2,$3,0*%
G04 Aperture macros list end*
%ADD10RoundRect,0.218750X-0.218750X-0.256250X0.218750X-0.256250X0.218750X0.256250X-0.218750X0.256250X0*%
%ADD11RoundRect,0.200000X0.200000X0.275000X-0.200000X0.275000X-0.200000X-0.275000X0.200000X-0.275000X0*%
%TA.AperFunction,Profile*%
%ADD12C,0.050000*%
%TD*%
G04 APERTURE END LIST*
D10*
%TO.C,D20*%
X121612500Y-86800000D03*
X123187500Y-86800000D03*
%TD*%
D11*
%TO.C,R18*%
X126225000Y-111000000D03*
X124575000Y-111000000D03*
%TD*%
%TO.C,R26*%
X132825000Y-74700000D03*
X131175000Y-74700000D03*
%TD*%
D10*
%TO.C,D19*%
X141412500Y-98900000D03*
X142987500Y-98900000D03*
%TD*%
D11*
%TO.C,R22*%
X132825000Y-98900000D03*
X131175000Y-98900000D03*
%TD*%
D10*
%TO.C,D22*%
X128212500Y-74700000D03*
X129787500Y-74700000D03*
%TD*%
%TO.C,D13*%
X108412500Y-111000000D03*
X109987500Y-111000000D03*
%TD*%
D11*
%TO.C,R24*%
X126225000Y-86800000D03*
X124575000Y-86800000D03*
%TD*%
%TO.C,R21*%
X119625000Y-98900000D03*
X117975000Y-98900000D03*
%TD*%
D10*
%TO.C,D17*%
X115012500Y-98900000D03*
X116587500Y-98900000D03*
%TD*%
D11*
%TO.C,R17*%
X113025000Y-111000000D03*
X111375000Y-111000000D03*
%TD*%
D10*
%TO.C,D21*%
X134812500Y-86800000D03*
X136387500Y-86800000D03*
%TD*%
%TO.C,D18*%
X128212500Y-98900000D03*
X129787500Y-98900000D03*
%TD*%
D11*
%TO.C,R19*%
X139425000Y-111000000D03*
X137775000Y-111000000D03*
%TD*%
%TO.C,R23*%
X146025000Y-98900000D03*
X144375000Y-98900000D03*
%TD*%
D10*
%TO.C,D14*%
X121612500Y-111000000D03*
X123187500Y-111000000D03*
%TD*%
%TO.C,D15*%
X134812500Y-111000000D03*
X136387500Y-111000000D03*
%TD*%
%TO.C,D16*%
X148012500Y-111000000D03*
X149587500Y-111000000D03*
%TD*%
D11*
%TO.C,R20*%
X152625000Y-111000000D03*
X150975000Y-111000000D03*
%TD*%
%TO.C,R25*%
X139425000Y-86800000D03*
X137775000Y-86800000D03*
%TD*%
D12*
X94000000Y-120000000D02*
X118000000Y-120000000D01*
X118000000Y-120000000D02*
X118000000Y-147000000D01*
X118000000Y-147000000D02*
X140000000Y-147000000D01*
X129000000Y-55000000D02*
X94000000Y-120000000D01*
X140000000Y-120000000D02*
X164000000Y-120000000D01*
X140000000Y-147000000D02*
X140000000Y-120000000D01*
X164000000Y-120000000D02*
X129000000Y-55000000D01*
M02*
