%TF.GenerationSoftware,KiCad,Pcbnew,10.0.6*%
%TF.CreationDate,2026-10-03T12:19:27+02:00*%
%TF.ProjectId,PCB,5043422e-6b69-4636-9164-5f7063625858,rev?*%
%TF.SameCoordinates,Original*%
%TF.FileFunction,Paste,Top*%
%TF.FilePolarity,Positive*%
%FSLAX46Y46*%
G04 Gerber Fmt 4.6, Leading zero omitted, Abs format (unit mm)*
G04 Created by KiCad (PCBNEW 10.0.6) date 2026-10-03 12:19:27*
%MOMM*%
%LPD*%
G01*
G04 APERTURE LIST*
G04 Aperture macros list*
%AMRoundRect*
0 Rectangle with rounded corners*
0 $1 Rounding radius*
0 $2 $3 $4 $5 $6 $7 $8 $9 X,Y pos of 4 corners*
0 Add a 4 corners polygon primitive as box body*
4,1,4,$2,$3,$4,$5,$6,$7,$8,$9,$2,$3,0*
0 Add four circle primitives for the rounded corners*
1,1,$1+$1,$2,$3*
1,1,$1+$1,$4,$5*
1,1,$1+$1,$6,$7*
1,1,$1+$1,$8,$9*
0 Add four rect primitives between the rounded corners*
20,1,$1+$1,$2,$3,$4,$5,0*
20,1,$1+$1,$4,$5,$6,$7,0*
20,1,$1+$1,$6,$7,$8,$9,0*
20,1,$1+$1,$8,$9,$2,$3,0*%
G04 Aperture macros list end*
%ADD10RoundRect,0.225000X0.225000X0.250000X-0.225000X0.250000X-0.225000X-0.250000X0.225000X-0.250000X0*%
%ADD11RoundRect,0.150000X0.512500X0.150000X-0.512500X0.150000X-0.512500X-0.150000X0.512500X-0.150000X0*%
%ADD12RoundRect,0.218750X-0.218750X-0.256250X0.218750X-0.256250X0.218750X0.256250X-0.218750X0.256250X0*%
%ADD13RoundRect,0.200000X0.200000X0.275000X-0.200000X0.275000X-0.200000X-0.275000X0.200000X-0.275000X0*%
%ADD14R,0.750013X1.800000*%
%ADD15R,0.599949X1.800000*%
%ADD16R,1.300000X0.900000*%
%ADD17R,0.600000X1.100000*%
%ADD18R,1.019990X3.170003*%
%ADD19RoundRect,0.200000X-0.275000X0.200000X-0.275000X-0.200000X0.275000X-0.200000X0.275000X0.200000X0*%
%ADD20RoundRect,0.225000X-0.250000X0.225000X-0.250000X-0.225000X0.250000X-0.225000X0.250000X0.225000X0*%
%ADD21RoundRect,0.200000X-0.200000X-0.275000X0.200000X-0.275000X0.200000X0.275000X-0.200000X0.275000X0*%
%ADD22RoundRect,0.200000X0.275000X-0.200000X0.275000X0.200000X-0.275000X0.200000X-0.275000X-0.200000X0*%
%ADD23R,1.000000X0.600000*%
%ADD24RoundRect,0.225000X0.250000X-0.225000X0.250000X0.225000X-0.250000X0.225000X-0.250000X-0.225000X0*%
%ADD25RoundRect,0.218750X0.256250X-0.218750X0.256250X0.218750X-0.256250X0.218750X-0.256250X-0.218750X0*%
%ADD26RoundRect,0.100000X0.100000X-0.637500X0.100000X0.637500X-0.100000X0.637500X-0.100000X-0.637500X0*%
%ADD27RoundRect,0.225000X0.375000X-0.225000X0.375000X0.225000X-0.375000X0.225000X-0.375000X-0.225000X0*%
%ADD28RoundRect,0.150000X0.150000X-0.512500X0.150000X0.512500X-0.150000X0.512500X-0.150000X-0.512500X0*%
%ADD29RoundRect,0.200000X-0.600000X0.200000X-0.600000X-0.200000X0.600000X-0.200000X0.600000X0.200000X0*%
%ADD30RoundRect,0.250001X-1.249999X0.799999X-1.249999X-0.799999X1.249999X-0.799999X1.249999X0.799999X0*%
%ADD31RoundRect,0.175000X-0.175000X-0.425000X0.175000X-0.425000X0.175000X0.425000X-0.175000X0.425000X0*%
%ADD32RoundRect,0.190000X0.190000X0.410000X-0.190000X0.410000X-0.190000X-0.410000X0.190000X-0.410000X0*%
%ADD33RoundRect,0.200000X0.200000X0.400000X-0.200000X0.400000X-0.200000X-0.400000X0.200000X-0.400000X0*%
%ADD34RoundRect,0.175000X0.175000X0.425000X-0.175000X0.425000X-0.175000X-0.425000X0.175000X-0.425000X0*%
%ADD35RoundRect,0.190000X-0.190000X-0.410000X0.190000X-0.410000X0.190000X0.410000X-0.190000X0.410000X0*%
%ADD36RoundRect,0.200000X-0.200000X-0.400000X0.200000X-0.400000X0.200000X0.400000X-0.200000X0.400000X0*%
%ADD37O,1.100000X1.700000*%
%ADD38RoundRect,0.225000X-0.225000X-0.250000X0.225000X-0.250000X0.225000X0.250000X-0.225000X0.250000X0*%
%TA.AperFunction,Profile*%
%ADD39C,0.050000*%
%TD*%
G04 APERTURE END LIST*
D10*
%TO.C,C8*%
X117050000Y-115750000D03*
X115500000Y-115750000D03*
%TD*%
D11*
%TO.C,U2*%
X127137500Y-140950000D03*
X127137500Y-140000000D03*
X127137500Y-139050000D03*
X124862500Y-139050000D03*
X124862500Y-140950000D03*
%TD*%
D12*
%TO.C,D11*%
X134812500Y-86800000D03*
X136387500Y-86800000D03*
%TD*%
D13*
%TO.C,R13*%
X146025000Y-98900000D03*
X144375000Y-98900000D03*
%TD*%
D14*
%TO.C,KEY1*%
X120424981Y-143949994D03*
D15*
X121664732Y-143949994D03*
D14*
X122874994Y-143949994D03*
D16*
X119799987Y-145899981D03*
X123499987Y-145899981D03*
%TD*%
D12*
%TO.C,D10*%
X121612500Y-86800000D03*
X123187500Y-86800000D03*
%TD*%
D17*
%TO.C,U4*%
X130600076Y-137850013D03*
X131550038Y-137850013D03*
X132500000Y-137850013D03*
X132500000Y-135149987D03*
X131550038Y-135149987D03*
X130600076Y-135149987D03*
%TD*%
D18*
%TO.C,J2*%
X102669990Y-113910000D03*
X105209995Y-113910000D03*
X107750000Y-113910000D03*
X110290005Y-113910000D03*
X112830010Y-113910000D03*
%TD*%
D19*
%TO.C,R28*%
X136500000Y-134675000D03*
X136500000Y-136325000D03*
%TD*%
D20*
%TO.C,C1*%
X123000000Y-139225000D03*
X123000000Y-140775000D03*
%TD*%
D13*
%TO.C,R15*%
X139425000Y-86800000D03*
X137775000Y-86800000D03*
%TD*%
D21*
%TO.C,R3*%
X119175000Y-141500000D03*
X120825000Y-141500000D03*
%TD*%
D13*
%TO.C,R7*%
X113025000Y-111000000D03*
X111375000Y-111000000D03*
%TD*%
D22*
%TO.C,R29*%
X138500000Y-132825000D03*
X138500000Y-131175000D03*
%TD*%
D13*
%TO.C,R12*%
X132825000Y-98900000D03*
X131175000Y-98900000D03*
%TD*%
D12*
%TO.C,D4*%
X121612500Y-111000000D03*
X123187500Y-111000000D03*
%TD*%
D23*
%TO.C,U5*%
X119299848Y-135000254D03*
X119299848Y-135949962D03*
X119299848Y-136899924D03*
X121500000Y-136900178D03*
X121500000Y-135000000D03*
%TD*%
D24*
%TO.C,C5*%
X125250000Y-136550000D03*
X125250000Y-135000000D03*
%TD*%
D13*
%TO.C,R8*%
X126225000Y-111000000D03*
X124575000Y-111000000D03*
%TD*%
D12*
%TO.C,D8*%
X128212500Y-98900000D03*
X129787500Y-98900000D03*
%TD*%
%TO.C,D2*%
X108412500Y-111000000D03*
X109987500Y-111000000D03*
%TD*%
D24*
%TO.C,C7*%
X123500000Y-136500000D03*
X123500000Y-134950000D03*
%TD*%
D25*
%TO.C,D1*%
X125500000Y-144787500D03*
X125500000Y-143212500D03*
%TD*%
D13*
%TO.C,R14*%
X126225000Y-86800000D03*
X124575000Y-86800000D03*
%TD*%
D20*
%TO.C,C6*%
X127000000Y-134975000D03*
X127000000Y-136525000D03*
%TD*%
D22*
%TO.C,R1*%
X134500000Y-136325000D03*
X134500000Y-134675000D03*
%TD*%
D26*
%TO.C,U1*%
X120650000Y-132475000D03*
X121300000Y-132475000D03*
X121950000Y-132475000D03*
X122600000Y-132475000D03*
X123250000Y-132475000D03*
X123900000Y-132475000D03*
X124550000Y-132475000D03*
X125200000Y-132475000D03*
X125850000Y-132475000D03*
X126500000Y-132475000D03*
X126500000Y-126750000D03*
X125850000Y-126750000D03*
X125200000Y-126750000D03*
X124550000Y-126750000D03*
X123900000Y-126750000D03*
X123250000Y-126750000D03*
X122600000Y-126750000D03*
X121950000Y-126750000D03*
X121300000Y-126750000D03*
X120650000Y-126750000D03*
%TD*%
D22*
%TO.C,R6*%
X134500000Y-132825000D03*
X134500000Y-131175000D03*
%TD*%
D19*
%TO.C,R27*%
X136500000Y-131175000D03*
X136500000Y-132825000D03*
%TD*%
D12*
%TO.C,D7*%
X115012500Y-98900000D03*
X116587500Y-98900000D03*
%TD*%
D27*
%TO.C,D3*%
X137500000Y-129650000D03*
X137500000Y-126350000D03*
%TD*%
D28*
%TO.C,U3*%
X129550000Y-132137500D03*
X130500000Y-132137500D03*
X131450000Y-132137500D03*
X131450000Y-129862500D03*
X130500000Y-129862500D03*
X129550000Y-129862500D03*
%TD*%
D29*
%TO.C,J3*%
X136400000Y-120375000D03*
X136400000Y-121625000D03*
D30*
X133500000Y-117825000D03*
X133500000Y-124175000D03*
%TD*%
D24*
%TO.C,C2*%
X128750000Y-136525000D03*
X128750000Y-134975000D03*
%TD*%
D12*
%TO.C,D5*%
X134812500Y-111000000D03*
X136387500Y-111000000D03*
%TD*%
D22*
%TO.C,R2*%
X138500000Y-136325000D03*
X138500000Y-134675000D03*
%TD*%
D31*
%TO.C,J1*%
X133500000Y-140420000D03*
D32*
X135520000Y-140420000D03*
D33*
X136750000Y-140420000D03*
D34*
X134500000Y-140420000D03*
D35*
X132480000Y-140420000D03*
D36*
X131250000Y-140420000D03*
D37*
X129680000Y-140500000D03*
X129680000Y-144300000D03*
X138320000Y-140500000D03*
X138320000Y-144300000D03*
%TD*%
D13*
%TO.C,R11*%
X119625000Y-98900000D03*
X117975000Y-98900000D03*
%TD*%
%TO.C,R9*%
X139425000Y-111000000D03*
X137775000Y-111000000D03*
%TD*%
D12*
%TO.C,D9*%
X141412500Y-98900000D03*
X142987500Y-98900000D03*
%TD*%
D38*
%TO.C,C4*%
X119225000Y-139500000D03*
X120775000Y-139500000D03*
%TD*%
%TO.C,C3*%
X129225000Y-127500000D03*
X130775000Y-127500000D03*
%TD*%
D12*
%TO.C,D12*%
X128212500Y-74700000D03*
X129787500Y-74700000D03*
%TD*%
D13*
%TO.C,R10*%
X152625000Y-111000000D03*
X150975000Y-111000000D03*
%TD*%
D21*
%TO.C,R5*%
X133175000Y-127500000D03*
X134825000Y-127500000D03*
%TD*%
D13*
%TO.C,R16*%
X132825000Y-74700000D03*
X131175000Y-74700000D03*
%TD*%
D12*
%TO.C,D6*%
X148012500Y-111000000D03*
X149587500Y-111000000D03*
%TD*%
D22*
%TO.C,R4*%
X127500000Y-144825000D03*
X127500000Y-143175000D03*
%TD*%
D39*
X94000000Y-120000000D02*
X118000000Y-120000000D01*
X118000000Y-120000000D02*
X118000000Y-147000000D01*
X118000000Y-147000000D02*
X140000000Y-147000000D01*
X129000000Y-55000000D02*
X94000000Y-120000000D01*
X140000000Y-120000000D02*
X164000000Y-120000000D01*
X140000000Y-147000000D02*
X140000000Y-120000000D01*
X164000000Y-120000000D02*
X129000000Y-55000000D01*
M02*
