%TF.GenerationSoftware,KiCad,Pcbnew,10.0.6*%
%TF.CreationDate,2026-10-03T12:19:27+02:00*%
%TF.ProjectId,PCB,5043422e-6b69-4636-9164-5f7063625858,rev?*%
%TF.SameCoordinates,Original*%
%TF.FileFunction,Legend,Bot*%
%TF.FilePolarity,Positive*%
%FSLAX46Y46*%
G04 Gerber Fmt 4.6, Leading zero omitted, Abs format (unit mm)*
G04 Created by KiCad (PCBNEW 10.0.6) date 2026-10-03 12:19:27*
%MOMM*%
%LPD*%
G01*
G04 APERTURE LIST*
%ADD10C,0.150000*%
%ADD11C,0.120000*%
%TA.AperFunction,Profile*%
%ADD12C,0.050000*%
%TD*%
G04 APERTURE END LIST*
D10*
X123614285Y-88794819D02*
X123614285Y-87794819D01*
X123614285Y-87794819D02*
X123376190Y-87794819D01*
X123376190Y-87794819D02*
X123233333Y-87842438D01*
X123233333Y-87842438D02*
X123138095Y-87937676D01*
X123138095Y-87937676D02*
X123090476Y-88032914D01*
X123090476Y-88032914D02*
X123042857Y-88223390D01*
X123042857Y-88223390D02*
X123042857Y-88366247D01*
X123042857Y-88366247D02*
X123090476Y-88556723D01*
X123090476Y-88556723D02*
X123138095Y-88651961D01*
X123138095Y-88651961D02*
X123233333Y-88747200D01*
X123233333Y-88747200D02*
X123376190Y-88794819D01*
X123376190Y-88794819D02*
X123614285Y-88794819D01*
X122661904Y-87890057D02*
X122614285Y-87842438D01*
X122614285Y-87842438D02*
X122519047Y-87794819D01*
X122519047Y-87794819D02*
X122280952Y-87794819D01*
X122280952Y-87794819D02*
X122185714Y-87842438D01*
X122185714Y-87842438D02*
X122138095Y-87890057D01*
X122138095Y-87890057D02*
X122090476Y-87985295D01*
X122090476Y-87985295D02*
X122090476Y-88080533D01*
X122090476Y-88080533D02*
X122138095Y-88223390D01*
X122138095Y-88223390D02*
X122709523Y-88794819D01*
X122709523Y-88794819D02*
X122090476Y-88794819D01*
X121471428Y-87794819D02*
X121376190Y-87794819D01*
X121376190Y-87794819D02*
X121280952Y-87842438D01*
X121280952Y-87842438D02*
X121233333Y-87890057D01*
X121233333Y-87890057D02*
X121185714Y-87985295D01*
X121185714Y-87985295D02*
X121138095Y-88175771D01*
X121138095Y-88175771D02*
X121138095Y-88413866D01*
X121138095Y-88413866D02*
X121185714Y-88604342D01*
X121185714Y-88604342D02*
X121233333Y-88699580D01*
X121233333Y-88699580D02*
X121280952Y-88747200D01*
X121280952Y-88747200D02*
X121376190Y-88794819D01*
X121376190Y-88794819D02*
X121471428Y-88794819D01*
X121471428Y-88794819D02*
X121566666Y-88747200D01*
X121566666Y-88747200D02*
X121614285Y-88699580D01*
X121614285Y-88699580D02*
X121661904Y-88604342D01*
X121661904Y-88604342D02*
X121709523Y-88413866D01*
X121709523Y-88413866D02*
X121709523Y-88175771D01*
X121709523Y-88175771D02*
X121661904Y-87985295D01*
X121661904Y-87985295D02*
X121614285Y-87890057D01*
X121614285Y-87890057D02*
X121566666Y-87842438D01*
X121566666Y-87842438D02*
X121471428Y-87794819D01*
X126042857Y-110024819D02*
X126376190Y-109548628D01*
X126614285Y-110024819D02*
X126614285Y-109024819D01*
X126614285Y-109024819D02*
X126233333Y-109024819D01*
X126233333Y-109024819D02*
X126138095Y-109072438D01*
X126138095Y-109072438D02*
X126090476Y-109120057D01*
X126090476Y-109120057D02*
X126042857Y-109215295D01*
X126042857Y-109215295D02*
X126042857Y-109358152D01*
X126042857Y-109358152D02*
X126090476Y-109453390D01*
X126090476Y-109453390D02*
X126138095Y-109501009D01*
X126138095Y-109501009D02*
X126233333Y-109548628D01*
X126233333Y-109548628D02*
X126614285Y-109548628D01*
X125090476Y-110024819D02*
X125661904Y-110024819D01*
X125376190Y-110024819D02*
X125376190Y-109024819D01*
X125376190Y-109024819D02*
X125471428Y-109167676D01*
X125471428Y-109167676D02*
X125566666Y-109262914D01*
X125566666Y-109262914D02*
X125661904Y-109310533D01*
X124519047Y-109453390D02*
X124614285Y-109405771D01*
X124614285Y-109405771D02*
X124661904Y-109358152D01*
X124661904Y-109358152D02*
X124709523Y-109262914D01*
X124709523Y-109262914D02*
X124709523Y-109215295D01*
X124709523Y-109215295D02*
X124661904Y-109120057D01*
X124661904Y-109120057D02*
X124614285Y-109072438D01*
X124614285Y-109072438D02*
X124519047Y-109024819D01*
X124519047Y-109024819D02*
X124328571Y-109024819D01*
X124328571Y-109024819D02*
X124233333Y-109072438D01*
X124233333Y-109072438D02*
X124185714Y-109120057D01*
X124185714Y-109120057D02*
X124138095Y-109215295D01*
X124138095Y-109215295D02*
X124138095Y-109262914D01*
X124138095Y-109262914D02*
X124185714Y-109358152D01*
X124185714Y-109358152D02*
X124233333Y-109405771D01*
X124233333Y-109405771D02*
X124328571Y-109453390D01*
X124328571Y-109453390D02*
X124519047Y-109453390D01*
X124519047Y-109453390D02*
X124614285Y-109501009D01*
X124614285Y-109501009D02*
X124661904Y-109548628D01*
X124661904Y-109548628D02*
X124709523Y-109643866D01*
X124709523Y-109643866D02*
X124709523Y-109834342D01*
X124709523Y-109834342D02*
X124661904Y-109929580D01*
X124661904Y-109929580D02*
X124614285Y-109977200D01*
X124614285Y-109977200D02*
X124519047Y-110024819D01*
X124519047Y-110024819D02*
X124328571Y-110024819D01*
X124328571Y-110024819D02*
X124233333Y-109977200D01*
X124233333Y-109977200D02*
X124185714Y-109929580D01*
X124185714Y-109929580D02*
X124138095Y-109834342D01*
X124138095Y-109834342D02*
X124138095Y-109643866D01*
X124138095Y-109643866D02*
X124185714Y-109548628D01*
X124185714Y-109548628D02*
X124233333Y-109501009D01*
X124233333Y-109501009D02*
X124328571Y-109453390D01*
X132642857Y-73724819D02*
X132976190Y-73248628D01*
X133214285Y-73724819D02*
X133214285Y-72724819D01*
X133214285Y-72724819D02*
X132833333Y-72724819D01*
X132833333Y-72724819D02*
X132738095Y-72772438D01*
X132738095Y-72772438D02*
X132690476Y-72820057D01*
X132690476Y-72820057D02*
X132642857Y-72915295D01*
X132642857Y-72915295D02*
X132642857Y-73058152D01*
X132642857Y-73058152D02*
X132690476Y-73153390D01*
X132690476Y-73153390D02*
X132738095Y-73201009D01*
X132738095Y-73201009D02*
X132833333Y-73248628D01*
X132833333Y-73248628D02*
X133214285Y-73248628D01*
X132261904Y-72820057D02*
X132214285Y-72772438D01*
X132214285Y-72772438D02*
X132119047Y-72724819D01*
X132119047Y-72724819D02*
X131880952Y-72724819D01*
X131880952Y-72724819D02*
X131785714Y-72772438D01*
X131785714Y-72772438D02*
X131738095Y-72820057D01*
X131738095Y-72820057D02*
X131690476Y-72915295D01*
X131690476Y-72915295D02*
X131690476Y-73010533D01*
X131690476Y-73010533D02*
X131738095Y-73153390D01*
X131738095Y-73153390D02*
X132309523Y-73724819D01*
X132309523Y-73724819D02*
X131690476Y-73724819D01*
X130833333Y-72724819D02*
X131023809Y-72724819D01*
X131023809Y-72724819D02*
X131119047Y-72772438D01*
X131119047Y-72772438D02*
X131166666Y-72820057D01*
X131166666Y-72820057D02*
X131261904Y-72962914D01*
X131261904Y-72962914D02*
X131309523Y-73153390D01*
X131309523Y-73153390D02*
X131309523Y-73534342D01*
X131309523Y-73534342D02*
X131261904Y-73629580D01*
X131261904Y-73629580D02*
X131214285Y-73677200D01*
X131214285Y-73677200D02*
X131119047Y-73724819D01*
X131119047Y-73724819D02*
X130928571Y-73724819D01*
X130928571Y-73724819D02*
X130833333Y-73677200D01*
X130833333Y-73677200D02*
X130785714Y-73629580D01*
X130785714Y-73629580D02*
X130738095Y-73534342D01*
X130738095Y-73534342D02*
X130738095Y-73296247D01*
X130738095Y-73296247D02*
X130785714Y-73201009D01*
X130785714Y-73201009D02*
X130833333Y-73153390D01*
X130833333Y-73153390D02*
X130928571Y-73105771D01*
X130928571Y-73105771D02*
X131119047Y-73105771D01*
X131119047Y-73105771D02*
X131214285Y-73153390D01*
X131214285Y-73153390D02*
X131261904Y-73201009D01*
X131261904Y-73201009D02*
X131309523Y-73296247D01*
X143404285Y-100974819D02*
X143404285Y-99974819D01*
X143404285Y-99974819D02*
X143166190Y-99974819D01*
X143166190Y-99974819D02*
X143023333Y-100022438D01*
X143023333Y-100022438D02*
X142928095Y-100117676D01*
X142928095Y-100117676D02*
X142880476Y-100212914D01*
X142880476Y-100212914D02*
X142832857Y-100403390D01*
X142832857Y-100403390D02*
X142832857Y-100546247D01*
X142832857Y-100546247D02*
X142880476Y-100736723D01*
X142880476Y-100736723D02*
X142928095Y-100831961D01*
X142928095Y-100831961D02*
X143023333Y-100927200D01*
X143023333Y-100927200D02*
X143166190Y-100974819D01*
X143166190Y-100974819D02*
X143404285Y-100974819D01*
X141880476Y-100974819D02*
X142451904Y-100974819D01*
X142166190Y-100974819D02*
X142166190Y-99974819D01*
X142166190Y-99974819D02*
X142261428Y-100117676D01*
X142261428Y-100117676D02*
X142356666Y-100212914D01*
X142356666Y-100212914D02*
X142451904Y-100260533D01*
X141404285Y-100974819D02*
X141213809Y-100974819D01*
X141213809Y-100974819D02*
X141118571Y-100927200D01*
X141118571Y-100927200D02*
X141070952Y-100879580D01*
X141070952Y-100879580D02*
X140975714Y-100736723D01*
X140975714Y-100736723D02*
X140928095Y-100546247D01*
X140928095Y-100546247D02*
X140928095Y-100165295D01*
X140928095Y-100165295D02*
X140975714Y-100070057D01*
X140975714Y-100070057D02*
X141023333Y-100022438D01*
X141023333Y-100022438D02*
X141118571Y-99974819D01*
X141118571Y-99974819D02*
X141309047Y-99974819D01*
X141309047Y-99974819D02*
X141404285Y-100022438D01*
X141404285Y-100022438D02*
X141451904Y-100070057D01*
X141451904Y-100070057D02*
X141499523Y-100165295D01*
X141499523Y-100165295D02*
X141499523Y-100403390D01*
X141499523Y-100403390D02*
X141451904Y-100498628D01*
X141451904Y-100498628D02*
X141404285Y-100546247D01*
X141404285Y-100546247D02*
X141309047Y-100593866D01*
X141309047Y-100593866D02*
X141118571Y-100593866D01*
X141118571Y-100593866D02*
X141023333Y-100546247D01*
X141023333Y-100546247D02*
X140975714Y-100498628D01*
X140975714Y-100498628D02*
X140928095Y-100403390D01*
X132642857Y-97924819D02*
X132976190Y-97448628D01*
X133214285Y-97924819D02*
X133214285Y-96924819D01*
X133214285Y-96924819D02*
X132833333Y-96924819D01*
X132833333Y-96924819D02*
X132738095Y-96972438D01*
X132738095Y-96972438D02*
X132690476Y-97020057D01*
X132690476Y-97020057D02*
X132642857Y-97115295D01*
X132642857Y-97115295D02*
X132642857Y-97258152D01*
X132642857Y-97258152D02*
X132690476Y-97353390D01*
X132690476Y-97353390D02*
X132738095Y-97401009D01*
X132738095Y-97401009D02*
X132833333Y-97448628D01*
X132833333Y-97448628D02*
X133214285Y-97448628D01*
X132261904Y-97020057D02*
X132214285Y-96972438D01*
X132214285Y-96972438D02*
X132119047Y-96924819D01*
X132119047Y-96924819D02*
X131880952Y-96924819D01*
X131880952Y-96924819D02*
X131785714Y-96972438D01*
X131785714Y-96972438D02*
X131738095Y-97020057D01*
X131738095Y-97020057D02*
X131690476Y-97115295D01*
X131690476Y-97115295D02*
X131690476Y-97210533D01*
X131690476Y-97210533D02*
X131738095Y-97353390D01*
X131738095Y-97353390D02*
X132309523Y-97924819D01*
X132309523Y-97924819D02*
X131690476Y-97924819D01*
X131309523Y-97020057D02*
X131261904Y-96972438D01*
X131261904Y-96972438D02*
X131166666Y-96924819D01*
X131166666Y-96924819D02*
X130928571Y-96924819D01*
X130928571Y-96924819D02*
X130833333Y-96972438D01*
X130833333Y-96972438D02*
X130785714Y-97020057D01*
X130785714Y-97020057D02*
X130738095Y-97115295D01*
X130738095Y-97115295D02*
X130738095Y-97210533D01*
X130738095Y-97210533D02*
X130785714Y-97353390D01*
X130785714Y-97353390D02*
X131357142Y-97924819D01*
X131357142Y-97924819D02*
X130738095Y-97924819D01*
X130234285Y-76754819D02*
X130234285Y-75754819D01*
X130234285Y-75754819D02*
X129996190Y-75754819D01*
X129996190Y-75754819D02*
X129853333Y-75802438D01*
X129853333Y-75802438D02*
X129758095Y-75897676D01*
X129758095Y-75897676D02*
X129710476Y-75992914D01*
X129710476Y-75992914D02*
X129662857Y-76183390D01*
X129662857Y-76183390D02*
X129662857Y-76326247D01*
X129662857Y-76326247D02*
X129710476Y-76516723D01*
X129710476Y-76516723D02*
X129758095Y-76611961D01*
X129758095Y-76611961D02*
X129853333Y-76707200D01*
X129853333Y-76707200D02*
X129996190Y-76754819D01*
X129996190Y-76754819D02*
X130234285Y-76754819D01*
X129281904Y-75850057D02*
X129234285Y-75802438D01*
X129234285Y-75802438D02*
X129139047Y-75754819D01*
X129139047Y-75754819D02*
X128900952Y-75754819D01*
X128900952Y-75754819D02*
X128805714Y-75802438D01*
X128805714Y-75802438D02*
X128758095Y-75850057D01*
X128758095Y-75850057D02*
X128710476Y-75945295D01*
X128710476Y-75945295D02*
X128710476Y-76040533D01*
X128710476Y-76040533D02*
X128758095Y-76183390D01*
X128758095Y-76183390D02*
X129329523Y-76754819D01*
X129329523Y-76754819D02*
X128710476Y-76754819D01*
X128329523Y-75850057D02*
X128281904Y-75802438D01*
X128281904Y-75802438D02*
X128186666Y-75754819D01*
X128186666Y-75754819D02*
X127948571Y-75754819D01*
X127948571Y-75754819D02*
X127853333Y-75802438D01*
X127853333Y-75802438D02*
X127805714Y-75850057D01*
X127805714Y-75850057D02*
X127758095Y-75945295D01*
X127758095Y-75945295D02*
X127758095Y-76040533D01*
X127758095Y-76040533D02*
X127805714Y-76183390D01*
X127805714Y-76183390D02*
X128377142Y-76754819D01*
X128377142Y-76754819D02*
X127758095Y-76754819D01*
X110264285Y-109934819D02*
X110264285Y-108934819D01*
X110264285Y-108934819D02*
X110026190Y-108934819D01*
X110026190Y-108934819D02*
X109883333Y-108982438D01*
X109883333Y-108982438D02*
X109788095Y-109077676D01*
X109788095Y-109077676D02*
X109740476Y-109172914D01*
X109740476Y-109172914D02*
X109692857Y-109363390D01*
X109692857Y-109363390D02*
X109692857Y-109506247D01*
X109692857Y-109506247D02*
X109740476Y-109696723D01*
X109740476Y-109696723D02*
X109788095Y-109791961D01*
X109788095Y-109791961D02*
X109883333Y-109887200D01*
X109883333Y-109887200D02*
X110026190Y-109934819D01*
X110026190Y-109934819D02*
X110264285Y-109934819D01*
X108740476Y-109934819D02*
X109311904Y-109934819D01*
X109026190Y-109934819D02*
X109026190Y-108934819D01*
X109026190Y-108934819D02*
X109121428Y-109077676D01*
X109121428Y-109077676D02*
X109216666Y-109172914D01*
X109216666Y-109172914D02*
X109311904Y-109220533D01*
X108407142Y-108934819D02*
X107788095Y-108934819D01*
X107788095Y-108934819D02*
X108121428Y-109315771D01*
X108121428Y-109315771D02*
X107978571Y-109315771D01*
X107978571Y-109315771D02*
X107883333Y-109363390D01*
X107883333Y-109363390D02*
X107835714Y-109411009D01*
X107835714Y-109411009D02*
X107788095Y-109506247D01*
X107788095Y-109506247D02*
X107788095Y-109744342D01*
X107788095Y-109744342D02*
X107835714Y-109839580D01*
X107835714Y-109839580D02*
X107883333Y-109887200D01*
X107883333Y-109887200D02*
X107978571Y-109934819D01*
X107978571Y-109934819D02*
X108264285Y-109934819D01*
X108264285Y-109934819D02*
X108359523Y-109887200D01*
X108359523Y-109887200D02*
X108407142Y-109839580D01*
X126042857Y-85824819D02*
X126376190Y-85348628D01*
X126614285Y-85824819D02*
X126614285Y-84824819D01*
X126614285Y-84824819D02*
X126233333Y-84824819D01*
X126233333Y-84824819D02*
X126138095Y-84872438D01*
X126138095Y-84872438D02*
X126090476Y-84920057D01*
X126090476Y-84920057D02*
X126042857Y-85015295D01*
X126042857Y-85015295D02*
X126042857Y-85158152D01*
X126042857Y-85158152D02*
X126090476Y-85253390D01*
X126090476Y-85253390D02*
X126138095Y-85301009D01*
X126138095Y-85301009D02*
X126233333Y-85348628D01*
X126233333Y-85348628D02*
X126614285Y-85348628D01*
X125661904Y-84920057D02*
X125614285Y-84872438D01*
X125614285Y-84872438D02*
X125519047Y-84824819D01*
X125519047Y-84824819D02*
X125280952Y-84824819D01*
X125280952Y-84824819D02*
X125185714Y-84872438D01*
X125185714Y-84872438D02*
X125138095Y-84920057D01*
X125138095Y-84920057D02*
X125090476Y-85015295D01*
X125090476Y-85015295D02*
X125090476Y-85110533D01*
X125090476Y-85110533D02*
X125138095Y-85253390D01*
X125138095Y-85253390D02*
X125709523Y-85824819D01*
X125709523Y-85824819D02*
X125090476Y-85824819D01*
X124233333Y-85158152D02*
X124233333Y-85824819D01*
X124471428Y-84777200D02*
X124709523Y-85491485D01*
X124709523Y-85491485D02*
X124090476Y-85491485D01*
X119442857Y-97924819D02*
X119776190Y-97448628D01*
X120014285Y-97924819D02*
X120014285Y-96924819D01*
X120014285Y-96924819D02*
X119633333Y-96924819D01*
X119633333Y-96924819D02*
X119538095Y-96972438D01*
X119538095Y-96972438D02*
X119490476Y-97020057D01*
X119490476Y-97020057D02*
X119442857Y-97115295D01*
X119442857Y-97115295D02*
X119442857Y-97258152D01*
X119442857Y-97258152D02*
X119490476Y-97353390D01*
X119490476Y-97353390D02*
X119538095Y-97401009D01*
X119538095Y-97401009D02*
X119633333Y-97448628D01*
X119633333Y-97448628D02*
X120014285Y-97448628D01*
X119061904Y-97020057D02*
X119014285Y-96972438D01*
X119014285Y-96972438D02*
X118919047Y-96924819D01*
X118919047Y-96924819D02*
X118680952Y-96924819D01*
X118680952Y-96924819D02*
X118585714Y-96972438D01*
X118585714Y-96972438D02*
X118538095Y-97020057D01*
X118538095Y-97020057D02*
X118490476Y-97115295D01*
X118490476Y-97115295D02*
X118490476Y-97210533D01*
X118490476Y-97210533D02*
X118538095Y-97353390D01*
X118538095Y-97353390D02*
X119109523Y-97924819D01*
X119109523Y-97924819D02*
X118490476Y-97924819D01*
X117538095Y-97924819D02*
X118109523Y-97924819D01*
X117823809Y-97924819D02*
X117823809Y-96924819D01*
X117823809Y-96924819D02*
X117919047Y-97067676D01*
X117919047Y-97067676D02*
X118014285Y-97162914D01*
X118014285Y-97162914D02*
X118109523Y-97210533D01*
X117004285Y-100874819D02*
X117004285Y-99874819D01*
X117004285Y-99874819D02*
X116766190Y-99874819D01*
X116766190Y-99874819D02*
X116623333Y-99922438D01*
X116623333Y-99922438D02*
X116528095Y-100017676D01*
X116528095Y-100017676D02*
X116480476Y-100112914D01*
X116480476Y-100112914D02*
X116432857Y-100303390D01*
X116432857Y-100303390D02*
X116432857Y-100446247D01*
X116432857Y-100446247D02*
X116480476Y-100636723D01*
X116480476Y-100636723D02*
X116528095Y-100731961D01*
X116528095Y-100731961D02*
X116623333Y-100827200D01*
X116623333Y-100827200D02*
X116766190Y-100874819D01*
X116766190Y-100874819D02*
X117004285Y-100874819D01*
X115480476Y-100874819D02*
X116051904Y-100874819D01*
X115766190Y-100874819D02*
X115766190Y-99874819D01*
X115766190Y-99874819D02*
X115861428Y-100017676D01*
X115861428Y-100017676D02*
X115956666Y-100112914D01*
X115956666Y-100112914D02*
X116051904Y-100160533D01*
X115147142Y-99874819D02*
X114480476Y-99874819D01*
X114480476Y-99874819D02*
X114909047Y-100874819D01*
X112842857Y-110024819D02*
X113176190Y-109548628D01*
X113414285Y-110024819D02*
X113414285Y-109024819D01*
X113414285Y-109024819D02*
X113033333Y-109024819D01*
X113033333Y-109024819D02*
X112938095Y-109072438D01*
X112938095Y-109072438D02*
X112890476Y-109120057D01*
X112890476Y-109120057D02*
X112842857Y-109215295D01*
X112842857Y-109215295D02*
X112842857Y-109358152D01*
X112842857Y-109358152D02*
X112890476Y-109453390D01*
X112890476Y-109453390D02*
X112938095Y-109501009D01*
X112938095Y-109501009D02*
X113033333Y-109548628D01*
X113033333Y-109548628D02*
X113414285Y-109548628D01*
X111890476Y-110024819D02*
X112461904Y-110024819D01*
X112176190Y-110024819D02*
X112176190Y-109024819D01*
X112176190Y-109024819D02*
X112271428Y-109167676D01*
X112271428Y-109167676D02*
X112366666Y-109262914D01*
X112366666Y-109262914D02*
X112461904Y-109310533D01*
X111557142Y-109024819D02*
X110890476Y-109024819D01*
X110890476Y-109024819D02*
X111319047Y-110024819D01*
X136734285Y-88804819D02*
X136734285Y-87804819D01*
X136734285Y-87804819D02*
X136496190Y-87804819D01*
X136496190Y-87804819D02*
X136353333Y-87852438D01*
X136353333Y-87852438D02*
X136258095Y-87947676D01*
X136258095Y-87947676D02*
X136210476Y-88042914D01*
X136210476Y-88042914D02*
X136162857Y-88233390D01*
X136162857Y-88233390D02*
X136162857Y-88376247D01*
X136162857Y-88376247D02*
X136210476Y-88566723D01*
X136210476Y-88566723D02*
X136258095Y-88661961D01*
X136258095Y-88661961D02*
X136353333Y-88757200D01*
X136353333Y-88757200D02*
X136496190Y-88804819D01*
X136496190Y-88804819D02*
X136734285Y-88804819D01*
X135781904Y-87900057D02*
X135734285Y-87852438D01*
X135734285Y-87852438D02*
X135639047Y-87804819D01*
X135639047Y-87804819D02*
X135400952Y-87804819D01*
X135400952Y-87804819D02*
X135305714Y-87852438D01*
X135305714Y-87852438D02*
X135258095Y-87900057D01*
X135258095Y-87900057D02*
X135210476Y-87995295D01*
X135210476Y-87995295D02*
X135210476Y-88090533D01*
X135210476Y-88090533D02*
X135258095Y-88233390D01*
X135258095Y-88233390D02*
X135829523Y-88804819D01*
X135829523Y-88804819D02*
X135210476Y-88804819D01*
X134258095Y-88804819D02*
X134829523Y-88804819D01*
X134543809Y-88804819D02*
X134543809Y-87804819D01*
X134543809Y-87804819D02*
X134639047Y-87947676D01*
X134639047Y-87947676D02*
X134734285Y-88042914D01*
X134734285Y-88042914D02*
X134829523Y-88090533D01*
X130204285Y-100994819D02*
X130204285Y-99994819D01*
X130204285Y-99994819D02*
X129966190Y-99994819D01*
X129966190Y-99994819D02*
X129823333Y-100042438D01*
X129823333Y-100042438D02*
X129728095Y-100137676D01*
X129728095Y-100137676D02*
X129680476Y-100232914D01*
X129680476Y-100232914D02*
X129632857Y-100423390D01*
X129632857Y-100423390D02*
X129632857Y-100566247D01*
X129632857Y-100566247D02*
X129680476Y-100756723D01*
X129680476Y-100756723D02*
X129728095Y-100851961D01*
X129728095Y-100851961D02*
X129823333Y-100947200D01*
X129823333Y-100947200D02*
X129966190Y-100994819D01*
X129966190Y-100994819D02*
X130204285Y-100994819D01*
X128680476Y-100994819D02*
X129251904Y-100994819D01*
X128966190Y-100994819D02*
X128966190Y-99994819D01*
X128966190Y-99994819D02*
X129061428Y-100137676D01*
X129061428Y-100137676D02*
X129156666Y-100232914D01*
X129156666Y-100232914D02*
X129251904Y-100280533D01*
X128109047Y-100423390D02*
X128204285Y-100375771D01*
X128204285Y-100375771D02*
X128251904Y-100328152D01*
X128251904Y-100328152D02*
X128299523Y-100232914D01*
X128299523Y-100232914D02*
X128299523Y-100185295D01*
X128299523Y-100185295D02*
X128251904Y-100090057D01*
X128251904Y-100090057D02*
X128204285Y-100042438D01*
X128204285Y-100042438D02*
X128109047Y-99994819D01*
X128109047Y-99994819D02*
X127918571Y-99994819D01*
X127918571Y-99994819D02*
X127823333Y-100042438D01*
X127823333Y-100042438D02*
X127775714Y-100090057D01*
X127775714Y-100090057D02*
X127728095Y-100185295D01*
X127728095Y-100185295D02*
X127728095Y-100232914D01*
X127728095Y-100232914D02*
X127775714Y-100328152D01*
X127775714Y-100328152D02*
X127823333Y-100375771D01*
X127823333Y-100375771D02*
X127918571Y-100423390D01*
X127918571Y-100423390D02*
X128109047Y-100423390D01*
X128109047Y-100423390D02*
X128204285Y-100471009D01*
X128204285Y-100471009D02*
X128251904Y-100518628D01*
X128251904Y-100518628D02*
X128299523Y-100613866D01*
X128299523Y-100613866D02*
X128299523Y-100804342D01*
X128299523Y-100804342D02*
X128251904Y-100899580D01*
X128251904Y-100899580D02*
X128204285Y-100947200D01*
X128204285Y-100947200D02*
X128109047Y-100994819D01*
X128109047Y-100994819D02*
X127918571Y-100994819D01*
X127918571Y-100994819D02*
X127823333Y-100947200D01*
X127823333Y-100947200D02*
X127775714Y-100899580D01*
X127775714Y-100899580D02*
X127728095Y-100804342D01*
X127728095Y-100804342D02*
X127728095Y-100613866D01*
X127728095Y-100613866D02*
X127775714Y-100518628D01*
X127775714Y-100518628D02*
X127823333Y-100471009D01*
X127823333Y-100471009D02*
X127918571Y-100423390D01*
X139242857Y-110024819D02*
X139576190Y-109548628D01*
X139814285Y-110024819D02*
X139814285Y-109024819D01*
X139814285Y-109024819D02*
X139433333Y-109024819D01*
X139433333Y-109024819D02*
X139338095Y-109072438D01*
X139338095Y-109072438D02*
X139290476Y-109120057D01*
X139290476Y-109120057D02*
X139242857Y-109215295D01*
X139242857Y-109215295D02*
X139242857Y-109358152D01*
X139242857Y-109358152D02*
X139290476Y-109453390D01*
X139290476Y-109453390D02*
X139338095Y-109501009D01*
X139338095Y-109501009D02*
X139433333Y-109548628D01*
X139433333Y-109548628D02*
X139814285Y-109548628D01*
X138290476Y-110024819D02*
X138861904Y-110024819D01*
X138576190Y-110024819D02*
X138576190Y-109024819D01*
X138576190Y-109024819D02*
X138671428Y-109167676D01*
X138671428Y-109167676D02*
X138766666Y-109262914D01*
X138766666Y-109262914D02*
X138861904Y-109310533D01*
X137814285Y-110024819D02*
X137623809Y-110024819D01*
X137623809Y-110024819D02*
X137528571Y-109977200D01*
X137528571Y-109977200D02*
X137480952Y-109929580D01*
X137480952Y-109929580D02*
X137385714Y-109786723D01*
X137385714Y-109786723D02*
X137338095Y-109596247D01*
X137338095Y-109596247D02*
X137338095Y-109215295D01*
X137338095Y-109215295D02*
X137385714Y-109120057D01*
X137385714Y-109120057D02*
X137433333Y-109072438D01*
X137433333Y-109072438D02*
X137528571Y-109024819D01*
X137528571Y-109024819D02*
X137719047Y-109024819D01*
X137719047Y-109024819D02*
X137814285Y-109072438D01*
X137814285Y-109072438D02*
X137861904Y-109120057D01*
X137861904Y-109120057D02*
X137909523Y-109215295D01*
X137909523Y-109215295D02*
X137909523Y-109453390D01*
X137909523Y-109453390D02*
X137861904Y-109548628D01*
X137861904Y-109548628D02*
X137814285Y-109596247D01*
X137814285Y-109596247D02*
X137719047Y-109643866D01*
X137719047Y-109643866D02*
X137528571Y-109643866D01*
X137528571Y-109643866D02*
X137433333Y-109596247D01*
X137433333Y-109596247D02*
X137385714Y-109548628D01*
X137385714Y-109548628D02*
X137338095Y-109453390D01*
X145842857Y-97924819D02*
X146176190Y-97448628D01*
X146414285Y-97924819D02*
X146414285Y-96924819D01*
X146414285Y-96924819D02*
X146033333Y-96924819D01*
X146033333Y-96924819D02*
X145938095Y-96972438D01*
X145938095Y-96972438D02*
X145890476Y-97020057D01*
X145890476Y-97020057D02*
X145842857Y-97115295D01*
X145842857Y-97115295D02*
X145842857Y-97258152D01*
X145842857Y-97258152D02*
X145890476Y-97353390D01*
X145890476Y-97353390D02*
X145938095Y-97401009D01*
X145938095Y-97401009D02*
X146033333Y-97448628D01*
X146033333Y-97448628D02*
X146414285Y-97448628D01*
X145461904Y-97020057D02*
X145414285Y-96972438D01*
X145414285Y-96972438D02*
X145319047Y-96924819D01*
X145319047Y-96924819D02*
X145080952Y-96924819D01*
X145080952Y-96924819D02*
X144985714Y-96972438D01*
X144985714Y-96972438D02*
X144938095Y-97020057D01*
X144938095Y-97020057D02*
X144890476Y-97115295D01*
X144890476Y-97115295D02*
X144890476Y-97210533D01*
X144890476Y-97210533D02*
X144938095Y-97353390D01*
X144938095Y-97353390D02*
X145509523Y-97924819D01*
X145509523Y-97924819D02*
X144890476Y-97924819D01*
X144557142Y-96924819D02*
X143938095Y-96924819D01*
X143938095Y-96924819D02*
X144271428Y-97305771D01*
X144271428Y-97305771D02*
X144128571Y-97305771D01*
X144128571Y-97305771D02*
X144033333Y-97353390D01*
X144033333Y-97353390D02*
X143985714Y-97401009D01*
X143985714Y-97401009D02*
X143938095Y-97496247D01*
X143938095Y-97496247D02*
X143938095Y-97734342D01*
X143938095Y-97734342D02*
X143985714Y-97829580D01*
X143985714Y-97829580D02*
X144033333Y-97877200D01*
X144033333Y-97877200D02*
X144128571Y-97924819D01*
X144128571Y-97924819D02*
X144414285Y-97924819D01*
X144414285Y-97924819D02*
X144509523Y-97877200D01*
X144509523Y-97877200D02*
X144557142Y-97829580D01*
X123604285Y-113064819D02*
X123604285Y-112064819D01*
X123604285Y-112064819D02*
X123366190Y-112064819D01*
X123366190Y-112064819D02*
X123223333Y-112112438D01*
X123223333Y-112112438D02*
X123128095Y-112207676D01*
X123128095Y-112207676D02*
X123080476Y-112302914D01*
X123080476Y-112302914D02*
X123032857Y-112493390D01*
X123032857Y-112493390D02*
X123032857Y-112636247D01*
X123032857Y-112636247D02*
X123080476Y-112826723D01*
X123080476Y-112826723D02*
X123128095Y-112921961D01*
X123128095Y-112921961D02*
X123223333Y-113017200D01*
X123223333Y-113017200D02*
X123366190Y-113064819D01*
X123366190Y-113064819D02*
X123604285Y-113064819D01*
X122080476Y-113064819D02*
X122651904Y-113064819D01*
X122366190Y-113064819D02*
X122366190Y-112064819D01*
X122366190Y-112064819D02*
X122461428Y-112207676D01*
X122461428Y-112207676D02*
X122556666Y-112302914D01*
X122556666Y-112302914D02*
X122651904Y-112350533D01*
X121223333Y-112398152D02*
X121223333Y-113064819D01*
X121461428Y-112017200D02*
X121699523Y-112731485D01*
X121699523Y-112731485D02*
X121080476Y-112731485D01*
X136804285Y-112994819D02*
X136804285Y-111994819D01*
X136804285Y-111994819D02*
X136566190Y-111994819D01*
X136566190Y-111994819D02*
X136423333Y-112042438D01*
X136423333Y-112042438D02*
X136328095Y-112137676D01*
X136328095Y-112137676D02*
X136280476Y-112232914D01*
X136280476Y-112232914D02*
X136232857Y-112423390D01*
X136232857Y-112423390D02*
X136232857Y-112566247D01*
X136232857Y-112566247D02*
X136280476Y-112756723D01*
X136280476Y-112756723D02*
X136328095Y-112851961D01*
X136328095Y-112851961D02*
X136423333Y-112947200D01*
X136423333Y-112947200D02*
X136566190Y-112994819D01*
X136566190Y-112994819D02*
X136804285Y-112994819D01*
X135280476Y-112994819D02*
X135851904Y-112994819D01*
X135566190Y-112994819D02*
X135566190Y-111994819D01*
X135566190Y-111994819D02*
X135661428Y-112137676D01*
X135661428Y-112137676D02*
X135756666Y-112232914D01*
X135756666Y-112232914D02*
X135851904Y-112280533D01*
X134375714Y-111994819D02*
X134851904Y-111994819D01*
X134851904Y-111994819D02*
X134899523Y-112471009D01*
X134899523Y-112471009D02*
X134851904Y-112423390D01*
X134851904Y-112423390D02*
X134756666Y-112375771D01*
X134756666Y-112375771D02*
X134518571Y-112375771D01*
X134518571Y-112375771D02*
X134423333Y-112423390D01*
X134423333Y-112423390D02*
X134375714Y-112471009D01*
X134375714Y-112471009D02*
X134328095Y-112566247D01*
X134328095Y-112566247D02*
X134328095Y-112804342D01*
X134328095Y-112804342D02*
X134375714Y-112899580D01*
X134375714Y-112899580D02*
X134423333Y-112947200D01*
X134423333Y-112947200D02*
X134518571Y-112994819D01*
X134518571Y-112994819D02*
X134756666Y-112994819D01*
X134756666Y-112994819D02*
X134851904Y-112947200D01*
X134851904Y-112947200D02*
X134899523Y-112899580D01*
X149984285Y-113014819D02*
X149984285Y-112014819D01*
X149984285Y-112014819D02*
X149746190Y-112014819D01*
X149746190Y-112014819D02*
X149603333Y-112062438D01*
X149603333Y-112062438D02*
X149508095Y-112157676D01*
X149508095Y-112157676D02*
X149460476Y-112252914D01*
X149460476Y-112252914D02*
X149412857Y-112443390D01*
X149412857Y-112443390D02*
X149412857Y-112586247D01*
X149412857Y-112586247D02*
X149460476Y-112776723D01*
X149460476Y-112776723D02*
X149508095Y-112871961D01*
X149508095Y-112871961D02*
X149603333Y-112967200D01*
X149603333Y-112967200D02*
X149746190Y-113014819D01*
X149746190Y-113014819D02*
X149984285Y-113014819D01*
X148460476Y-113014819D02*
X149031904Y-113014819D01*
X148746190Y-113014819D02*
X148746190Y-112014819D01*
X148746190Y-112014819D02*
X148841428Y-112157676D01*
X148841428Y-112157676D02*
X148936666Y-112252914D01*
X148936666Y-112252914D02*
X149031904Y-112300533D01*
X147603333Y-112014819D02*
X147793809Y-112014819D01*
X147793809Y-112014819D02*
X147889047Y-112062438D01*
X147889047Y-112062438D02*
X147936666Y-112110057D01*
X147936666Y-112110057D02*
X148031904Y-112252914D01*
X148031904Y-112252914D02*
X148079523Y-112443390D01*
X148079523Y-112443390D02*
X148079523Y-112824342D01*
X148079523Y-112824342D02*
X148031904Y-112919580D01*
X148031904Y-112919580D02*
X147984285Y-112967200D01*
X147984285Y-112967200D02*
X147889047Y-113014819D01*
X147889047Y-113014819D02*
X147698571Y-113014819D01*
X147698571Y-113014819D02*
X147603333Y-112967200D01*
X147603333Y-112967200D02*
X147555714Y-112919580D01*
X147555714Y-112919580D02*
X147508095Y-112824342D01*
X147508095Y-112824342D02*
X147508095Y-112586247D01*
X147508095Y-112586247D02*
X147555714Y-112491009D01*
X147555714Y-112491009D02*
X147603333Y-112443390D01*
X147603333Y-112443390D02*
X147698571Y-112395771D01*
X147698571Y-112395771D02*
X147889047Y-112395771D01*
X147889047Y-112395771D02*
X147984285Y-112443390D01*
X147984285Y-112443390D02*
X148031904Y-112491009D01*
X148031904Y-112491009D02*
X148079523Y-112586247D01*
X152442857Y-110024819D02*
X152776190Y-109548628D01*
X153014285Y-110024819D02*
X153014285Y-109024819D01*
X153014285Y-109024819D02*
X152633333Y-109024819D01*
X152633333Y-109024819D02*
X152538095Y-109072438D01*
X152538095Y-109072438D02*
X152490476Y-109120057D01*
X152490476Y-109120057D02*
X152442857Y-109215295D01*
X152442857Y-109215295D02*
X152442857Y-109358152D01*
X152442857Y-109358152D02*
X152490476Y-109453390D01*
X152490476Y-109453390D02*
X152538095Y-109501009D01*
X152538095Y-109501009D02*
X152633333Y-109548628D01*
X152633333Y-109548628D02*
X153014285Y-109548628D01*
X152061904Y-109120057D02*
X152014285Y-109072438D01*
X152014285Y-109072438D02*
X151919047Y-109024819D01*
X151919047Y-109024819D02*
X151680952Y-109024819D01*
X151680952Y-109024819D02*
X151585714Y-109072438D01*
X151585714Y-109072438D02*
X151538095Y-109120057D01*
X151538095Y-109120057D02*
X151490476Y-109215295D01*
X151490476Y-109215295D02*
X151490476Y-109310533D01*
X151490476Y-109310533D02*
X151538095Y-109453390D01*
X151538095Y-109453390D02*
X152109523Y-110024819D01*
X152109523Y-110024819D02*
X151490476Y-110024819D01*
X150871428Y-109024819D02*
X150776190Y-109024819D01*
X150776190Y-109024819D02*
X150680952Y-109072438D01*
X150680952Y-109072438D02*
X150633333Y-109120057D01*
X150633333Y-109120057D02*
X150585714Y-109215295D01*
X150585714Y-109215295D02*
X150538095Y-109405771D01*
X150538095Y-109405771D02*
X150538095Y-109643866D01*
X150538095Y-109643866D02*
X150585714Y-109834342D01*
X150585714Y-109834342D02*
X150633333Y-109929580D01*
X150633333Y-109929580D02*
X150680952Y-109977200D01*
X150680952Y-109977200D02*
X150776190Y-110024819D01*
X150776190Y-110024819D02*
X150871428Y-110024819D01*
X150871428Y-110024819D02*
X150966666Y-109977200D01*
X150966666Y-109977200D02*
X151014285Y-109929580D01*
X151014285Y-109929580D02*
X151061904Y-109834342D01*
X151061904Y-109834342D02*
X151109523Y-109643866D01*
X151109523Y-109643866D02*
X151109523Y-109405771D01*
X151109523Y-109405771D02*
X151061904Y-109215295D01*
X151061904Y-109215295D02*
X151014285Y-109120057D01*
X151014285Y-109120057D02*
X150966666Y-109072438D01*
X150966666Y-109072438D02*
X150871428Y-109024819D01*
X139242857Y-85824819D02*
X139576190Y-85348628D01*
X139814285Y-85824819D02*
X139814285Y-84824819D01*
X139814285Y-84824819D02*
X139433333Y-84824819D01*
X139433333Y-84824819D02*
X139338095Y-84872438D01*
X139338095Y-84872438D02*
X139290476Y-84920057D01*
X139290476Y-84920057D02*
X139242857Y-85015295D01*
X139242857Y-85015295D02*
X139242857Y-85158152D01*
X139242857Y-85158152D02*
X139290476Y-85253390D01*
X139290476Y-85253390D02*
X139338095Y-85301009D01*
X139338095Y-85301009D02*
X139433333Y-85348628D01*
X139433333Y-85348628D02*
X139814285Y-85348628D01*
X138861904Y-84920057D02*
X138814285Y-84872438D01*
X138814285Y-84872438D02*
X138719047Y-84824819D01*
X138719047Y-84824819D02*
X138480952Y-84824819D01*
X138480952Y-84824819D02*
X138385714Y-84872438D01*
X138385714Y-84872438D02*
X138338095Y-84920057D01*
X138338095Y-84920057D02*
X138290476Y-85015295D01*
X138290476Y-85015295D02*
X138290476Y-85110533D01*
X138290476Y-85110533D02*
X138338095Y-85253390D01*
X138338095Y-85253390D02*
X138909523Y-85824819D01*
X138909523Y-85824819D02*
X138290476Y-85824819D01*
X137385714Y-84824819D02*
X137861904Y-84824819D01*
X137861904Y-84824819D02*
X137909523Y-85301009D01*
X137909523Y-85301009D02*
X137861904Y-85253390D01*
X137861904Y-85253390D02*
X137766666Y-85205771D01*
X137766666Y-85205771D02*
X137528571Y-85205771D01*
X137528571Y-85205771D02*
X137433333Y-85253390D01*
X137433333Y-85253390D02*
X137385714Y-85301009D01*
X137385714Y-85301009D02*
X137338095Y-85396247D01*
X137338095Y-85396247D02*
X137338095Y-85634342D01*
X137338095Y-85634342D02*
X137385714Y-85729580D01*
X137385714Y-85729580D02*
X137433333Y-85777200D01*
X137433333Y-85777200D02*
X137528571Y-85824819D01*
X137528571Y-85824819D02*
X137766666Y-85824819D01*
X137766666Y-85824819D02*
X137861904Y-85777200D01*
X137861904Y-85777200D02*
X137909523Y-85729580D01*
%TO.C,D20*%
D11*
X120915000Y-86065000D02*
X123200000Y-86065000D01*
X120915000Y-87535000D02*
X120915000Y-86065000D01*
X123200000Y-87535000D02*
X120915000Y-87535000D01*
%TO.C,R18*%
X125637258Y-110477500D02*
X125162742Y-110477500D01*
X125637258Y-111522500D02*
X125162742Y-111522500D01*
%TO.C,R26*%
X132237258Y-74177500D02*
X131762742Y-74177500D01*
X132237258Y-75222500D02*
X131762742Y-75222500D01*
%TO.C,D19*%
X140715000Y-98165000D02*
X143000000Y-98165000D01*
X140715000Y-99635000D02*
X140715000Y-98165000D01*
X143000000Y-99635000D02*
X140715000Y-99635000D01*
%TO.C,R22*%
X132237258Y-98377500D02*
X131762742Y-98377500D01*
X132237258Y-99422500D02*
X131762742Y-99422500D01*
%TO.C,D22*%
X127515000Y-73965000D02*
X129800000Y-73965000D01*
X127515000Y-75435000D02*
X127515000Y-73965000D01*
X129800000Y-75435000D02*
X127515000Y-75435000D01*
%TO.C,D13*%
X107715000Y-110265000D02*
X110000000Y-110265000D01*
X107715000Y-111735000D02*
X107715000Y-110265000D01*
X110000000Y-111735000D02*
X107715000Y-111735000D01*
%TO.C,R24*%
X125637258Y-86277500D02*
X125162742Y-86277500D01*
X125637258Y-87322500D02*
X125162742Y-87322500D01*
%TO.C,R21*%
X119037258Y-98377500D02*
X118562742Y-98377500D01*
X119037258Y-99422500D02*
X118562742Y-99422500D01*
%TO.C,D17*%
X114315000Y-98165000D02*
X116600000Y-98165000D01*
X114315000Y-99635000D02*
X114315000Y-98165000D01*
X116600000Y-99635000D02*
X114315000Y-99635000D01*
%TO.C,R17*%
X112437258Y-110477500D02*
X111962742Y-110477500D01*
X112437258Y-111522500D02*
X111962742Y-111522500D01*
%TO.C,D21*%
X134115000Y-86065000D02*
X136400000Y-86065000D01*
X134115000Y-87535000D02*
X134115000Y-86065000D01*
X136400000Y-87535000D02*
X134115000Y-87535000D01*
%TO.C,D18*%
X127515000Y-98165000D02*
X129800000Y-98165000D01*
X127515000Y-99635000D02*
X127515000Y-98165000D01*
X129800000Y-99635000D02*
X127515000Y-99635000D01*
%TO.C,R19*%
X138837258Y-110477500D02*
X138362742Y-110477500D01*
X138837258Y-111522500D02*
X138362742Y-111522500D01*
%TO.C,R23*%
X145437258Y-98377500D02*
X144962742Y-98377500D01*
X145437258Y-99422500D02*
X144962742Y-99422500D01*
%TO.C,D14*%
X120915000Y-110265000D02*
X123200000Y-110265000D01*
X120915000Y-111735000D02*
X120915000Y-110265000D01*
X123200000Y-111735000D02*
X120915000Y-111735000D01*
%TO.C,D15*%
X134115000Y-110265000D02*
X136400000Y-110265000D01*
X134115000Y-111735000D02*
X134115000Y-110265000D01*
X136400000Y-111735000D02*
X134115000Y-111735000D01*
%TO.C,D16*%
X147315000Y-110265000D02*
X149600000Y-110265000D01*
X147315000Y-111735000D02*
X147315000Y-110265000D01*
X149600000Y-111735000D02*
X147315000Y-111735000D01*
%TO.C,R20*%
X152037258Y-110477500D02*
X151562742Y-110477500D01*
X152037258Y-111522500D02*
X151562742Y-111522500D01*
%TO.C,R25*%
X138837258Y-86277500D02*
X138362742Y-86277500D01*
X138837258Y-87322500D02*
X138362742Y-87322500D01*
%TD*%
D12*
X94000000Y-120000000D02*
X118000000Y-120000000D01*
X118000000Y-120000000D02*
X118000000Y-147000000D01*
X118000000Y-147000000D02*
X140000000Y-147000000D01*
X129000000Y-55000000D02*
X94000000Y-120000000D01*
X140000000Y-120000000D02*
X164000000Y-120000000D01*
X140000000Y-147000000D02*
X140000000Y-120000000D01*
X164000000Y-120000000D02*
X129000000Y-55000000D01*
M02*
