M48
; DRILL file KiCad 10.0.6 date 2026-10-03T12:20:40
; FORMAT={-:-/ absolute / metric / decimal}
; #@! TF.CreationDate,2026-10-03T12:20:40+02:00
; #@! TF.GenerationSoftware,Kicad,Pcbnew,10.0.6
; #@! TF.FileFunction,Plated,1,2,PTH
FMAT,2
METRIC
; #@! TA.AperFunction,Plated,PTH,ViaDrill
T1C0.300
; #@! TA.AperFunction,Plated,PTH,ComponentDrill
T2C0.600
%
G90
G05
T1
X110.5Y-103.5
X114.5Y-113.25
X115.0Y-109.5
X115.5Y-106.75
X115.5Y-111.25
X116.0Y-109.575
X116.25Y-89.5
X116.75Y-112.5
X119.0Y-124.5
X119.25Y-143.75
X119.271Y-109.479
X119.5Y-113.75
X119.75Y-90.5
X119.75Y-112.5
X119.875Y-136.0
X119.925Y-126.0
X120.0Y-120.0
X120.25Y-109.575
X120.5Y-125.0
X120.625Y-117.418
X121.0Y-80.0
X121.0Y-118.125
X121.2Y-124.25
X121.5Y-103.75
X121.665Y-143.95
X122.0Y-118.75
X122.0Y-124.25
X122.0Y-140.5
X122.25Y-99.25
X122.25Y-136.0
X123.0Y-118.75
X123.0Y-122.5
X123.25Y-134.0
X123.671Y-142.329
X124.0Y-118.75
X124.0Y-122.5
X124.5Y-134.0
X124.575Y-123.25
X124.929Y-141.821
X125.0Y-146.0
X125.125Y-137.904
X125.25Y-113.25
X125.25Y-118.75
X125.25Y-122.25
X125.5Y-140.0
X126.0Y-136.5
X126.028Y-138.769
X126.5Y-122.25
X126.558Y-118.75
X126.75Y-74.75
X127.5Y-122.625
X128.433Y-139.067
X128.5Y-86.75
X128.5Y-111.0
X128.75Y-134.0
X129.0Y-137.75
X129.25Y-120.5
X129.25Y-122.5
X129.5Y-82.0
X129.75Y-142.5
X129.817Y-138.625
X130.0Y-70.0
X131.25Y-142.0
X132.5Y-136.5
X132.75Y-87.0
X132.75Y-92.75
X133.25Y-132.75
X133.25Y-134.0
X133.5Y-142.75
X134.0Y-85.0
X134.25Y-76.5
X136.0Y-139.0
X136.308Y-116.692
X136.5Y-99.75
X136.5Y-142.0
X137.25Y-143.0
X137.5Y-139.25
X137.75Y-113.75
X138.25Y-142.25
X138.75Y-78.75
X140.05Y-91.0
X140.75Y-87.5
X141.25Y-109.375
X141.25Y-111.0
X142.0Y-103.75
X145.75Y-93.0
X146.0Y-109.375
X148.0Y-100.0
T2
G00X129.68Y-140.2
M15
G01X129.68Y-140.8
M16
G05
G00X129.68Y-144.0
M15
G01X129.68Y-144.6
M16
G05
G00X138.32Y-140.2
M15
G01X138.32Y-140.8
M16
G05
G00X138.32Y-144.0
M15
G01X138.32Y-144.6
M16
G05
M30
