%TF.GenerationSoftware,KiCad,Pcbnew,10.0.6*%
%TF.CreationDate,2026-10-03T12:19:27+02:00*%
%TF.ProjectId,PCB,5043422e-6b69-4636-9164-5f7063625858,rev?*%
%TF.SameCoordinates,Original*%
%TF.FileFunction,Copper,L1,Top*%
%TF.FilePolarity,Positive*%
%FSLAX46Y46*%
G04 Gerber Fmt 4.6, Leading zero omitted, Abs format (unit mm)*
G04 Created by KiCad (PCBNEW 10.0.6) date 2026-10-03 12:19:27*
%MOMM*%
%LPD*%
G01*
G04 APERTURE LIST*
G04 Aperture macros list*
%AMRoundRect*
0 Rectangle with rounded corners*
0 $1 Rounding radius*
0 $2 $3 $4 $5 $6 $7 $8 $9 X,Y pos of 4 corners*
0 Add a 4 corners polygon primitive as box body*
4,1,4,$2,$3,$4,$5,$6,$7,$8,$9,$2,$3,0*
0 Add four circle primitives for the rounded corners*
1,1,$1+$1,$2,$3*
1,1,$1+$1,$4,$5*
1,1,$1+$1,$6,$7*
1,1,$1+$1,$8,$9*
0 Add four rect primitives between the rounded corners*
20,1,$1+$1,$2,$3,$4,$5,0*
20,1,$1+$1,$4,$5,$6,$7,0*
20,1,$1+$1,$6,$7,$8,$9,0*
20,1,$1+$1,$8,$9,$2,$3,0*%
G04 Aperture macros list end*
%TA.AperFunction,NonConductor*%
%ADD10C,0.200000*%
%TD*%
%TA.AperFunction,SMDPad,CuDef*%
%ADD11RoundRect,0.225000X0.225000X0.250000X-0.225000X0.250000X-0.225000X-0.250000X0.225000X-0.250000X0*%
%TD*%
%TA.AperFunction,SMDPad,CuDef*%
%ADD12RoundRect,0.150000X0.512500X0.150000X-0.512500X0.150000X-0.512500X-0.150000X0.512500X-0.150000X0*%
%TD*%
%TA.AperFunction,SMDPad,CuDef*%
%ADD13RoundRect,0.218750X-0.218750X-0.256250X0.218750X-0.256250X0.218750X0.256250X-0.218750X0.256250X0*%
%TD*%
%TA.AperFunction,SMDPad,CuDef*%
%ADD14RoundRect,0.200000X0.200000X0.275000X-0.200000X0.275000X-0.200000X-0.275000X0.200000X-0.275000X0*%
%TD*%
%TA.AperFunction,SMDPad,CuDef*%
%ADD15R,0.750013X1.800000*%
%TD*%
%TA.AperFunction,SMDPad,CuDef*%
%ADD16R,0.599949X1.800000*%
%TD*%
%TA.AperFunction,SMDPad,CuDef*%
%ADD17R,1.300000X0.900000*%
%TD*%
%TA.AperFunction,SMDPad,CuDef*%
%ADD18R,0.600000X1.100000*%
%TD*%
%TA.AperFunction,SMDPad,CuDef*%
%ADD19R,1.019990X3.170003*%
%TD*%
%TA.AperFunction,SMDPad,CuDef*%
%ADD20RoundRect,0.200000X-0.275000X0.200000X-0.275000X-0.200000X0.275000X-0.200000X0.275000X0.200000X0*%
%TD*%
%TA.AperFunction,SMDPad,CuDef*%
%ADD21RoundRect,0.225000X-0.250000X0.225000X-0.250000X-0.225000X0.250000X-0.225000X0.250000X0.225000X0*%
%TD*%
%TA.AperFunction,SMDPad,CuDef*%
%ADD22RoundRect,0.200000X-0.200000X-0.275000X0.200000X-0.275000X0.200000X0.275000X-0.200000X0.275000X0*%
%TD*%
%TA.AperFunction,SMDPad,CuDef*%
%ADD23RoundRect,0.200000X0.275000X-0.200000X0.275000X0.200000X-0.275000X0.200000X-0.275000X-0.200000X0*%
%TD*%
%TA.AperFunction,SMDPad,CuDef*%
%ADD24R,1.000000X0.600000*%
%TD*%
%TA.AperFunction,SMDPad,CuDef*%
%ADD25RoundRect,0.225000X0.250000X-0.225000X0.250000X0.225000X-0.250000X0.225000X-0.250000X-0.225000X0*%
%TD*%
%TA.AperFunction,SMDPad,CuDef*%
%ADD26RoundRect,0.218750X0.256250X-0.218750X0.256250X0.218750X-0.256250X0.218750X-0.256250X-0.218750X0*%
%TD*%
%TA.AperFunction,SMDPad,CuDef*%
%ADD27RoundRect,0.100000X0.100000X-0.637500X0.100000X0.637500X-0.100000X0.637500X-0.100000X-0.637500X0*%
%TD*%
%TA.AperFunction,SMDPad,CuDef*%
%ADD28RoundRect,0.225000X0.375000X-0.225000X0.375000X0.225000X-0.375000X0.225000X-0.375000X-0.225000X0*%
%TD*%
%TA.AperFunction,SMDPad,CuDef*%
%ADD29RoundRect,0.150000X0.150000X-0.512500X0.150000X0.512500X-0.150000X0.512500X-0.150000X-0.512500X0*%
%TD*%
%TA.AperFunction,SMDPad,CuDef*%
%ADD30RoundRect,0.200000X-0.600000X0.200000X-0.600000X-0.200000X0.600000X-0.200000X0.600000X0.200000X0*%
%TD*%
%TA.AperFunction,SMDPad,CuDef*%
%ADD31RoundRect,0.250001X-1.249999X0.799999X-1.249999X-0.799999X1.249999X-0.799999X1.249999X0.799999X0*%
%TD*%
%TA.AperFunction,SMDPad,CuDef*%
%ADD32RoundRect,0.175000X-0.175000X-0.425000X0.175000X-0.425000X0.175000X0.425000X-0.175000X0.425000X0*%
%TD*%
%TA.AperFunction,SMDPad,CuDef*%
%ADD33RoundRect,0.190000X0.190000X0.410000X-0.190000X0.410000X-0.190000X-0.410000X0.190000X-0.410000X0*%
%TD*%
%TA.AperFunction,SMDPad,CuDef*%
%ADD34RoundRect,0.200000X0.200000X0.400000X-0.200000X0.400000X-0.200000X-0.400000X0.200000X-0.400000X0*%
%TD*%
%TA.AperFunction,SMDPad,CuDef*%
%ADD35RoundRect,0.175000X0.175000X0.425000X-0.175000X0.425000X-0.175000X-0.425000X0.175000X-0.425000X0*%
%TD*%
%TA.AperFunction,SMDPad,CuDef*%
%ADD36RoundRect,0.190000X-0.190000X-0.410000X0.190000X-0.410000X0.190000X0.410000X-0.190000X0.410000X0*%
%TD*%
%TA.AperFunction,SMDPad,CuDef*%
%ADD37RoundRect,0.200000X-0.200000X-0.400000X0.200000X-0.400000X0.200000X0.400000X-0.200000X0.400000X0*%
%TD*%
%TA.AperFunction,ComponentPad*%
%ADD38O,1.100000X1.700000*%
%TD*%
%TA.AperFunction,SMDPad,CuDef*%
%ADD39RoundRect,0.225000X-0.225000X-0.250000X0.225000X-0.250000X0.225000X0.250000X-0.225000X0.250000X0*%
%TD*%
%TA.AperFunction,ViaPad*%
%ADD40C,0.600000*%
%TD*%
%TA.AperFunction,Conductor*%
%ADD41C,0.250000*%
%TD*%
%TA.AperFunction,Conductor*%
%ADD42C,0.500000*%
%TD*%
%TA.AperFunction,Profile*%
%ADD43C,0.050000*%
%TD*%
G04 APERTURE END LIST*
D10*
X129000000Y-75900000D02*
X128100000Y-75900000D01*
D11*
%TO.P,C8,1*%
%TO.N,NRST*%
X117050000Y-115750000D03*
%TO.P,C8,2*%
%TO.N,GND*%
X115500000Y-115750000D03*
%TD*%
D12*
%TO.P,U2,1,STAT_1*%
%TO.N,Net-(U2-STAT)*%
X127137500Y-140950000D03*
%TO.P,U2,2,V_{SS}_2*%
%TO.N,GND*%
X127137500Y-140000000D03*
%TO.P,U2,3,V_{BAT}_3*%
%TO.N,V_Bat*%
X127137500Y-139050000D03*
%TO.P,U2,4,V_{DD}_4*%
%TO.N,V_USB*%
X124862500Y-139050000D03*
%TO.P,U2,5,PROG_5*%
%TO.N,Net-(U2-PROG)*%
X124862500Y-140950000D03*
%TD*%
D13*
%TO.P,D11,1,K_1*%
%TO.N,TIM3_CH2*%
X134812500Y-86800000D03*
%TO.P,D11,2,A_2*%
%TO.N,Net-(D11-A)*%
X136387500Y-86800000D03*
%TD*%
D14*
%TO.P,R13,1*%
%TO.N,V_Bat*%
X146025000Y-98900000D03*
%TO.P,R13,2*%
%TO.N,Net-(D9-A)*%
X144375000Y-98900000D03*
%TD*%
D15*
%TO.P,KEY1,1,1_1*%
%TO.N,GND*%
X120424981Y-143949994D03*
D16*
%TO.P,KEY1,2,2_2*%
%TO.N,Net-(U1-PA0)*%
X121664732Y-143949994D03*
D15*
%TO.P,KEY1,3,3_3*%
%TO.N,GND*%
X122874994Y-143949994D03*
D17*
%TO.P,KEY1,4,4_4*%
X119799987Y-145899981D03*
%TO.P,KEY1,5,5_5*%
X123499987Y-145899981D03*
%TD*%
D13*
%TO.P,D10,1,K_1*%
%TO.N,TIM3_CH2*%
X121612500Y-86800000D03*
%TO.P,D10,2,A_2*%
%TO.N,Net-(D10-A)*%
X123187500Y-86800000D03*
%TD*%
D18*
%TO.P,U4,1,S1_1*%
%TO.N,Bat_Neg*%
X130600076Y-137850013D03*
%TO.P,U4,2,D1/D2_2*%
%TO.N,Net-(U4-D1{slash}D2-Pad2)*%
X131550038Y-137850013D03*
%TO.P,U4,3,S2_3*%
%TO.N,GND*%
X132500000Y-137850013D03*
%TO.P,U4,4,G2_4*%
%TO.N,Net-(U3-OC)*%
X132500000Y-135149987D03*
%TO.P,U4,5,D1/D2_5*%
%TO.N,Net-(U4-D1{slash}D2-Pad2)*%
X131550038Y-135149987D03*
%TO.P,U4,6,G1_6*%
%TO.N,Net-(U3-OD)*%
X130600076Y-135149987D03*
%TD*%
D19*
%TO.P,J2,1,Pin_1_1*%
%TO.N,Net-(D3-A)*%
X102669990Y-113910000D03*
%TO.P,J2,2,Pin_2_2*%
%TO.N,SWDIO*%
X105209995Y-113910000D03*
%TO.P,J2,3,Pin_3_3*%
%TO.N,SWCLK*%
X107750000Y-113910000D03*
%TO.P,J2,4,Pin_4_4*%
%TO.N,NRST*%
X110290005Y-113910000D03*
%TO.P,J2,5,Pin_5_5*%
%TO.N,GND*%
X112830010Y-113910000D03*
%TD*%
D20*
%TO.P,R28,1*%
%TO.N,PA1*%
X136500000Y-134675000D03*
%TO.P,R28,2*%
%TO.N,GND*%
X136500000Y-136325000D03*
%TD*%
D21*
%TO.P,C1,1*%
%TO.N,GND*%
X123000000Y-139225000D03*
%TO.P,C1,2*%
%TO.N,V_USB*%
X123000000Y-140775000D03*
%TD*%
D14*
%TO.P,R15,1*%
%TO.N,V_Bat*%
X139425000Y-86800000D03*
%TO.P,R15,2*%
%TO.N,Net-(D11-A)*%
X137775000Y-86800000D03*
%TD*%
D22*
%TO.P,R3,1*%
%TO.N,Net-(U2-PROG)*%
X119175000Y-141500000D03*
%TO.P,R3,2*%
%TO.N,GND*%
X120825000Y-141500000D03*
%TD*%
D14*
%TO.P,R7,1*%
%TO.N,V_Bat*%
X113025000Y-111000000D03*
%TO.P,R7,2*%
%TO.N,Net-(D2-A)*%
X111375000Y-111000000D03*
%TD*%
D23*
%TO.P,R29,1*%
%TO.N,V_Bat*%
X138500000Y-132825000D03*
%TO.P,R29,2*%
%TO.N,Net-(D3-K)*%
X138500000Y-131175000D03*
%TD*%
D14*
%TO.P,R12,1*%
%TO.N,V_Bat*%
X132825000Y-98900000D03*
%TO.P,R12,2*%
%TO.N,Net-(D8-A)*%
X131175000Y-98900000D03*
%TD*%
D13*
%TO.P,D4,1,K_1*%
%TO.N,TIM14_CH1*%
X121612500Y-111000000D03*
%TO.P,D4,2,A_2*%
%TO.N,Net-(D4-A)*%
X123187500Y-111000000D03*
%TD*%
D24*
%TO.P,U5,1,IN_1*%
%TO.N,V_Bat*%
X119299848Y-135000254D03*
%TO.P,U5,2,GND_2*%
%TO.N,GND*%
X119299848Y-135949962D03*
%TO.P,U5,3,EN_3*%
%TO.N,V_Bat*%
X119299848Y-136899924D03*
%TO.P,U5,4,NC_4*%
%TO.N,unconnected-(U5-NC-Pad4)*%
X121500000Y-136900178D03*
%TO.P,U5,5,OUT_5*%
%TO.N,Net-(U1-VDD)*%
X121500000Y-135000000D03*
%TD*%
D25*
%TO.P,C5,1*%
%TO.N,GND*%
X125250000Y-136550000D03*
%TO.P,C5,2*%
%TO.N,Net-(U1-VDD)*%
X125250000Y-135000000D03*
%TD*%
D14*
%TO.P,R8,1*%
%TO.N,V_Bat*%
X126225000Y-111000000D03*
%TO.P,R8,2*%
%TO.N,Net-(D4-A)*%
X124575000Y-111000000D03*
%TD*%
D13*
%TO.P,D8,1,K_1*%
%TO.N,TIM3_CH1*%
X128212500Y-98900000D03*
%TO.P,D8,2,A_2*%
%TO.N,Net-(D8-A)*%
X129787500Y-98900000D03*
%TD*%
%TO.P,D2,1,K_1*%
%TO.N,TIM14_CH1*%
X108412500Y-111000000D03*
%TO.P,D2,2,A_2*%
%TO.N,Net-(D2-A)*%
X109987500Y-111000000D03*
%TD*%
D25*
%TO.P,C7,1*%
%TO.N,GND*%
X123500000Y-136500000D03*
%TO.P,C7,2*%
%TO.N,Net-(U1-VDD)*%
X123500000Y-134950000D03*
%TD*%
D26*
%TO.P,D1,1,K_1*%
%TO.N,Net-(D1-K)*%
X125500000Y-144787500D03*
%TO.P,D1,2,A_2*%
%TO.N,V_USB*%
X125500000Y-143212500D03*
%TD*%
D14*
%TO.P,R14,1*%
%TO.N,V_Bat*%
X126225000Y-86800000D03*
%TO.P,R14,2*%
%TO.N,Net-(D10-A)*%
X124575000Y-86800000D03*
%TD*%
D21*
%TO.P,C6,1*%
%TO.N,PA1*%
X127000000Y-134975000D03*
%TO.P,C6,2*%
%TO.N,GND*%
X127000000Y-136525000D03*
%TD*%
D23*
%TO.P,R1,1*%
%TO.N,Net-(J1-CC1)*%
X134500000Y-136325000D03*
%TO.P,R1,2*%
%TO.N,GND*%
X134500000Y-134675000D03*
%TD*%
D27*
%TO.P,U1,1,PB7/PB8_1*%
%TO.N,TIM16_CH1*%
X120650000Y-132475000D03*
%TO.P,U1,2,PB9/PC14_2*%
%TO.N,unconnected-(U1-PB9{slash}PC14-Pad2)*%
X121300000Y-132475000D03*
%TO.P,U1,3,PC15_3*%
%TO.N,unconnected-(U1-PC15-Pad3)*%
X121950000Y-132475000D03*
%TO.P,U1,4,VDD_4*%
%TO.N,Net-(U1-VDD)*%
X122600000Y-132475000D03*
%TO.P,U1,5,VSS_5*%
%TO.N,GND*%
X123250000Y-132475000D03*
%TO.P,U1,6,NRST_6*%
%TO.N,NRST*%
X123900000Y-132475000D03*
%TO.P,U1,7,PA0_7*%
%TO.N,Net-(U1-PA0)*%
X124550000Y-132475000D03*
%TO.P,U1,8,PA1_8*%
%TO.N,PA1*%
X125200000Y-132475000D03*
%TO.P,U1,9,PA2_9*%
%TO.N,unconnected-(U1-PA2-Pad9)*%
X125850000Y-132475000D03*
%TO.P,U1,10,PA3_10*%
%TO.N,unconnected-(U1-PA3-Pad10)*%
X126500000Y-132475000D03*
%TO.P,U1,11,PA4_11*%
%TO.N,TIM14_CH1*%
X126500000Y-126750000D03*
%TO.P,U1,12,PA5_12*%
%TO.N,unconnected-(U1-PA5-Pad12)*%
X125850000Y-126750000D03*
%TO.P,U1,13,PA6_13*%
%TO.N,TIM3_CH1*%
X125200000Y-126750000D03*
%TO.P,U1,14,PA7_14*%
%TO.N,TIM3_CH2*%
X124550000Y-126750000D03*
%TO.P,U1,15,PA8/PB0/PB1/PB2_15*%
%TO.N,TIM1_CH2N*%
X123900000Y-126750000D03*
%TO.P,U1,16,PA9/PA11_16*%
%TO.N,TIM1_CH4*%
X123250000Y-126750000D03*
%TO.P,U1,17,PA10/PA12_17*%
%TO.N,unconnected-(U1-PA10{slash}PA12-Pad17)*%
X122600000Y-126750000D03*
%TO.P,U1,18,PA13_18*%
%TO.N,SWDIO*%
X121950000Y-126750000D03*
%TO.P,U1,19,PA14/PA15_19*%
%TO.N,SWCLK*%
X121300000Y-126750000D03*
%TO.P,U1,20,PB3/PB4/PB5/PB6_20*%
%TO.N,TIM1_CH3*%
X120650000Y-126750000D03*
%TD*%
D23*
%TO.P,R6,1*%
%TO.N,GND*%
X134500000Y-132825000D03*
%TO.P,R6,2*%
%TO.N,Net-(U3-CS)*%
X134500000Y-131175000D03*
%TD*%
D20*
%TO.P,R27,1*%
%TO.N,V_Bat*%
X136500000Y-131175000D03*
%TO.P,R27,2*%
%TO.N,PA1*%
X136500000Y-132825000D03*
%TD*%
D13*
%TO.P,D7,1,K_1*%
%TO.N,TIM3_CH1*%
X115012500Y-98900000D03*
%TO.P,D7,2,A_2*%
%TO.N,Net-(D7-A)*%
X116587500Y-98900000D03*
%TD*%
D28*
%TO.P,D3,1,K_1*%
%TO.N,Net-(D3-K)*%
X137500000Y-129650000D03*
%TO.P,D3,2,A_2*%
%TO.N,Net-(D3-A)*%
X137500000Y-126350000D03*
%TD*%
D29*
%TO.P,U3,1,OD_1*%
%TO.N,Net-(U3-OD)*%
X129550000Y-132137500D03*
%TO.P,U3,2,CS_2*%
%TO.N,Net-(U3-CS)*%
X130500000Y-132137500D03*
%TO.P,U3,3,OC_3*%
%TO.N,Net-(U3-OC)*%
X131450000Y-132137500D03*
%TO.P,U3,4,TD_4*%
%TO.N,unconnected-(U3-TD-Pad4)*%
X131450000Y-129862500D03*
%TO.P,U3,5,VCC_5*%
%TO.N,Net-(U3-VCC)*%
X130500000Y-129862500D03*
%TO.P,U3,6,GND_6*%
%TO.N,Bat_Neg*%
X129550000Y-129862500D03*
%TD*%
D30*
%TO.P,J3,1,Pin_1_1*%
%TO.N,Bat_Neg*%
X136400000Y-120375000D03*
%TO.P,J3,2,Pin_2_2*%
%TO.N,V_Bat*%
X136400000Y-121625000D03*
D31*
%TO.P,J3,MP*%
%TO.N,N/C*%
X133500000Y-117825000D03*
X133500000Y-124175000D03*
%TD*%
D25*
%TO.P,C2,1*%
%TO.N,V_Bat*%
X128750000Y-136525000D03*
%TO.P,C2,2*%
%TO.N,GND*%
X128750000Y-134975000D03*
%TD*%
D13*
%TO.P,D5,1,K_1*%
%TO.N,TIM14_CH1*%
X134812500Y-111000000D03*
%TO.P,D5,2,A_2*%
%TO.N,Net-(D5-A)*%
X136387500Y-111000000D03*
%TD*%
D23*
%TO.P,R2,1*%
%TO.N,Net-(J1-CC2)*%
X138500000Y-136325000D03*
%TO.P,R2,2*%
%TO.N,GND*%
X138500000Y-134675000D03*
%TD*%
D32*
%TO.P,J1,A5,CC1_A5*%
%TO.N,Net-(J1-CC1)*%
X133500000Y-140420000D03*
D33*
%TO.P,J1,A9,VBUS_A9*%
%TO.N,V_USB*%
X135520000Y-140420000D03*
D34*
%TO.P,J1,A12,GND_A12*%
%TO.N,GND*%
X136750000Y-140420000D03*
D35*
%TO.P,J1,B5,CC2_B5*%
%TO.N,Net-(J1-CC2)*%
X134500000Y-140420000D03*
D36*
%TO.P,J1,B9,VBUS_B9*%
%TO.N,V_USB*%
X132480000Y-140420000D03*
D37*
%TO.P,J1,B12,GND_B12*%
%TO.N,GND*%
X131250000Y-140420000D03*
D38*
%TO.P,J1,SH,SHIELD_SH*%
X129680000Y-140500000D03*
X129680000Y-144300000D03*
X138320000Y-140500000D03*
X138320000Y-144300000D03*
%TD*%
D14*
%TO.P,R11,1*%
%TO.N,V_Bat*%
X119625000Y-98900000D03*
%TO.P,R11,2*%
%TO.N,Net-(D7-A)*%
X117975000Y-98900000D03*
%TD*%
%TO.P,R9,1*%
%TO.N,V_Bat*%
X139425000Y-111000000D03*
%TO.P,R9,2*%
%TO.N,Net-(D5-A)*%
X137775000Y-111000000D03*
%TD*%
D13*
%TO.P,D9,1,K_1*%
%TO.N,TIM3_CH1*%
X141412500Y-98900000D03*
%TO.P,D9,2,A_2*%
%TO.N,Net-(D9-A)*%
X142987500Y-98900000D03*
%TD*%
D39*
%TO.P,C4,1*%
%TO.N,V_Bat*%
X119225000Y-139500000D03*
%TO.P,C4,2*%
%TO.N,GND*%
X120775000Y-139500000D03*
%TD*%
%TO.P,C3,1*%
%TO.N,Bat_Neg*%
X129225000Y-127500000D03*
%TO.P,C3,2*%
%TO.N,Net-(U3-VCC)*%
X130775000Y-127500000D03*
%TD*%
D13*
%TO.P,D12,1,K_1*%
%TO.N,TIM1_CH2N*%
X128212500Y-74700000D03*
%TO.P,D12,2,A_2*%
%TO.N,Net-(D12-A)*%
X129787500Y-74700000D03*
%TD*%
D14*
%TO.P,R10,1*%
%TO.N,V_Bat*%
X152625000Y-111000000D03*
%TO.P,R10,2*%
%TO.N,Net-(D6-A)*%
X150975000Y-111000000D03*
%TD*%
D22*
%TO.P,R5,1*%
%TO.N,Net-(U3-VCC)*%
X133175000Y-127500000D03*
%TO.P,R5,2*%
%TO.N,V_Bat*%
X134825000Y-127500000D03*
%TD*%
D14*
%TO.P,R16,1*%
%TO.N,V_Bat*%
X132825000Y-74700000D03*
%TO.P,R16,2*%
%TO.N,Net-(D12-A)*%
X131175000Y-74700000D03*
%TD*%
D13*
%TO.P,D6,1,K_1*%
%TO.N,TIM14_CH1*%
X148012500Y-111000000D03*
%TO.P,D6,2,A_2*%
%TO.N,Net-(D6-A)*%
X149587500Y-111000000D03*
%TD*%
D23*
%TO.P,R4,1*%
%TO.N,Net-(D1-K)*%
X127500000Y-144825000D03*
%TO.P,R4,2*%
%TO.N,Net-(U2-STAT)*%
X127500000Y-143175000D03*
%TD*%
D40*
%TO.N,GND*%
X122250000Y-136000000D03*
X125000000Y-146000000D03*
X132750000Y-92750000D03*
X116250000Y-89500000D03*
X138250000Y-142250000D03*
X133250000Y-132750000D03*
X138750000Y-78750000D03*
X129750000Y-142500000D03*
X136500000Y-142000000D03*
X123250000Y-134000000D03*
X126000000Y-136500000D03*
X121500000Y-103750000D03*
X131250000Y-142000000D03*
X125500000Y-140000000D03*
X132500000Y-136500000D03*
X129500000Y-82000000D03*
X119875000Y-136000000D03*
X119250000Y-143750000D03*
X145750000Y-93000000D03*
X142000000Y-103750000D03*
X130000000Y-70000000D03*
X122000000Y-140500000D03*
X121000000Y-80000000D03*
X110500000Y-103500000D03*
%TO.N,V_Bat*%
X136500000Y-99750000D03*
X141250000Y-109375000D03*
X128500000Y-111000000D03*
X136308058Y-116691942D03*
X122250000Y-99250000D03*
X115500000Y-111250000D03*
X128433058Y-139066942D03*
X148000000Y-100000000D03*
X129816942Y-138625000D03*
X134250000Y-76500000D03*
X129000000Y-137750000D03*
X141250000Y-111000000D03*
X140750000Y-87500000D03*
X146000000Y-109375000D03*
X126027718Y-138768667D03*
X137750000Y-113750000D03*
X125124999Y-137903617D03*
X128500000Y-86750000D03*
%TO.N,Net-(U2-PROG)*%
X124929442Y-141820558D03*
X123670558Y-142329442D03*
%TO.N,TIM3_CH2*%
X124575000Y-123250000D03*
X134000000Y-85000000D03*
X132750000Y-87000000D03*
X140050000Y-91000000D03*
%TO.N,Net-(U1-PA0)*%
X121664732Y-143949994D03*
X124500000Y-134000000D03*
%TO.N,Bat_Neg*%
X129250000Y-122500000D03*
X129250000Y-120500000D03*
%TO.N,SWDIO*%
X122000000Y-124250000D03*
X122000000Y-118750000D03*
%TO.N,SWCLK*%
X121000000Y-118125000D03*
X121199997Y-124250000D03*
%TO.N,NRST*%
X127500000Y-122625000D03*
X120625000Y-117418335D03*
%TO.N,PA1*%
X128750000Y-134000000D03*
X133250000Y-134000000D03*
%TO.N,TIM14_CH1*%
X126500000Y-122250000D03*
X126558058Y-118750000D03*
%TO.N,TIM3_CH1*%
X120250000Y-109575000D03*
X125250000Y-113250000D03*
X125250000Y-118750000D03*
X125250000Y-122250000D03*
%TO.N,Net-(J1-CC1)*%
X136000000Y-139000000D03*
X133500000Y-142750000D03*
%TO.N,TIM16_CH1*%
X119750000Y-90500000D03*
X119924848Y-126000000D03*
X119500000Y-113750000D03*
X116750000Y-112500000D03*
X119000000Y-124500000D03*
X115000000Y-109500000D03*
X120000000Y-120000000D03*
%TO.N,TIM1_CH2N*%
X126750000Y-74750000D03*
X124000000Y-118750000D03*
X119750000Y-112500000D03*
X124000000Y-122500000D03*
X119270558Y-109479442D03*
%TO.N,TIM1_CH4*%
X123000000Y-118750000D03*
X123000000Y-122500000D03*
X114500000Y-113250000D03*
%TO.N,TIM1_CH3*%
X120500000Y-125000000D03*
X116000000Y-109575000D03*
X115500000Y-106750000D03*
%TO.N,Net-(J1-CC2)*%
X137250000Y-143000000D03*
X137500000Y-139250000D03*
%TD*%
%TO.N,TIM1_CH4*%
D41*
X115790948Y-113250000D02*
X117040948Y-114500000D01*
X114500000Y-113250000D02*
X115790948Y-113250000D01*
X118750000Y-114500000D02*
X117040948Y-114500000D01*
X123000000Y-118750000D02*
X118750000Y-114500000D01*
%TO.N,GND*%
D42*
X115500000Y-115750000D02*
X115500000Y-116750000D01*
%TO.N,NRST*%
D41*
X117050000Y-117368335D02*
X117000000Y-117418335D01*
X117050000Y-115750000D02*
X117050000Y-117368335D01*
X117000000Y-117418335D02*
X120625000Y-117418335D01*
X112723334Y-117418335D02*
X117000000Y-117418335D01*
%TO.N,Net-(U2-STAT)*%
X127500000Y-141312500D02*
X127137500Y-140950000D01*
X127500000Y-143175000D02*
X127500000Y-141312500D01*
%TO.N,GND*%
D42*
X126025000Y-136525000D02*
X126000000Y-136500000D01*
X136500000Y-136325000D02*
X136500000Y-136288824D01*
X123000000Y-139225000D02*
X122475000Y-139225000D01*
X134886176Y-134675000D02*
X134500000Y-134675000D01*
X122475000Y-139225000D02*
X121750000Y-138500000D01*
X127000000Y-136525000D02*
X127200000Y-136525000D01*
X136500000Y-136288824D02*
X134886176Y-134675000D01*
X127200000Y-136525000D02*
X128750000Y-134975000D01*
X119875000Y-136000000D02*
X119824962Y-135949962D01*
X127000000Y-136525000D02*
X126025000Y-136525000D01*
X119824962Y-135949962D02*
X119299848Y-135949962D01*
X138500000Y-134675000D02*
X138500000Y-133750000D01*
%TO.N,V_Bat*%
D41*
X141250000Y-111000000D02*
X139425000Y-111000000D01*
X119625000Y-98900000D02*
X122225000Y-101500000D01*
X152625000Y-111000000D02*
X151000000Y-109375000D01*
X133125000Y-136476996D02*
X133125000Y-138725013D01*
X134998004Y-135600000D02*
X134001996Y-135600000D01*
X134825000Y-129500000D02*
X136500000Y-131175000D01*
X126450000Y-111800000D02*
X115750000Y-111800000D01*
X138625000Y-111800000D02*
X138000000Y-111800000D01*
X139425000Y-88500000D02*
X139425000Y-92300000D01*
X128500000Y-111000000D02*
X128500000Y-111050000D01*
X137750000Y-113750000D02*
X138000000Y-113500000D01*
X137525000Y-117908884D02*
X136308058Y-116691942D01*
X127025000Y-86000000D02*
X128750000Y-86000000D01*
X132825000Y-74700000D02*
X132825000Y-77000000D01*
X127025000Y-111800000D02*
X126737500Y-111512500D01*
X122250000Y-99250000D02*
X124500000Y-101500000D01*
X129250000Y-111800000D02*
X127025000Y-111800000D01*
X137525000Y-120798004D02*
X137525000Y-117908884D01*
X128750000Y-86000000D02*
X133000000Y-86000000D01*
X148000000Y-100000000D02*
X147525000Y-100000000D01*
X138625000Y-86000000D02*
X139425000Y-86800000D01*
X151000000Y-109375000D02*
X146000000Y-109375000D01*
X136698004Y-121625000D02*
X137525000Y-120798004D01*
X136400000Y-125925000D02*
X134825000Y-127500000D01*
X134250000Y-76500000D02*
X133325000Y-76500000D01*
X126737500Y-111512500D02*
X126225000Y-111000000D01*
X132825000Y-77000000D02*
X132825000Y-85825000D01*
X134825000Y-127500000D02*
X134825000Y-129500000D01*
X119299848Y-135000254D02*
X119299848Y-125200152D01*
X136400000Y-121625000D02*
X136400000Y-125925000D01*
X136500000Y-101500000D02*
X146025000Y-101500000D01*
X136400000Y-121625000D02*
X122875000Y-121625000D01*
X127725000Y-137550000D02*
X128750000Y-136525000D01*
X120049848Y-135000254D02*
X120500000Y-135450406D01*
X136400000Y-121625000D02*
X136698004Y-121625000D01*
X124500000Y-101500000D02*
X135425000Y-101500000D01*
X139750000Y-88500000D02*
X139425000Y-88500000D01*
X139425000Y-92300000D02*
X146025000Y-98900000D01*
X126856167Y-138768667D02*
X127137500Y-139050000D01*
X133125000Y-138725013D02*
X129916955Y-138725013D01*
X146000000Y-109375000D02*
X141250000Y-109375000D01*
X136500000Y-99750000D02*
X136500000Y-101500000D01*
X138000000Y-111800000D02*
X129250000Y-111800000D01*
X135601996Y-137050000D02*
X135601996Y-136203992D01*
X119225000Y-139500000D02*
X120821383Y-137903617D01*
X129916955Y-138725013D02*
X129816942Y-138625000D01*
X146025000Y-101500000D02*
X146025000Y-109350000D01*
X135425000Y-101500000D02*
X136500000Y-101500000D01*
X128500000Y-111050000D02*
X129250000Y-111800000D01*
X137500000Y-136548004D02*
X136998004Y-137050000D01*
X140750000Y-87500000D02*
X139750000Y-88500000D01*
X120699822Y-137550000D02*
X127725000Y-137550000D01*
X115750000Y-111800000D02*
X113825000Y-111800000D01*
X134001996Y-135600000D02*
X133125000Y-136476996D01*
X147525000Y-100000000D02*
X146025000Y-101500000D01*
X136500000Y-131175000D02*
X136850000Y-131175000D01*
X139425000Y-111000000D02*
X138625000Y-111800000D01*
X137500000Y-133825000D02*
X137500000Y-136548004D01*
X120821383Y-137903617D02*
X125124999Y-137903617D01*
X133325000Y-76500000D02*
X132825000Y-77000000D01*
X128500000Y-86250000D02*
X128750000Y-86000000D01*
X113825000Y-111800000D02*
X113025000Y-111000000D01*
X119299848Y-135000254D02*
X120049848Y-135000254D01*
X132825000Y-85825000D02*
X133000000Y-86000000D01*
X126737500Y-111512500D02*
X126450000Y-111800000D01*
X132825000Y-98900000D02*
X135425000Y-101500000D01*
X136998004Y-137050000D02*
X135601996Y-137050000D01*
X126225000Y-86800000D02*
X127025000Y-86000000D01*
X129000000Y-137750000D02*
X129000000Y-136775000D01*
X136850000Y-131175000D02*
X138500000Y-132825000D01*
X115500000Y-111550000D02*
X115750000Y-111800000D01*
X146025000Y-98900000D02*
X146025000Y-101500000D01*
X128416116Y-139050000D02*
X128433058Y-139066942D01*
X128500000Y-86750000D02*
X128500000Y-86250000D01*
X135601996Y-136203992D02*
X134998004Y-135600000D01*
X129000000Y-136775000D02*
X128750000Y-136525000D01*
X119299848Y-139425152D02*
X119225000Y-139500000D01*
X127137500Y-139050000D02*
X128416116Y-139050000D01*
X138000000Y-113500000D02*
X138000000Y-111800000D01*
X138500000Y-132825000D02*
X137500000Y-133825000D01*
X126027718Y-138768667D02*
X126856167Y-138768667D01*
X122225000Y-101500000D02*
X124500000Y-101500000D01*
X120500000Y-135450406D02*
X120500000Y-137350178D01*
X115500000Y-111250000D02*
X115500000Y-111550000D01*
X119299848Y-136899924D02*
X119299848Y-139425152D01*
X120500000Y-137350178D02*
X120699822Y-137550000D01*
X133000000Y-86000000D02*
X138625000Y-86000000D01*
X146025000Y-109350000D02*
X146000000Y-109375000D01*
X122875000Y-121625000D02*
X119299848Y-125200152D01*
X139425000Y-86800000D02*
X139425000Y-88500000D01*
%TO.N,V_USB*%
X135520000Y-140020000D02*
X134750000Y-139250000D01*
X133050000Y-139250000D02*
X129500000Y-139250000D01*
X124862500Y-139050000D02*
X124725000Y-139050000D01*
X135520000Y-140420000D02*
X135520000Y-140020000D01*
X124725000Y-139050000D02*
X123000000Y-140775000D01*
X132480000Y-139820000D02*
X132480000Y-140420000D01*
X129500000Y-139250000D02*
X128250000Y-138000000D01*
X134750000Y-139250000D02*
X133050000Y-139250000D01*
X128250000Y-138000000D02*
X125912500Y-138000000D01*
X125912500Y-138000000D02*
X124862500Y-139050000D01*
X125437500Y-143212500D02*
X123000000Y-140775000D01*
X125500000Y-143212500D02*
X125437500Y-143212500D01*
X133050000Y-139250000D02*
X132480000Y-139820000D01*
%TO.N,Net-(U2-PROG)*%
X119175000Y-141500000D02*
X120067026Y-142392026D01*
X124929442Y-141820558D02*
X124929442Y-141016942D01*
X124929442Y-141016942D02*
X124862500Y-140950000D01*
X120067026Y-142392026D02*
X123607974Y-142392026D01*
X123607974Y-142392026D02*
X123670558Y-142329442D01*
%TO.N,TIM3_CH2*%
X133862500Y-87750000D02*
X134812500Y-86800000D01*
X140050000Y-91000000D02*
X141375000Y-89675000D01*
X124550000Y-123275000D02*
X124575000Y-123250000D01*
X132750000Y-87750000D02*
X133862500Y-87750000D01*
X121612500Y-86800000D02*
X122562500Y-87750000D01*
X124550000Y-126750000D02*
X124550000Y-123275000D01*
X122562500Y-87750000D02*
X132750000Y-87750000D01*
X132750000Y-87000000D02*
X132750000Y-87750000D01*
X141375000Y-89675000D02*
X141375000Y-87241116D01*
X139133884Y-85000000D02*
X134000000Y-85000000D01*
X141375000Y-87241116D02*
X139133884Y-85000000D01*
%TO.N,Net-(D11-A)*%
X136387500Y-86800000D02*
X137775000Y-86800000D01*
%TO.N,Net-(D9-A)*%
X142987500Y-98900000D02*
X144375000Y-98900000D01*
%TO.N,Net-(U1-PA0)*%
X121664732Y-143949994D02*
X121639738Y-143974988D01*
X121639738Y-143974988D02*
X121639738Y-144024994D01*
X124500000Y-134000000D02*
X124500000Y-132525000D01*
X124500000Y-132525000D02*
X124550000Y-132475000D01*
%TO.N,Net-(D10-A)*%
X123187500Y-86800000D02*
X124575000Y-86800000D01*
%TO.N,Bat_Neg*%
X129375000Y-120375000D02*
X129250000Y-120500000D01*
X129225000Y-127500000D02*
X129225000Y-129537500D01*
X129225000Y-122525000D02*
X129225000Y-127500000D01*
X129975076Y-134274987D02*
X128925000Y-133224911D01*
X128925000Y-133224911D02*
X128925000Y-130487500D01*
X129225000Y-129537500D02*
X129550000Y-129862500D01*
X129250000Y-122500000D02*
X129225000Y-122525000D01*
X129975076Y-137225013D02*
X129975076Y-134274987D01*
X128925000Y-130487500D02*
X129550000Y-129862500D01*
X136400000Y-120375000D02*
X129375000Y-120375000D01*
X130600076Y-137850013D02*
X129975076Y-137225013D01*
%TO.N,Net-(U4-D1{slash}D2-Pad2)*%
X131550038Y-135149987D02*
X131550038Y-137850013D01*
%TO.N,Net-(U3-OC)*%
X132500000Y-133187500D02*
X131450000Y-132137500D01*
X132500000Y-135149987D02*
X132500000Y-133187500D01*
%TO.N,Net-(U3-OD)*%
X129550000Y-132137500D02*
X129550000Y-132799999D01*
X129875001Y-133125000D02*
X130500000Y-133125000D01*
X130600076Y-133350076D02*
X130600076Y-135149987D01*
X130500000Y-133250000D02*
X130600076Y-133350076D01*
X130500000Y-133125000D02*
X130500000Y-133250000D01*
X129550000Y-132799999D02*
X129875001Y-133125000D01*
%TO.N,Net-(D3-A)*%
X102669990Y-113910000D02*
X102669990Y-115294990D01*
X106750000Y-119375000D02*
X126875000Y-119375000D01*
X102669990Y-115294990D02*
X106750000Y-119375000D01*
X137500000Y-125500000D02*
X137500000Y-126350000D01*
X126875000Y-119375000D02*
X131000000Y-115250000D01*
X138000000Y-117500000D02*
X138000000Y-125000000D01*
X135750000Y-115250000D02*
X138000000Y-117500000D01*
X131000000Y-115250000D02*
X135750000Y-115250000D01*
X138000000Y-125000000D02*
X137500000Y-125500000D01*
%TO.N,SWDIO*%
X105209995Y-114985006D02*
X108974989Y-118750000D01*
X122000000Y-124500000D02*
X121950000Y-124550000D01*
X105209995Y-113910000D02*
X105209995Y-114985006D01*
X121950000Y-124550000D02*
X121950000Y-126750000D01*
X108974989Y-118750000D02*
X122000000Y-118750000D01*
X122000000Y-124250000D02*
X122000000Y-124500000D01*
%TO.N,SWCLK*%
X121199997Y-124449997D02*
X121300000Y-124550000D01*
X110889994Y-118125000D02*
X121000000Y-118125000D01*
X107750000Y-113910000D02*
X107750000Y-114985006D01*
X121199997Y-124250000D02*
X121199997Y-124449997D01*
X107750000Y-114985006D02*
X110889994Y-118125000D01*
X121300000Y-124550000D02*
X121300000Y-126750000D01*
%TO.N,NRST*%
X127500000Y-128183688D02*
X123900000Y-131783688D01*
X110290005Y-114985006D02*
X112723334Y-117418335D01*
X123900000Y-131783688D02*
X123900000Y-132475000D01*
X110290005Y-113910000D02*
X110290005Y-114985006D01*
X127500000Y-122625000D02*
X127500000Y-128183688D01*
%TO.N,PA1*%
X135775000Y-133950000D02*
X133300000Y-133950000D01*
X128637500Y-134112500D02*
X126137500Y-134112500D01*
X126137500Y-134112500D02*
X125200000Y-133175000D01*
X133300000Y-133950000D02*
X133250000Y-134000000D01*
X128750000Y-134000000D02*
X128637500Y-134112500D01*
X125200000Y-133175000D02*
X125200000Y-132475000D01*
X136500000Y-134675000D02*
X135775000Y-133950000D01*
X127000000Y-134975000D02*
X126137500Y-134112500D01*
X136500000Y-134675000D02*
X136500000Y-132825000D01*
%TO.N,Net-(D2-A)*%
X109987500Y-111000000D02*
X111375000Y-111000000D01*
%TO.N,Net-(D3-K)*%
X138500000Y-131175000D02*
X138500000Y-130650000D01*
X138500000Y-130650000D02*
X137500000Y-129650000D01*
%TO.N,Net-(D8-A)*%
X129787500Y-98900000D02*
X131175000Y-98900000D01*
%TO.N,TIM14_CH1*%
X120931250Y-110318750D02*
X121612500Y-111000000D01*
X148012500Y-111000000D02*
X144212500Y-114800000D01*
X126500000Y-122250000D02*
X126500000Y-126750000D01*
X120931250Y-110318750D02*
X121050000Y-110200000D01*
X108412500Y-111000000D02*
X109212500Y-110200000D01*
X147012500Y-110000000D02*
X148012500Y-111000000D01*
X120812500Y-110200000D02*
X120931250Y-110318750D01*
X121050000Y-110200000D02*
X134012500Y-110200000D01*
X134031250Y-110218750D02*
X134012500Y-110200000D01*
X134250000Y-110000000D02*
X147012500Y-110000000D01*
X144212500Y-114800000D02*
X130508058Y-114800000D01*
X109212500Y-110200000D02*
X120812500Y-110200000D01*
X130508058Y-114800000D02*
X126558058Y-118750000D01*
X134031250Y-110218750D02*
X134250000Y-110000000D01*
X134812500Y-111000000D02*
X134031250Y-110218750D01*
%TO.N,Net-(D4-A)*%
X123187500Y-111000000D02*
X124575000Y-111000000D01*
%TO.N,Net-(U1-VDD)*%
X122600000Y-132475000D02*
X122600000Y-134850000D01*
X123500000Y-134950000D02*
X122500000Y-134950000D01*
X122500000Y-134950000D02*
X121550000Y-134950000D01*
X122600000Y-134850000D02*
X122500000Y-134950000D01*
X121550000Y-134950000D02*
X121500000Y-135000000D01*
X125200000Y-134950000D02*
X125250000Y-135000000D01*
X123500000Y-134950000D02*
X125200000Y-134950000D01*
%TO.N,TIM3_CH1*%
X128212500Y-98900000D02*
X127412500Y-98100000D01*
X140612500Y-98100000D02*
X129012500Y-98100000D01*
X129012500Y-98100000D02*
X128212500Y-98900000D01*
X115812500Y-98100000D02*
X115012500Y-98900000D01*
X115012500Y-104337500D02*
X120250000Y-109575000D01*
X125250000Y-122250000D02*
X125200000Y-122300000D01*
X115012500Y-98900000D02*
X115012500Y-104337500D01*
X125250000Y-113250000D02*
X125000000Y-113500000D01*
X125000000Y-118500000D02*
X125250000Y-118750000D01*
X125200000Y-122300000D02*
X125200000Y-126750000D01*
X125000000Y-113500000D02*
X125000000Y-118500000D01*
X141412500Y-98900000D02*
X140612500Y-98100000D01*
X127412500Y-98100000D02*
X115812500Y-98100000D01*
%TO.N,Net-(D1-K)*%
X127462500Y-144787500D02*
X127500000Y-144825000D01*
X125500000Y-144787500D02*
X127462500Y-144787500D01*
%TO.N,Net-(J1-CC1)*%
X134500000Y-136325000D02*
X134500000Y-137500000D01*
X133500000Y-142750000D02*
X133500000Y-140420000D01*
X134500000Y-137500000D02*
X136000000Y-139000000D01*
%TO.N,TIM16_CH1*%
X119924848Y-131749848D02*
X119924848Y-126000000D01*
X112550000Y-97700000D02*
X119750000Y-90500000D01*
X115000000Y-109500000D02*
X112550000Y-107050000D01*
X119500000Y-113750000D02*
X118000000Y-113750000D01*
X118000000Y-113750000D02*
X116750000Y-112500000D01*
X120650000Y-132475000D02*
X119924848Y-131749848D01*
X120000000Y-123500000D02*
X120000000Y-120000000D01*
X112550000Y-107050000D02*
X112550000Y-97700000D01*
X119000000Y-124500000D02*
X120000000Y-123500000D01*
%TO.N,TIM1_CH2N*%
X126750000Y-84250000D02*
X126500000Y-84500000D01*
X113000000Y-98250000D02*
X113081230Y-98331230D01*
X113081230Y-103081230D02*
X119270558Y-109270558D01*
X128212500Y-74700000D02*
X127081250Y-75831250D01*
X113081230Y-98331230D02*
X113081230Y-103081230D01*
X119270558Y-109270558D02*
X119270558Y-109479442D01*
X126500000Y-84500000D02*
X120500000Y-84500000D01*
X127081250Y-75831250D02*
X126750000Y-76162500D01*
X126750000Y-74750000D02*
X127081250Y-75081250D01*
X120500000Y-90750000D02*
X113000000Y-98250000D01*
X127081250Y-75081250D02*
X127081250Y-75831250D01*
X123900000Y-123100000D02*
X123900000Y-126750000D01*
X124000000Y-123000000D02*
X123900000Y-123100000D01*
X124000000Y-116750000D02*
X124000000Y-118750000D01*
X126750000Y-76162500D02*
X126750000Y-84250000D01*
X120500000Y-84500000D02*
X120500000Y-90750000D01*
X119750000Y-112500000D02*
X124000000Y-116750000D01*
X124000000Y-122500000D02*
X124000000Y-123000000D01*
%TO.N,TIM1_CH4*%
X123250000Y-126750000D02*
X123250000Y-122750000D01*
X123250000Y-122750000D02*
X123000000Y-122500000D01*
%TO.N,TIM1_CH3*%
X120650000Y-125150000D02*
X120500000Y-125000000D01*
X116000000Y-109575000D02*
X116000000Y-107250000D01*
X120650000Y-126750000D02*
X120650000Y-125150000D01*
X116000000Y-107250000D02*
X115500000Y-106750000D01*
%TO.N,Net-(U3-CS)*%
X134500000Y-131175000D02*
X134475000Y-131150000D01*
X131099092Y-131150000D02*
X130500000Y-131749092D01*
X130500000Y-131749092D02*
X130500000Y-132137500D01*
X134475000Y-131150000D02*
X131099092Y-131150000D01*
%TO.N,Net-(D7-A)*%
X116587500Y-98900000D02*
X117975000Y-98900000D01*
%TO.N,Net-(U3-VCC)*%
X130500000Y-127775000D02*
X130775000Y-127500000D01*
X130500000Y-129862500D02*
X130500000Y-127775000D01*
X130775000Y-127500000D02*
X133175000Y-127500000D01*
%TO.N,Net-(D5-A)*%
X136387500Y-111000000D02*
X137775000Y-111000000D01*
%TO.N,Net-(J1-CC2)*%
X134500000Y-143000000D02*
X134500000Y-140420000D01*
X138500000Y-136325000D02*
X138500000Y-138250000D01*
X138500000Y-138250000D02*
X137500000Y-139250000D01*
X137250000Y-143000000D02*
X134500000Y-143000000D01*
%TO.N,Net-(D12-A)*%
X131175000Y-74700000D02*
X129787500Y-74700000D01*
%TO.N,Net-(D6-A)*%
X149587500Y-111000000D02*
X150975000Y-111000000D01*
%TD*%
%TA.AperFunction,Conductor*%
%TO.N,GND*%
G36*
X125856661Y-139240988D02*
G01*
X125961826Y-139269167D01*
X125961828Y-139269167D01*
X125995946Y-139269167D01*
X126062985Y-139288852D01*
X126108740Y-139341656D01*
X126118684Y-139410814D01*
X126102678Y-139456288D01*
X126023718Y-139589801D01*
X125977899Y-139747513D01*
X125977704Y-139749998D01*
X125977705Y-139750000D01*
X128297295Y-139750000D01*
X128297295Y-139749998D01*
X128297100Y-139747511D01*
X128297099Y-139747505D01*
X128290862Y-139726037D01*
X128291061Y-139656167D01*
X128329003Y-139597497D01*
X128392642Y-139568654D01*
X128409938Y-139567442D01*
X128498947Y-139567442D01*
X128498950Y-139567442D01*
X128600898Y-139540125D01*
X128670743Y-139541788D01*
X128728605Y-139580950D01*
X128756110Y-139645178D01*
X128747548Y-139707353D01*
X128670350Y-139893725D01*
X128670348Y-139893733D01*
X128630000Y-140096579D01*
X128630000Y-140250000D01*
X129380000Y-140250000D01*
X129380000Y-140750000D01*
X128630000Y-140750000D01*
X128630000Y-140903420D01*
X128670348Y-141106266D01*
X128670350Y-141106274D01*
X128749500Y-141297358D01*
X128749505Y-141297368D01*
X128864410Y-141469335D01*
X128864413Y-141469339D01*
X129010660Y-141615586D01*
X129010664Y-141615589D01*
X129182631Y-141730494D01*
X129182641Y-141730499D01*
X129373723Y-141809648D01*
X129373725Y-141809649D01*
X129430000Y-141820842D01*
X129430000Y-140966988D01*
X129439940Y-140984205D01*
X129495795Y-141040060D01*
X129564204Y-141079556D01*
X129640504Y-141100000D01*
X129719496Y-141100000D01*
X129795796Y-141079556D01*
X129864205Y-141040060D01*
X129920060Y-140984205D01*
X129930000Y-140966988D01*
X129930000Y-141820842D01*
X129986274Y-141809649D01*
X129986276Y-141809648D01*
X130177358Y-141730499D01*
X130177368Y-141730494D01*
X130349335Y-141615589D01*
X130349339Y-141615586D01*
X130495584Y-141469341D01*
X130509002Y-141449259D01*
X130562613Y-141404452D01*
X130631937Y-141395742D01*
X130676258Y-141412030D01*
X130760601Y-141463018D01*
X130760603Y-141463019D01*
X130922894Y-141513590D01*
X130922893Y-141513590D01*
X130993408Y-141519998D01*
X130993426Y-141519999D01*
X130999999Y-141519998D01*
X131000000Y-141519998D01*
X131000000Y-140670000D01*
X130860000Y-140670000D01*
X130841709Y-140688290D01*
X130840315Y-140693039D01*
X130787511Y-140738794D01*
X130736000Y-140750000D01*
X129980000Y-140750000D01*
X129980000Y-140250000D01*
X130220000Y-140250000D01*
X130238290Y-140231709D01*
X130239685Y-140226961D01*
X130292489Y-140181206D01*
X130344000Y-140170000D01*
X131126000Y-140170000D01*
X131193039Y-140189685D01*
X131238794Y-140242489D01*
X131250000Y-140294000D01*
X131250000Y-140420000D01*
X131376000Y-140420000D01*
X131443039Y-140439685D01*
X131488794Y-140492489D01*
X131500000Y-140544000D01*
X131500000Y-141519999D01*
X131506581Y-141519999D01*
X131577102Y-141513591D01*
X131577107Y-141513590D01*
X131739396Y-141463018D01*
X131884875Y-141375073D01*
X132005076Y-141254871D01*
X132006316Y-141252821D01*
X132007618Y-141251628D01*
X132009705Y-141248965D01*
X132010147Y-141249311D01*
X132057841Y-141205630D01*
X132126699Y-141193787D01*
X132158427Y-141203367D01*
X132158546Y-141203002D01*
X132167828Y-141206018D01*
X132202947Y-141211579D01*
X132259265Y-141220500D01*
X132700734Y-141220499D01*
X132700739Y-141220499D01*
X132700739Y-141220498D01*
X132748298Y-141212966D01*
X132792170Y-141206018D01*
X132792171Y-141206018D01*
X132792172Y-141206017D01*
X132792175Y-141206017D01*
X132902391Y-141149859D01*
X132912924Y-141139325D01*
X132974244Y-141105841D01*
X133043936Y-141110823D01*
X133088287Y-141139325D01*
X133103788Y-141154826D01*
X133104958Y-141155398D01*
X133106276Y-141156602D01*
X133112150Y-141160796D01*
X133111643Y-141161505D01*
X133156541Y-141202525D01*
X133174500Y-141266799D01*
X133174500Y-142316324D01*
X133154815Y-142383363D01*
X133138181Y-142404005D01*
X133099502Y-142442683D01*
X133099500Y-142442686D01*
X133033608Y-142556812D01*
X133012188Y-142636755D01*
X132999500Y-142684108D01*
X132999500Y-142815892D01*
X133016554Y-142879539D01*
X133033608Y-142943187D01*
X133054375Y-142979155D01*
X133099500Y-143057314D01*
X133192686Y-143150500D01*
X133306814Y-143216392D01*
X133434108Y-143250500D01*
X133434110Y-143250500D01*
X133565890Y-143250500D01*
X133565892Y-143250500D01*
X133693186Y-143216392D01*
X133807314Y-143150500D01*
X133900500Y-143057314D01*
X133943113Y-142983505D01*
X133993680Y-142935290D01*
X134062287Y-142922067D01*
X134127152Y-142948035D01*
X134167680Y-143004950D01*
X134172714Y-143034888D01*
X134173439Y-143034793D01*
X134174500Y-143042852D01*
X134174500Y-143042853D01*
X134181642Y-143069505D01*
X134196682Y-143125637D01*
X134196685Y-143125644D01*
X134239530Y-143199855D01*
X134239534Y-143199860D01*
X134239535Y-143199862D01*
X134300138Y-143260465D01*
X134300140Y-143260466D01*
X134300144Y-143260469D01*
X134374355Y-143303314D01*
X134374362Y-143303318D01*
X134457147Y-143325500D01*
X136816324Y-143325500D01*
X136883363Y-143345185D01*
X136904005Y-143361819D01*
X136942686Y-143400500D01*
X137041521Y-143457563D01*
X137053105Y-143464251D01*
X137056814Y-143466392D01*
X137184108Y-143500500D01*
X137184110Y-143500500D01*
X137204808Y-143500500D01*
X137271847Y-143520185D01*
X137317602Y-143572989D01*
X137327546Y-143642147D01*
X137319369Y-143671953D01*
X137310350Y-143693725D01*
X137310348Y-143693733D01*
X137270000Y-143896579D01*
X137270000Y-144050000D01*
X138020000Y-144050000D01*
X138020000Y-144550000D01*
X137270000Y-144550000D01*
X137270000Y-144703420D01*
X137310348Y-144906266D01*
X137310350Y-144906274D01*
X137389500Y-145097358D01*
X137389505Y-145097368D01*
X137504410Y-145269335D01*
X137504413Y-145269339D01*
X137650660Y-145415586D01*
X137650664Y-145415589D01*
X137822631Y-145530494D01*
X137822641Y-145530499D01*
X138013723Y-145609648D01*
X138013725Y-145609649D01*
X138070000Y-145620842D01*
X138070000Y-144766988D01*
X138079940Y-144784205D01*
X138135795Y-144840060D01*
X138204204Y-144879556D01*
X138280504Y-144900000D01*
X138359496Y-144900000D01*
X138435796Y-144879556D01*
X138504205Y-144840060D01*
X138560060Y-144784205D01*
X138570000Y-144766988D01*
X138570000Y-145620842D01*
X138626274Y-145609649D01*
X138626276Y-145609648D01*
X138817358Y-145530499D01*
X138817368Y-145530494D01*
X138989335Y-145415589D01*
X138989339Y-145415586D01*
X139135586Y-145269339D01*
X139135589Y-145269335D01*
X139250494Y-145097368D01*
X139250501Y-145097355D01*
X139260939Y-145072156D01*
X139304779Y-145017752D01*
X139371073Y-144995687D01*
X139438773Y-145012966D01*
X139486384Y-145064103D01*
X139499500Y-145119608D01*
X139499500Y-146375500D01*
X139479815Y-146442539D01*
X139427011Y-146488294D01*
X139375500Y-146499500D01*
X122974000Y-146499500D01*
X122906961Y-146479815D01*
X122861206Y-146427011D01*
X122850000Y-146375500D01*
X122850000Y-145450000D01*
X120450000Y-145450000D01*
X120450000Y-146375500D01*
X120430315Y-146442539D01*
X120377511Y-146488294D01*
X120326000Y-146499500D01*
X118624500Y-146499500D01*
X118557461Y-146479815D01*
X118511706Y-146427011D01*
X118500500Y-146375500D01*
X118500500Y-144918964D01*
X118824467Y-144918964D01*
X118851387Y-145054294D01*
X118851390Y-145054304D01*
X118904193Y-145181783D01*
X118904195Y-145181786D01*
X118980855Y-145296517D01*
X118980861Y-145296524D01*
X119078424Y-145394087D01*
X119078431Y-145394093D01*
X119193162Y-145470753D01*
X119193165Y-145470755D01*
X119320644Y-145523558D01*
X119320649Y-145523560D01*
X119320653Y-145523560D01*
X119320654Y-145523561D01*
X119455984Y-145550481D01*
X119455987Y-145550481D01*
X119593977Y-145550481D01*
X119694454Y-145530494D01*
X119729313Y-145523560D01*
X119856798Y-145470754D01*
X119971532Y-145394092D01*
X120069105Y-145296519D01*
X120145767Y-145181785D01*
X120146215Y-145180705D01*
X120167255Y-145129909D01*
X120198573Y-145054300D01*
X120210459Y-144994546D01*
X120225494Y-144918964D01*
X120225494Y-144780971D01*
X120198574Y-144645641D01*
X120198573Y-144645640D01*
X120198573Y-144645636D01*
X120170696Y-144578335D01*
X120145768Y-144518152D01*
X120145766Y-144518149D01*
X120069106Y-144403418D01*
X120069100Y-144403411D01*
X119971537Y-144305848D01*
X119971530Y-144305842D01*
X119856799Y-144229182D01*
X119856796Y-144229180D01*
X119729317Y-144176377D01*
X119729307Y-144176374D01*
X119593977Y-144149455D01*
X119593975Y-144149455D01*
X119455987Y-144149455D01*
X119455985Y-144149455D01*
X119320654Y-144176374D01*
X119320644Y-144176377D01*
X119193165Y-144229180D01*
X119193162Y-144229182D01*
X119078431Y-144305842D01*
X119078424Y-144305848D01*
X118980861Y-144403411D01*
X118980855Y-144403418D01*
X118904195Y-144518149D01*
X118904193Y-144518152D01*
X118851390Y-144645631D01*
X118851387Y-144645641D01*
X118824468Y-144780971D01*
X118824468Y-144780974D01*
X118824468Y-144918962D01*
X118824468Y-144918964D01*
X118824467Y-144918964D01*
X118500500Y-144918964D01*
X118500500Y-142166255D01*
X118520185Y-142099216D01*
X118572989Y-142053461D01*
X118642147Y-142043517D01*
X118705703Y-142072542D01*
X118712181Y-142078574D01*
X118736652Y-142103045D01*
X118736654Y-142103046D01*
X118736658Y-142103050D01*
X118849696Y-142160646D01*
X118849698Y-142160647D01*
X118943475Y-142175499D01*
X118943481Y-142175500D01*
X119338810Y-142175499D01*
X119405849Y-142195183D01*
X119426491Y-142211818D01*
X119867164Y-142652491D01*
X119941387Y-142695344D01*
X120024173Y-142717526D01*
X121113778Y-142717526D01*
X121180817Y-142737211D01*
X121226572Y-142790015D01*
X121236516Y-142859173D01*
X121216880Y-142910417D01*
X121175889Y-142971763D01*
X121175888Y-142971764D01*
X121164257Y-143030241D01*
X121164257Y-143875840D01*
X121164232Y-143876225D01*
X121164232Y-144023848D01*
X121164257Y-144024228D01*
X121164257Y-144869746D01*
X121175888Y-144928223D01*
X121175889Y-144928224D01*
X121220204Y-144994546D01*
X121286526Y-145038861D01*
X121286527Y-145038862D01*
X121345004Y-145050493D01*
X121345007Y-145050494D01*
X121345009Y-145050494D01*
X121984457Y-145050494D01*
X121984458Y-145050493D01*
X121999275Y-145047546D01*
X122042936Y-145038862D01*
X122042936Y-145038861D01*
X122042938Y-145038861D01*
X122109259Y-144994546D01*
X122153574Y-144928225D01*
X122153574Y-144928223D01*
X122153575Y-144928223D01*
X122155417Y-144918964D01*
X123074480Y-144918964D01*
X123101400Y-145054294D01*
X123101403Y-145054304D01*
X123154206Y-145181783D01*
X123154208Y-145181786D01*
X123230868Y-145296517D01*
X123230874Y-145296524D01*
X123328437Y-145394087D01*
X123328444Y-145394093D01*
X123443175Y-145470753D01*
X123443178Y-145470755D01*
X123570657Y-145523558D01*
X123570662Y-145523560D01*
X123570666Y-145523560D01*
X123570667Y-145523561D01*
X123705997Y-145550481D01*
X123706000Y-145550481D01*
X123843990Y-145550481D01*
X123944467Y-145530494D01*
X123979326Y-145523560D01*
X124106811Y-145470754D01*
X124221545Y-145394092D01*
X124319118Y-145296519D01*
X124395780Y-145181785D01*
X124396228Y-145180705D01*
X124417268Y-145129909D01*
X124448586Y-145054300D01*
X124460472Y-144994546D01*
X124475507Y-144918964D01*
X124475507Y-144780971D01*
X124448587Y-144645641D01*
X124448586Y-144645640D01*
X124448586Y-144645636D01*
X124408972Y-144550000D01*
X124403069Y-144535748D01*
X124824500Y-144535748D01*
X124824500Y-145039251D01*
X124840047Y-145137417D01*
X124859364Y-145175329D01*
X124900342Y-145255751D01*
X124900344Y-145255753D01*
X124900346Y-145255756D01*
X124994243Y-145349653D01*
X124994245Y-145349654D01*
X124994249Y-145349658D01*
X125112580Y-145409951D01*
X125112581Y-145409951D01*
X125112583Y-145409952D01*
X125112582Y-145409952D01*
X125210749Y-145425500D01*
X125210754Y-145425500D01*
X125789251Y-145425500D01*
X125887417Y-145409952D01*
X125887418Y-145409951D01*
X125887420Y-145409951D01*
X126005751Y-145349658D01*
X126099658Y-145255751D01*
X126126635Y-145202805D01*
X126137897Y-145180704D01*
X126185871Y-145129909D01*
X126248381Y-145113000D01*
X126744360Y-145113000D01*
X126811399Y-145132685D01*
X126854843Y-145180702D01*
X126896950Y-145263342D01*
X126896952Y-145263344D01*
X126896954Y-145263347D01*
X126986652Y-145353045D01*
X126986654Y-145353046D01*
X126986658Y-145353050D01*
X127098332Y-145409951D01*
X127099698Y-145410647D01*
X127193475Y-145425499D01*
X127193481Y-145425500D01*
X127806518Y-145425499D01*
X127900304Y-145410646D01*
X128013342Y-145353050D01*
X128103050Y-145263342D01*
X128160646Y-145150304D01*
X128160646Y-145150302D01*
X128160647Y-145150301D01*
X128175499Y-145056524D01*
X128175500Y-145056519D01*
X128175499Y-144593482D01*
X128160646Y-144499696D01*
X128103050Y-144386658D01*
X128103046Y-144386654D01*
X128103045Y-144386652D01*
X128013347Y-144296954D01*
X128013344Y-144296952D01*
X128013342Y-144296950D01*
X127936517Y-144257805D01*
X127900301Y-144239352D01*
X127806524Y-144224500D01*
X127193482Y-144224500D01*
X127112519Y-144237323D01*
X127099696Y-144239354D01*
X126986658Y-144296950D01*
X126986657Y-144296951D01*
X126986652Y-144296954D01*
X126896954Y-144386652D01*
X126896950Y-144386657D01*
X126894496Y-144391473D01*
X126893059Y-144394296D01*
X126893058Y-144394297D01*
X126845082Y-144445092D01*
X126782574Y-144462000D01*
X126248381Y-144462000D01*
X126181342Y-144442315D01*
X126137897Y-144394296D01*
X126120497Y-144360149D01*
X126099658Y-144319249D01*
X126099655Y-144319246D01*
X126099653Y-144319243D01*
X126005756Y-144225346D01*
X126005753Y-144225344D01*
X126005751Y-144225342D01*
X125887420Y-144165049D01*
X125887419Y-144165048D01*
X125887416Y-144165047D01*
X125887417Y-144165047D01*
X125789251Y-144149500D01*
X125789246Y-144149500D01*
X125210754Y-144149500D01*
X125210749Y-144149500D01*
X125112582Y-144165047D01*
X125033692Y-144205244D01*
X124994249Y-144225342D01*
X124994248Y-144225343D01*
X124994243Y-144225346D01*
X124900346Y-144319243D01*
X124900343Y-144319248D01*
X124900342Y-144319249D01*
X124880244Y-144358692D01*
X124840047Y-144437582D01*
X124824500Y-144535748D01*
X124403069Y-144535748D01*
X124395781Y-144518152D01*
X124395779Y-144518149D01*
X124319119Y-144403418D01*
X124319113Y-144403411D01*
X124221550Y-144305848D01*
X124221543Y-144305842D01*
X124106812Y-144229182D01*
X124106809Y-144229180D01*
X123979330Y-144176377D01*
X123979320Y-144176374D01*
X123843990Y-144149455D01*
X123843988Y-144149455D01*
X123706000Y-144149455D01*
X123705998Y-144149455D01*
X123570667Y-144176374D01*
X123570657Y-144176377D01*
X123443178Y-144229180D01*
X123443175Y-144229182D01*
X123328444Y-144305842D01*
X123328437Y-144305848D01*
X123230874Y-144403411D01*
X123230868Y-144403418D01*
X123154208Y-144518149D01*
X123154206Y-144518152D01*
X123101403Y-144645631D01*
X123101400Y-144645641D01*
X123074481Y-144780971D01*
X123074481Y-144780974D01*
X123074481Y-144918962D01*
X123074481Y-144918964D01*
X123074480Y-144918964D01*
X122155417Y-144918964D01*
X122165206Y-144869746D01*
X122165207Y-144869744D01*
X122165207Y-144024228D01*
X122165232Y-144023848D01*
X122165232Y-143896579D01*
X128630000Y-143896579D01*
X128630000Y-144050000D01*
X129380000Y-144050000D01*
X129380000Y-144550000D01*
X128630000Y-144550000D01*
X128630000Y-144703420D01*
X128670348Y-144906266D01*
X128670350Y-144906274D01*
X128749500Y-145097358D01*
X128749505Y-145097368D01*
X128864410Y-145269335D01*
X128864413Y-145269339D01*
X129010660Y-145415586D01*
X129010664Y-145415589D01*
X129182631Y-145530494D01*
X129182641Y-145530499D01*
X129373723Y-145609648D01*
X129373725Y-145609649D01*
X129430000Y-145620842D01*
X129430000Y-144766988D01*
X129439940Y-144784205D01*
X129495795Y-144840060D01*
X129564204Y-144879556D01*
X129640504Y-144900000D01*
X129719496Y-144900000D01*
X129795796Y-144879556D01*
X129864205Y-144840060D01*
X129920060Y-144784205D01*
X129930000Y-144766988D01*
X129930000Y-145620842D01*
X129986274Y-145609649D01*
X129986276Y-145609648D01*
X130177358Y-145530499D01*
X130177368Y-145530494D01*
X130349335Y-145415589D01*
X130349339Y-145415586D01*
X130495586Y-145269339D01*
X130495589Y-145269335D01*
X130610494Y-145097368D01*
X130610499Y-145097358D01*
X130689649Y-144906274D01*
X130689651Y-144906266D01*
X130729999Y-144703420D01*
X130730000Y-144703417D01*
X130730000Y-144550000D01*
X129980000Y-144550000D01*
X129980000Y-144050000D01*
X130730000Y-144050000D01*
X130730000Y-143896583D01*
X130729999Y-143896579D01*
X130689651Y-143693733D01*
X130689649Y-143693725D01*
X130610499Y-143502641D01*
X130610494Y-143502631D01*
X130495589Y-143330664D01*
X130495586Y-143330660D01*
X130349339Y-143184413D01*
X130349335Y-143184410D01*
X130177368Y-143069505D01*
X130177358Y-143069500D01*
X129986272Y-142990349D01*
X129986267Y-142990347D01*
X129930000Y-142979155D01*
X129930000Y-143833011D01*
X129920060Y-143815795D01*
X129864205Y-143759940D01*
X129795796Y-143720444D01*
X129719496Y-143700000D01*
X129640504Y-143700000D01*
X129564204Y-143720444D01*
X129495795Y-143759940D01*
X129439940Y-143815795D01*
X129430000Y-143833011D01*
X129430000Y-142979156D01*
X129429999Y-142979155D01*
X129373732Y-142990347D01*
X129373727Y-142990349D01*
X129182641Y-143069500D01*
X129182631Y-143069505D01*
X129010664Y-143184410D01*
X129010660Y-143184413D01*
X128864413Y-143330660D01*
X128864410Y-143330664D01*
X128749505Y-143502631D01*
X128749500Y-143502641D01*
X128670350Y-143693725D01*
X128670348Y-143693733D01*
X128630000Y-143896579D01*
X122165232Y-143896579D01*
X122165232Y-143876225D01*
X122165207Y-143875840D01*
X122165207Y-143030243D01*
X122165206Y-143030241D01*
X122153575Y-142971764D01*
X122153574Y-142971763D01*
X122112584Y-142910417D01*
X122091706Y-142843740D01*
X122110190Y-142776359D01*
X122162169Y-142729669D01*
X122215686Y-142717526D01*
X123308513Y-142717526D01*
X123370513Y-142734139D01*
X123388024Y-142744249D01*
X123477372Y-142795834D01*
X123604666Y-142829942D01*
X123604668Y-142829942D01*
X123736448Y-142829942D01*
X123736450Y-142829942D01*
X123863744Y-142795834D01*
X123977872Y-142729942D01*
X124071058Y-142636756D01*
X124111183Y-142567256D01*
X124161748Y-142519043D01*
X124230355Y-142505819D01*
X124295220Y-142531787D01*
X124306250Y-142541577D01*
X124788181Y-143023507D01*
X124821666Y-143084830D01*
X124824500Y-143111188D01*
X124824500Y-143464251D01*
X124840047Y-143562417D01*
X124840049Y-143562420D01*
X124900342Y-143680751D01*
X124900344Y-143680753D01*
X124900346Y-143680756D01*
X124994243Y-143774653D01*
X124994245Y-143774654D01*
X124994249Y-143774658D01*
X125112580Y-143834951D01*
X125112581Y-143834951D01*
X125112583Y-143834952D01*
X125112582Y-143834952D01*
X125210749Y-143850500D01*
X125210754Y-143850500D01*
X125789251Y-143850500D01*
X125887417Y-143834952D01*
X125887418Y-143834951D01*
X125887420Y-143834951D01*
X126005751Y-143774658D01*
X126099658Y-143680751D01*
X126159951Y-143562420D01*
X126159951Y-143562418D01*
X126159952Y-143562417D01*
X126175500Y-143464251D01*
X126175500Y-142960748D01*
X126159952Y-142862582D01*
X126143321Y-142829942D01*
X126099658Y-142744249D01*
X126099654Y-142744245D01*
X126099653Y-142744243D01*
X126005756Y-142650346D01*
X126005753Y-142650344D01*
X126005751Y-142650342D01*
X125887420Y-142590049D01*
X125887419Y-142590048D01*
X125887416Y-142590047D01*
X125887417Y-142590047D01*
X125789251Y-142574500D01*
X125789246Y-142574500D01*
X125311188Y-142574500D01*
X125244149Y-142554815D01*
X125223511Y-142538185D01*
X125141575Y-142456248D01*
X125108092Y-142394926D01*
X125113076Y-142325235D01*
X125154948Y-142269301D01*
X125167244Y-142261190D01*
X125236756Y-142221058D01*
X125329942Y-142127872D01*
X125395834Y-142013744D01*
X125429942Y-141886450D01*
X125429942Y-141754666D01*
X125395834Y-141627372D01*
X125395042Y-141626000D01*
X125394024Y-141624236D01*
X125393301Y-141621256D01*
X125392722Y-141619858D01*
X125392939Y-141619767D01*
X125377551Y-141556336D01*
X125400403Y-141490309D01*
X125455325Y-141447119D01*
X125467339Y-141443890D01*
X125467193Y-141443416D01*
X125476390Y-141440574D01*
X125476391Y-141440573D01*
X125476393Y-141440573D01*
X125581483Y-141389198D01*
X125664198Y-141306483D01*
X125715573Y-141201393D01*
X125725500Y-141133260D01*
X125725500Y-140766740D01*
X125715573Y-140698607D01*
X125664198Y-140593517D01*
X125664196Y-140593515D01*
X125664196Y-140593514D01*
X125581485Y-140510803D01*
X125476391Y-140459426D01*
X125408261Y-140449500D01*
X125408260Y-140449500D01*
X124316740Y-140449500D01*
X124316739Y-140449500D01*
X124248608Y-140459426D01*
X124143514Y-140510803D01*
X124060803Y-140593514D01*
X124009426Y-140698608D01*
X123999500Y-140766739D01*
X123999500Y-141014811D01*
X123979815Y-141081850D01*
X123927011Y-141127605D01*
X123857853Y-141137549D01*
X123794297Y-141108524D01*
X123787819Y-141102492D01*
X123711819Y-141026492D01*
X123678334Y-140965169D01*
X123675500Y-140938811D01*
X123675500Y-140611189D01*
X123695185Y-140544150D01*
X123711819Y-140523508D01*
X123985326Y-140250001D01*
X125977704Y-140250001D01*
X125977899Y-140252486D01*
X126023718Y-140410198D01*
X126107314Y-140551552D01*
X126107321Y-140551561D01*
X126223439Y-140667679D01*
X126226497Y-140670051D01*
X126228280Y-140672520D01*
X126228960Y-140673200D01*
X126228850Y-140673309D01*
X126267406Y-140726692D01*
X126274500Y-140768033D01*
X126274500Y-141133260D01*
X126284426Y-141201391D01*
X126335803Y-141306485D01*
X126418514Y-141389196D01*
X126418515Y-141389196D01*
X126418517Y-141389198D01*
X126523607Y-141440573D01*
X126543120Y-141443416D01*
X126591739Y-141450500D01*
X126591740Y-141450500D01*
X127050500Y-141450500D01*
X127117539Y-141470185D01*
X127163294Y-141522989D01*
X127174500Y-141574500D01*
X127174500Y-142475252D01*
X127154815Y-142542291D01*
X127106795Y-142585737D01*
X127099696Y-142589353D01*
X127099696Y-142589354D01*
X126986658Y-142646950D01*
X126986657Y-142646951D01*
X126986652Y-142646954D01*
X126896954Y-142736652D01*
X126896951Y-142736657D01*
X126896950Y-142736658D01*
X126877751Y-142774337D01*
X126839352Y-142849698D01*
X126824500Y-142943475D01*
X126824500Y-143406517D01*
X126833643Y-143464246D01*
X126839354Y-143500304D01*
X126896950Y-143613342D01*
X126896952Y-143613344D01*
X126896954Y-143613347D01*
X126986652Y-143703045D01*
X126986654Y-143703046D01*
X126986658Y-143703050D01*
X127098310Y-143759940D01*
X127099698Y-143760647D01*
X127193475Y-143775499D01*
X127193481Y-143775500D01*
X127806518Y-143775499D01*
X127900304Y-143760646D01*
X128013342Y-143703050D01*
X128103050Y-143613342D01*
X128160646Y-143500304D01*
X128160646Y-143500302D01*
X128160647Y-143500301D01*
X128175499Y-143406524D01*
X128175500Y-143406519D01*
X128175499Y-142943482D01*
X128160646Y-142849696D01*
X128103050Y-142736658D01*
X128103046Y-142736654D01*
X128103045Y-142736652D01*
X128013347Y-142646954D01*
X128013344Y-142646952D01*
X128013342Y-142646950D01*
X127900304Y-142589354D01*
X127900303Y-142589353D01*
X127893205Y-142585737D01*
X127842409Y-142537762D01*
X127825500Y-142475252D01*
X127825500Y-141471543D01*
X127845185Y-141404504D01*
X127861814Y-141383866D01*
X127939198Y-141306483D01*
X127990573Y-141201393D01*
X128000500Y-141133260D01*
X128000500Y-140768032D01*
X128009390Y-140737754D01*
X128016553Y-140707012D01*
X128019376Y-140703745D01*
X128020185Y-140700993D01*
X128038117Y-140679072D01*
X128108925Y-140610314D01*
X128167678Y-140551561D01*
X128167685Y-140551552D01*
X128251281Y-140410198D01*
X128297100Y-140252486D01*
X128297295Y-140250001D01*
X128297295Y-140250000D01*
X125977705Y-140250000D01*
X125977704Y-140250001D01*
X123985326Y-140250001D01*
X124648508Y-139586819D01*
X124709831Y-139553334D01*
X124736189Y-139550500D01*
X125408261Y-139550500D01*
X125430971Y-139547191D01*
X125476393Y-139540573D01*
X125581483Y-139489198D01*
X125664198Y-139406483D01*
X125713172Y-139306303D01*
X125760298Y-139254722D01*
X125827832Y-139236807D01*
X125856661Y-139240988D01*
G37*
%TD.AperFunction*%
%TA.AperFunction,Conductor*%
G36*
X137864303Y-136746542D02*
G01*
X137908650Y-136775043D01*
X137986652Y-136853045D01*
X137986656Y-136853048D01*
X137986658Y-136853050D01*
X138099696Y-136910646D01*
X138099699Y-136910646D01*
X138106795Y-136914262D01*
X138157591Y-136962236D01*
X138174500Y-137024747D01*
X138174500Y-138063811D01*
X138154815Y-138130850D01*
X138138181Y-138151492D01*
X137576492Y-138713181D01*
X137515169Y-138746666D01*
X137488811Y-138749500D01*
X137434108Y-138749500D01*
X137306812Y-138783608D01*
X137192686Y-138849500D01*
X137192683Y-138849502D01*
X137099502Y-138942683D01*
X137099500Y-138942686D01*
X137033608Y-139056812D01*
X136999500Y-139184108D01*
X136999500Y-139320183D01*
X137000000Y-139327814D01*
X137000000Y-140170000D01*
X137656000Y-140170000D01*
X137723039Y-140189685D01*
X137744809Y-140214809D01*
X137780000Y-140250000D01*
X138020000Y-140250000D01*
X138020000Y-140750000D01*
X137264000Y-140750000D01*
X137196961Y-140730315D01*
X137175190Y-140705190D01*
X137140000Y-140670000D01*
X137000000Y-140670000D01*
X137000000Y-141519999D01*
X137006581Y-141519999D01*
X137077102Y-141513591D01*
X137077107Y-141513590D01*
X137239398Y-141463018D01*
X137323740Y-141412031D01*
X137391295Y-141394194D01*
X137457769Y-141415711D01*
X137490992Y-141449254D01*
X137504411Y-141469337D01*
X137650660Y-141615586D01*
X137650664Y-141615589D01*
X137822631Y-141730494D01*
X137822641Y-141730499D01*
X138013723Y-141809648D01*
X138013725Y-141809649D01*
X138070000Y-141820842D01*
X138070000Y-140966988D01*
X138079940Y-140984205D01*
X138135795Y-141040060D01*
X138204204Y-141079556D01*
X138280504Y-141100000D01*
X138359496Y-141100000D01*
X138435796Y-141079556D01*
X138504205Y-141040060D01*
X138560060Y-140984205D01*
X138570000Y-140966988D01*
X138570000Y-141820842D01*
X138626274Y-141809649D01*
X138626276Y-141809648D01*
X138817358Y-141730499D01*
X138817368Y-141730494D01*
X138989335Y-141615589D01*
X138989339Y-141615586D01*
X139135586Y-141469339D01*
X139135589Y-141469335D01*
X139250494Y-141297368D01*
X139250501Y-141297355D01*
X139260939Y-141272156D01*
X139304779Y-141217752D01*
X139371073Y-141195687D01*
X139438773Y-141212966D01*
X139486384Y-141264103D01*
X139499500Y-141319608D01*
X139499500Y-143480391D01*
X139479815Y-143547430D01*
X139427011Y-143593185D01*
X139357853Y-143603129D01*
X139294297Y-143574104D01*
X139260939Y-143527844D01*
X139250499Y-143502641D01*
X139250494Y-143502631D01*
X139135589Y-143330664D01*
X139135586Y-143330660D01*
X138989339Y-143184413D01*
X138989335Y-143184410D01*
X138817368Y-143069505D01*
X138817358Y-143069500D01*
X138626272Y-142990349D01*
X138626267Y-142990347D01*
X138570000Y-142979155D01*
X138570000Y-143833011D01*
X138560060Y-143815795D01*
X138504205Y-143759940D01*
X138435796Y-143720444D01*
X138359496Y-143700000D01*
X138280504Y-143700000D01*
X138204204Y-143720444D01*
X138135795Y-143759940D01*
X138079940Y-143815795D01*
X138070000Y-143833011D01*
X138070000Y-142979156D01*
X138069999Y-142979155D01*
X138013732Y-142990347D01*
X138013723Y-142990350D01*
X137920431Y-143028993D01*
X137850962Y-143036462D01*
X137788483Y-143005186D01*
X137752831Y-142945097D01*
X137751260Y-142936946D01*
X137750500Y-142934108D01*
X137716392Y-142806814D01*
X137650500Y-142692686D01*
X137557314Y-142599500D01*
X137483380Y-142556814D01*
X137443187Y-142533608D01*
X137379315Y-142516494D01*
X137315892Y-142499500D01*
X137184108Y-142499500D01*
X137056812Y-142533608D01*
X136942686Y-142599500D01*
X136942683Y-142599502D01*
X136904005Y-142638181D01*
X136842682Y-142671666D01*
X136816324Y-142674500D01*
X134949500Y-142674500D01*
X134882461Y-142654815D01*
X134836706Y-142602011D01*
X134825500Y-142550500D01*
X134825500Y-141266799D01*
X134845185Y-141199760D01*
X134888287Y-141161408D01*
X134887850Y-141160796D01*
X134893545Y-141156729D01*
X134895042Y-141155398D01*
X134896211Y-141154826D01*
X134911710Y-141139327D01*
X134973032Y-141105840D01*
X135042724Y-141110823D01*
X135087074Y-141139325D01*
X135097603Y-141149854D01*
X135097605Y-141149855D01*
X135097609Y-141149859D01*
X135207825Y-141206017D01*
X135207826Y-141206017D01*
X135207828Y-141206018D01*
X135242947Y-141211579D01*
X135299265Y-141220500D01*
X135740734Y-141220499D01*
X135740739Y-141220499D01*
X135740739Y-141220498D01*
X135832175Y-141206017D01*
X135832180Y-141206014D01*
X135841456Y-141203001D01*
X135841935Y-141204476D01*
X135899927Y-141193581D01*
X135964670Y-141219852D01*
X135990301Y-141248975D01*
X135990303Y-141248974D01*
X135990322Y-141248998D01*
X135993682Y-141252816D01*
X135994929Y-141254879D01*
X136115122Y-141375072D01*
X136260604Y-141463019D01*
X136260603Y-141463019D01*
X136422894Y-141513590D01*
X136422893Y-141513590D01*
X136493408Y-141519998D01*
X136493426Y-141519999D01*
X136499999Y-141519998D01*
X136500000Y-141519998D01*
X136500000Y-139319999D01*
X136497324Y-139317324D01*
X136463834Y-139256003D01*
X136465223Y-139197542D01*
X136466388Y-139193191D01*
X136466392Y-139193186D01*
X136500500Y-139065892D01*
X136500500Y-138934108D01*
X136466392Y-138806814D01*
X136400500Y-138692686D01*
X136307314Y-138599500D01*
X136220712Y-138549500D01*
X136193187Y-138533608D01*
X136106814Y-138510465D01*
X136065892Y-138499500D01*
X136065891Y-138499500D01*
X136011189Y-138499500D01*
X135944150Y-138479815D01*
X135923508Y-138463181D01*
X134861819Y-137401492D01*
X134828334Y-137340169D01*
X134825500Y-137313811D01*
X134825500Y-137024748D01*
X134845185Y-136957709D01*
X134893205Y-136914263D01*
X134900304Y-136910646D01*
X135013342Y-136853050D01*
X135034561Y-136831831D01*
X135064815Y-136801578D01*
X135126138Y-136768093D01*
X135195830Y-136773077D01*
X135251763Y-136814949D01*
X135276180Y-136880413D01*
X135276496Y-136889259D01*
X135276496Y-137007147D01*
X135276496Y-137092853D01*
X135291980Y-137150638D01*
X135298678Y-137175637D01*
X135298681Y-137175644D01*
X135341526Y-137249855D01*
X135341530Y-137249860D01*
X135341531Y-137249862D01*
X135402134Y-137310465D01*
X135402136Y-137310466D01*
X135402140Y-137310469D01*
X135453583Y-137340169D01*
X135476358Y-137353318D01*
X135559143Y-137375500D01*
X135559145Y-137375500D01*
X137040855Y-137375500D01*
X137040857Y-137375500D01*
X137123643Y-137353318D01*
X137197866Y-137310465D01*
X137689655Y-136818673D01*
X137689660Y-136818670D01*
X137699860Y-136808469D01*
X137699862Y-136808469D01*
X137733288Y-136775043D01*
X137794611Y-136741558D01*
X137864303Y-136746542D01*
G37*
%TD.AperFunction*%
%TA.AperFunction,Conductor*%
G36*
X122263255Y-138248802D02*
G01*
X122309010Y-138301606D01*
X122318954Y-138370764D01*
X122289929Y-138434320D01*
X122283897Y-138440798D01*
X122177427Y-138547267D01*
X122177424Y-138547271D01*
X122088457Y-138691507D01*
X122088452Y-138691518D01*
X122035144Y-138852393D01*
X122025000Y-138951677D01*
X122025000Y-138975000D01*
X122876000Y-138975000D01*
X122943039Y-138994685D01*
X122988794Y-139047489D01*
X123000000Y-139099000D01*
X123000000Y-139351000D01*
X122980315Y-139418039D01*
X122927511Y-139463794D01*
X122876000Y-139475000D01*
X122025001Y-139475000D01*
X122025001Y-139498322D01*
X122035144Y-139597607D01*
X122088452Y-139758481D01*
X122088457Y-139758492D01*
X122177424Y-139902728D01*
X122177427Y-139902732D01*
X122297266Y-140022571D01*
X122397840Y-140084606D01*
X122444564Y-140136554D01*
X122455787Y-140205517D01*
X122427943Y-140269599D01*
X122420426Y-140277825D01*
X122401473Y-140296778D01*
X122340279Y-140416878D01*
X122324500Y-140516506D01*
X122324500Y-141033493D01*
X122340279Y-141133121D01*
X122340280Y-141133124D01*
X122340281Y-141133126D01*
X122401269Y-141252821D01*
X122401473Y-141253221D01*
X122401476Y-141253225D01*
X122496774Y-141348523D01*
X122496778Y-141348526D01*
X122496780Y-141348528D01*
X122616874Y-141409719D01*
X122616876Y-141409719D01*
X122616878Y-141409720D01*
X122716507Y-141425500D01*
X122716512Y-141425500D01*
X123138811Y-141425500D01*
X123205850Y-141445185D01*
X123226492Y-141461819D01*
X123458422Y-141693749D01*
X123491907Y-141755072D01*
X123486923Y-141824764D01*
X123445051Y-141880697D01*
X123432742Y-141888817D01*
X123363244Y-141928942D01*
X123363241Y-141928944D01*
X123264311Y-142027875D01*
X123262371Y-142025935D01*
X123216769Y-142059222D01*
X123174840Y-142066526D01*
X121835876Y-142066526D01*
X121768837Y-142046841D01*
X121723082Y-141994037D01*
X121713138Y-141924879D01*
X121717490Y-141905638D01*
X121718590Y-141902105D01*
X121725000Y-141831572D01*
X121725000Y-141750000D01*
X120949000Y-141750000D01*
X120881961Y-141730315D01*
X120836206Y-141677511D01*
X120825000Y-141626000D01*
X120825000Y-141500000D01*
X120699000Y-141500000D01*
X120631961Y-141480315D01*
X120586206Y-141427511D01*
X120575000Y-141376000D01*
X120575000Y-140605000D01*
X120561319Y-140591319D01*
X120527834Y-140529996D01*
X120525000Y-140503638D01*
X120525000Y-140395000D01*
X121025000Y-140395000D01*
X121038681Y-140408681D01*
X121072166Y-140470004D01*
X121075000Y-140496362D01*
X121075000Y-141250000D01*
X121724999Y-141250000D01*
X121724999Y-141168417D01*
X121718591Y-141097897D01*
X121718590Y-141097892D01*
X121668018Y-140935603D01*
X121580072Y-140790122D01*
X121459877Y-140669927D01*
X121345639Y-140600868D01*
X121298452Y-140549340D01*
X121286613Y-140480481D01*
X121313882Y-140416152D01*
X121344692Y-140389212D01*
X121452733Y-140322571D01*
X121572572Y-140202732D01*
X121572575Y-140202728D01*
X121661542Y-140058492D01*
X121661547Y-140058481D01*
X121714855Y-139897606D01*
X121724999Y-139798322D01*
X121725000Y-139798309D01*
X121725000Y-139750000D01*
X121025000Y-139750000D01*
X121025000Y-140395000D01*
X120525000Y-140395000D01*
X120525000Y-139624000D01*
X120544685Y-139556961D01*
X120597489Y-139511206D01*
X120649000Y-139500000D01*
X120775000Y-139500000D01*
X120775000Y-139374000D01*
X120794685Y-139306961D01*
X120847489Y-139261206D01*
X120899000Y-139250000D01*
X121724999Y-139250000D01*
X121724999Y-139201692D01*
X121724998Y-139201677D01*
X121714855Y-139102392D01*
X121661547Y-138941518D01*
X121661542Y-138941507D01*
X121572575Y-138797271D01*
X121572572Y-138797267D01*
X121452732Y-138677427D01*
X121452728Y-138677424D01*
X121308492Y-138588457D01*
X121308481Y-138588452D01*
X121147606Y-138535144D01*
X121048322Y-138525000D01*
X120959689Y-138525000D01*
X120892650Y-138505315D01*
X120846895Y-138452511D01*
X120836951Y-138383353D01*
X120865976Y-138319797D01*
X120872008Y-138313319D01*
X120919891Y-138265436D01*
X120981214Y-138231951D01*
X121007572Y-138229117D01*
X122196216Y-138229117D01*
X122263255Y-138248802D01*
G37*
%TD.AperFunction*%
%TA.AperFunction,Conductor*%
G36*
X139418834Y-135323630D02*
G01*
X139474767Y-135365502D01*
X139499184Y-135430966D01*
X139499500Y-135439812D01*
X139499500Y-139680391D01*
X139479815Y-139747430D01*
X139427011Y-139793185D01*
X139357853Y-139803129D01*
X139294297Y-139774104D01*
X139260939Y-139727844D01*
X139250499Y-139702641D01*
X139250494Y-139702631D01*
X139135589Y-139530664D01*
X139135586Y-139530660D01*
X138989339Y-139384413D01*
X138989335Y-139384410D01*
X138817368Y-139269505D01*
X138817358Y-139269500D01*
X138626272Y-139190349D01*
X138626267Y-139190347D01*
X138570000Y-139179155D01*
X138570000Y-140033011D01*
X138560060Y-140015795D01*
X138504205Y-139959940D01*
X138435796Y-139920444D01*
X138359496Y-139900000D01*
X138280504Y-139900000D01*
X138204204Y-139920444D01*
X138135795Y-139959940D01*
X138079940Y-140015795D01*
X138070000Y-140033011D01*
X138070000Y-139191687D01*
X138089685Y-139124648D01*
X138106315Y-139104010D01*
X138689652Y-138520672D01*
X138689657Y-138520669D01*
X138699860Y-138510465D01*
X138699862Y-138510465D01*
X138760465Y-138449862D01*
X138803318Y-138375638D01*
X138806293Y-138364535D01*
X138825501Y-138292852D01*
X138825501Y-138207147D01*
X138825501Y-138199552D01*
X138825500Y-138199534D01*
X138825500Y-137024748D01*
X138845185Y-136957709D01*
X138893205Y-136914263D01*
X138900304Y-136910646D01*
X139013342Y-136853050D01*
X139103050Y-136763342D01*
X139160646Y-136650304D01*
X139160646Y-136650302D01*
X139160647Y-136650301D01*
X139175499Y-136556524D01*
X139175500Y-136556519D01*
X139175499Y-136093482D01*
X139160646Y-135999696D01*
X139103050Y-135886658D01*
X139103046Y-135886654D01*
X139103045Y-135886652D01*
X139013347Y-135796954D01*
X139013343Y-135796951D01*
X139013342Y-135796950D01*
X138976575Y-135778216D01*
X138964386Y-135772005D01*
X138913590Y-135724030D01*
X138896796Y-135656209D01*
X138919334Y-135590074D01*
X138974050Y-135546623D01*
X138983792Y-135543135D01*
X139064399Y-135518017D01*
X139209877Y-135430072D01*
X139209878Y-135430071D01*
X139287819Y-135352131D01*
X139349142Y-135318646D01*
X139418834Y-135323630D01*
G37*
%TD.AperFunction*%
%TA.AperFunction,Conductor*%
G36*
X134693039Y-134295185D02*
G01*
X134738794Y-134347989D01*
X134750000Y-134399500D01*
X134750000Y-134425000D01*
X135474999Y-134425000D01*
X135474999Y-134418416D01*
X135474872Y-134415610D01*
X135476190Y-134415550D01*
X135488740Y-134352040D01*
X135537192Y-134301700D01*
X135605168Y-134285545D01*
X135671087Y-134308707D01*
X135686364Y-134321690D01*
X135740428Y-134375754D01*
X135788181Y-134423507D01*
X135821666Y-134484830D01*
X135824500Y-134511188D01*
X135824500Y-134906517D01*
X135828470Y-134931582D01*
X135839354Y-135000304D01*
X135896950Y-135113342D01*
X135896952Y-135113344D01*
X135896954Y-135113347D01*
X135986652Y-135203045D01*
X135986654Y-135203046D01*
X135986658Y-135203050D01*
X136035612Y-135227993D01*
X136086408Y-135275968D01*
X136103203Y-135343789D01*
X136080665Y-135409924D01*
X136025950Y-135453375D01*
X136016208Y-135456863D01*
X135935603Y-135481981D01*
X135790124Y-135569926D01*
X135696871Y-135663179D01*
X135635547Y-135696663D01*
X135565856Y-135691679D01*
X135521509Y-135663178D01*
X135431859Y-135573528D01*
X135336644Y-135478313D01*
X135303160Y-135416992D01*
X135308144Y-135347301D01*
X135326719Y-135314156D01*
X135330075Y-135309872D01*
X135418019Y-135164395D01*
X135468590Y-135002106D01*
X135475000Y-134931572D01*
X135475000Y-134925000D01*
X133525001Y-134925000D01*
X133525001Y-134931582D01*
X133531408Y-135002102D01*
X133531409Y-135002107D01*
X133581981Y-135164396D01*
X133669929Y-135309880D01*
X133673288Y-135314168D01*
X133699133Y-135379082D01*
X133685779Y-135447663D01*
X133663353Y-135478315D01*
X132864537Y-136277131D01*
X132864533Y-136277137D01*
X132821682Y-136351355D01*
X132820325Y-136356422D01*
X132808803Y-136399424D01*
X132799500Y-136434143D01*
X132799500Y-138275513D01*
X132779815Y-138342552D01*
X132727011Y-138388307D01*
X132675500Y-138399513D01*
X132174538Y-138399513D01*
X132107499Y-138379828D01*
X132061744Y-138327024D01*
X132050538Y-138275513D01*
X132050538Y-137280262D01*
X132050537Y-137280260D01*
X132038906Y-137221783D01*
X132038905Y-137221782D01*
X131994589Y-137155459D01*
X131930646Y-137112733D01*
X131885842Y-137059121D01*
X131875538Y-137009632D01*
X131875538Y-135990366D01*
X131895223Y-135923327D01*
X131930644Y-135887267D01*
X131956130Y-135870237D01*
X132022805Y-135849361D01*
X132090185Y-135867846D01*
X132093908Y-135870239D01*
X132121766Y-135888853D01*
X132121770Y-135888855D01*
X132180247Y-135900486D01*
X132180250Y-135900487D01*
X132180252Y-135900487D01*
X132819750Y-135900487D01*
X132819751Y-135900486D01*
X132834568Y-135897539D01*
X132878229Y-135888855D01*
X132878229Y-135888854D01*
X132878231Y-135888854D01*
X132944552Y-135844539D01*
X132988867Y-135778218D01*
X132988867Y-135778216D01*
X132988868Y-135778216D01*
X133000499Y-135719739D01*
X133000500Y-135719737D01*
X133000500Y-134612902D01*
X133020185Y-134545863D01*
X133072989Y-134500108D01*
X133142147Y-134490164D01*
X133156585Y-134493125D01*
X133184108Y-134500500D01*
X133184110Y-134500500D01*
X133315890Y-134500500D01*
X133315892Y-134500500D01*
X133443186Y-134466392D01*
X133486104Y-134441612D01*
X133548105Y-134425000D01*
X134250000Y-134425000D01*
X134250000Y-134399500D01*
X134269685Y-134332461D01*
X134322489Y-134286706D01*
X134374000Y-134275500D01*
X134626000Y-134275500D01*
X134693039Y-134295185D01*
G37*
%TD.AperFunction*%
%TA.AperFunction,Conductor*%
G36*
X122814709Y-135295185D02*
G01*
X122858154Y-135343204D01*
X122901472Y-135428220D01*
X122901474Y-135428222D01*
X122901476Y-135428225D01*
X122920424Y-135447173D01*
X122953909Y-135508496D01*
X122948925Y-135578188D01*
X122907053Y-135634121D01*
X122897841Y-135640392D01*
X122797268Y-135702426D01*
X122677427Y-135822267D01*
X122677424Y-135822271D01*
X122588457Y-135966507D01*
X122588452Y-135966518D01*
X122535144Y-136127393D01*
X122525000Y-136226677D01*
X122525000Y-136250000D01*
X124503638Y-136250000D01*
X124570677Y-136269685D01*
X124591319Y-136286319D01*
X124605000Y-136300000D01*
X125904410Y-136300000D01*
X125945004Y-136277834D01*
X125971362Y-136275000D01*
X126876000Y-136275000D01*
X126943039Y-136294685D01*
X126988794Y-136347489D01*
X127000000Y-136399000D01*
X127000000Y-136651000D01*
X126980315Y-136718039D01*
X126927511Y-136763794D01*
X126876000Y-136775000D01*
X126345590Y-136775000D01*
X126304996Y-136797166D01*
X126278638Y-136800000D01*
X124246362Y-136800000D01*
X124179323Y-136780315D01*
X124158681Y-136763681D01*
X124145000Y-136750000D01*
X122525001Y-136750000D01*
X122525001Y-136773322D01*
X122535144Y-136872607D01*
X122588452Y-137033481D01*
X122588455Y-137033488D01*
X122589638Y-137035405D01*
X122590047Y-137036902D01*
X122591507Y-137040032D01*
X122590972Y-137040281D01*
X122608077Y-137102797D01*
X122587154Y-137169461D01*
X122533511Y-137214229D01*
X122484098Y-137224500D01*
X122324500Y-137224500D01*
X122257461Y-137204815D01*
X122211706Y-137152011D01*
X122200500Y-137100500D01*
X122200500Y-136580427D01*
X122200499Y-136580425D01*
X122188868Y-136521948D01*
X122188867Y-136521947D01*
X122144552Y-136455625D01*
X122078230Y-136411310D01*
X122078229Y-136411309D01*
X122019752Y-136399678D01*
X122019748Y-136399678D01*
X120980252Y-136399678D01*
X120980250Y-136399678D01*
X120973688Y-136400983D01*
X120904096Y-136394754D01*
X120848920Y-136351889D01*
X120825678Y-136285999D01*
X120825500Y-136279365D01*
X120825500Y-135620812D01*
X120845185Y-135553773D01*
X120897989Y-135508018D01*
X120967147Y-135498074D01*
X120973692Y-135499195D01*
X120976269Y-135499707D01*
X120980251Y-135500500D01*
X120980252Y-135500500D01*
X122019750Y-135500500D01*
X122019751Y-135500499D01*
X122036484Y-135497171D01*
X122078229Y-135488868D01*
X122078229Y-135488867D01*
X122078231Y-135488867D01*
X122144552Y-135444552D01*
X122188867Y-135378231D01*
X122188867Y-135378229D01*
X122188868Y-135378229D01*
X122189449Y-135375309D01*
X122192470Y-135369532D01*
X122193542Y-135366946D01*
X122193773Y-135367041D01*
X122221834Y-135313398D01*
X122282549Y-135278824D01*
X122311066Y-135275500D01*
X122457147Y-135275500D01*
X122542853Y-135275500D01*
X122747670Y-135275500D01*
X122814709Y-135295185D01*
G37*
%TD.AperFunction*%
%TA.AperFunction,Conductor*%
G36*
X129073727Y-56217530D02*
G01*
X129109176Y-56258442D01*
X162933746Y-119075500D01*
X163063630Y-119316712D01*
X163078082Y-119385070D01*
X163053282Y-119450391D01*
X162997104Y-119491934D01*
X162954452Y-119499500D01*
X139934108Y-119499500D01*
X139806812Y-119533608D01*
X139692686Y-119599500D01*
X139692683Y-119599502D01*
X139599502Y-119692683D01*
X139599500Y-119692686D01*
X139533608Y-119806812D01*
X139499500Y-119934108D01*
X139499500Y-133910188D01*
X139479815Y-133977227D01*
X139427011Y-134022982D01*
X139357853Y-134032926D01*
X139294297Y-134003901D01*
X139287819Y-133997869D01*
X139209877Y-133919927D01*
X139064395Y-133831980D01*
X139064396Y-133831980D01*
X138902105Y-133781409D01*
X138902106Y-133781409D01*
X138831572Y-133775000D01*
X138750000Y-133775000D01*
X138750000Y-134551000D01*
X138730315Y-134618039D01*
X138677511Y-134663794D01*
X138626000Y-134675000D01*
X138374000Y-134675000D01*
X138306961Y-134655315D01*
X138261206Y-134602511D01*
X138250000Y-134551000D01*
X138250000Y-133775000D01*
X138217843Y-133742844D01*
X138184358Y-133681521D01*
X138189342Y-133611829D01*
X138217838Y-133567486D01*
X138323509Y-133461815D01*
X138384830Y-133428333D01*
X138411188Y-133425499D01*
X138806517Y-133425499D01*
X138806518Y-133425499D01*
X138900304Y-133410646D01*
X139013342Y-133353050D01*
X139103050Y-133263342D01*
X139160646Y-133150304D01*
X139160646Y-133150302D01*
X139160647Y-133150301D01*
X139175499Y-133056524D01*
X139175500Y-133056519D01*
X139175499Y-132593482D01*
X139160646Y-132499696D01*
X139103050Y-132386658D01*
X139103046Y-132386654D01*
X139103045Y-132386652D01*
X139013347Y-132296954D01*
X139013344Y-132296952D01*
X139013342Y-132296950D01*
X138936517Y-132257805D01*
X138900301Y-132239352D01*
X138806524Y-132224500D01*
X138806519Y-132224500D01*
X138411189Y-132224500D01*
X138344150Y-132204815D01*
X138323508Y-132188181D01*
X138122507Y-131987180D01*
X138089022Y-131925857D01*
X138094006Y-131856165D01*
X138135878Y-131800232D01*
X138201342Y-131775815D01*
X138210160Y-131775499D01*
X138806518Y-131775499D01*
X138900304Y-131760646D01*
X139013342Y-131703050D01*
X139103050Y-131613342D01*
X139160646Y-131500304D01*
X139160646Y-131500302D01*
X139160647Y-131500301D01*
X139175499Y-131406524D01*
X139175500Y-131406519D01*
X139175499Y-130943482D01*
X139160646Y-130849696D01*
X139103050Y-130736658D01*
X139103046Y-130736654D01*
X139103045Y-130736652D01*
X139013347Y-130646954D01*
X139013344Y-130646952D01*
X139013342Y-130646950D01*
X138900304Y-130589354D01*
X138900303Y-130589353D01*
X138900302Y-130589353D01*
X138893268Y-130588239D01*
X138830134Y-130558306D01*
X138805285Y-130527767D01*
X138775624Y-130476394D01*
X138775622Y-130476391D01*
X138760467Y-130450141D01*
X138760466Y-130450140D01*
X138760465Y-130450138D01*
X138699862Y-130389535D01*
X138699861Y-130389534D01*
X138695531Y-130385204D01*
X138695520Y-130385194D01*
X138334006Y-130023679D01*
X138300521Y-129962356D01*
X138299215Y-129916599D01*
X138300500Y-129908488D01*
X138300500Y-129391512D01*
X138300500Y-129391506D01*
X138284720Y-129291878D01*
X138284719Y-129291876D01*
X138284719Y-129291874D01*
X138223528Y-129171780D01*
X138223526Y-129171778D01*
X138223523Y-129171774D01*
X138128225Y-129076476D01*
X138128221Y-129076473D01*
X138128220Y-129076472D01*
X138008126Y-129015281D01*
X138008124Y-129015280D01*
X138008121Y-129015279D01*
X137908493Y-128999500D01*
X137908488Y-128999500D01*
X137091512Y-128999500D01*
X137091507Y-128999500D01*
X136991878Y-129015279D01*
X136871778Y-129076473D01*
X136871774Y-129076476D01*
X136776476Y-129171774D01*
X136776473Y-129171778D01*
X136715279Y-129291878D01*
X136699500Y-129391506D01*
X136699500Y-129908493D01*
X136715279Y-130008121D01*
X136715280Y-130008124D01*
X136715281Y-130008126D01*
X136723206Y-130023679D01*
X136776473Y-130128221D01*
X136776476Y-130128225D01*
X136871774Y-130223523D01*
X136871778Y-130223526D01*
X136871780Y-130223528D01*
X136991874Y-130284719D01*
X136991876Y-130284719D01*
X136991878Y-130284720D01*
X137091507Y-130300500D01*
X137091512Y-130300500D01*
X137638811Y-130300500D01*
X137705850Y-130320185D01*
X137726492Y-130336819D01*
X137839814Y-130450141D01*
X137923959Y-130534285D01*
X137957444Y-130595608D01*
X137952460Y-130665299D01*
X137923961Y-130709646D01*
X137896952Y-130736655D01*
X137896951Y-130736657D01*
X137896950Y-130736658D01*
X137886689Y-130756796D01*
X137839352Y-130849698D01*
X137824500Y-130943475D01*
X137824500Y-131389811D01*
X137804815Y-131456850D01*
X137752011Y-131502605D01*
X137682853Y-131512549D01*
X137619297Y-131483524D01*
X137612819Y-131477492D01*
X137211818Y-131076491D01*
X137178333Y-131015168D01*
X137175499Y-130988810D01*
X137175499Y-130943482D01*
X137172565Y-130924959D01*
X137160646Y-130849696D01*
X137103050Y-130736658D01*
X137103046Y-130736654D01*
X137103045Y-130736652D01*
X137013347Y-130646954D01*
X137013344Y-130646952D01*
X137013342Y-130646950D01*
X136930740Y-130604862D01*
X136900301Y-130589352D01*
X136806524Y-130574500D01*
X136806519Y-130574500D01*
X136411188Y-130574500D01*
X136344149Y-130554815D01*
X136323507Y-130538181D01*
X135186819Y-129401492D01*
X135153334Y-129340169D01*
X135150500Y-129313811D01*
X135150500Y-128236533D01*
X135170185Y-128169494D01*
X135218203Y-128126049D01*
X135263342Y-128103050D01*
X135353050Y-128013342D01*
X135410646Y-127900304D01*
X135410646Y-127900302D01*
X135410647Y-127900301D01*
X135425499Y-127806524D01*
X135425500Y-127806519D01*
X135425499Y-127411187D01*
X135445183Y-127344149D01*
X135461813Y-127323512D01*
X136487820Y-126297505D01*
X136549142Y-126264022D01*
X136618834Y-126269006D01*
X136674767Y-126310878D01*
X136699184Y-126376342D01*
X136699500Y-126385188D01*
X136699500Y-126608493D01*
X136715279Y-126708121D01*
X136715280Y-126708124D01*
X136715281Y-126708126D01*
X136776472Y-126828220D01*
X136776473Y-126828221D01*
X136776476Y-126828225D01*
X136871774Y-126923523D01*
X136871778Y-126923526D01*
X136871780Y-126923528D01*
X136991874Y-126984719D01*
X136991876Y-126984719D01*
X136991878Y-126984720D01*
X137091507Y-127000500D01*
X137091512Y-127000500D01*
X137908493Y-127000500D01*
X138008121Y-126984720D01*
X138008121Y-126984719D01*
X138008126Y-126984719D01*
X138128220Y-126923528D01*
X138223528Y-126828220D01*
X138284719Y-126708126D01*
X138284720Y-126708121D01*
X138300500Y-126608493D01*
X138300500Y-126091506D01*
X138284720Y-125991878D01*
X138284719Y-125991876D01*
X138284719Y-125991874D01*
X138223528Y-125871780D01*
X138223526Y-125871778D01*
X138223523Y-125871774D01*
X138128225Y-125776476D01*
X138128221Y-125776473D01*
X138128220Y-125776472D01*
X138008126Y-125715281D01*
X138008124Y-125715280D01*
X138008119Y-125715278D01*
X138001998Y-125713289D01*
X137944326Y-125673848D01*
X137917132Y-125609487D01*
X137929052Y-125540642D01*
X137952639Y-125507685D01*
X138189652Y-125270672D01*
X138189657Y-125270669D01*
X138199860Y-125260465D01*
X138199862Y-125260465D01*
X138260465Y-125199862D01*
X138285039Y-125157299D01*
X138285041Y-125157297D01*
X138303315Y-125125644D01*
X138303316Y-125125642D01*
X138303315Y-125125642D01*
X138303318Y-125125639D01*
X138325500Y-125042853D01*
X138325500Y-124957147D01*
X138325500Y-117552855D01*
X138325501Y-117552842D01*
X138325501Y-117457149D01*
X138325501Y-117457148D01*
X138303318Y-117374362D01*
X138275097Y-117325482D01*
X138260465Y-117300138D01*
X138199862Y-117239535D01*
X138199861Y-117239534D01*
X138195531Y-117235204D01*
X138195520Y-117235194D01*
X136297508Y-115337181D01*
X136264023Y-115275858D01*
X136269007Y-115206166D01*
X136310879Y-115150233D01*
X136376343Y-115125816D01*
X136385189Y-115125500D01*
X144255351Y-115125500D01*
X144255353Y-115125500D01*
X144338139Y-115103318D01*
X144412362Y-115060465D01*
X147761007Y-111711818D01*
X147822330Y-111678334D01*
X147848688Y-111675500D01*
X148264251Y-111675500D01*
X148362417Y-111659952D01*
X148362418Y-111659951D01*
X148362420Y-111659951D01*
X148480751Y-111599658D01*
X148574658Y-111505751D01*
X148634951Y-111387420D01*
X148634951Y-111387418D01*
X148634952Y-111387417D01*
X148650500Y-111289251D01*
X148650500Y-110710748D01*
X148634952Y-110612582D01*
X148627213Y-110597394D01*
X148574658Y-110494249D01*
X148574654Y-110494245D01*
X148574653Y-110494243D01*
X148480756Y-110400346D01*
X148480753Y-110400344D01*
X148480751Y-110400342D01*
X148362420Y-110340049D01*
X148362419Y-110340048D01*
X148362416Y-110340047D01*
X148362417Y-110340047D01*
X148264251Y-110324500D01*
X148264246Y-110324500D01*
X147848688Y-110324500D01*
X147781649Y-110304815D01*
X147761007Y-110288181D01*
X147385008Y-109912181D01*
X147351523Y-109850858D01*
X147356507Y-109781166D01*
X147398379Y-109725233D01*
X147463843Y-109700816D01*
X147472689Y-109700500D01*
X150813811Y-109700500D01*
X150880850Y-109720185D01*
X150901492Y-109736819D01*
X151277492Y-110112819D01*
X151310977Y-110174142D01*
X151305993Y-110243834D01*
X151264121Y-110299767D01*
X151198657Y-110324184D01*
X151189811Y-110324500D01*
X150743482Y-110324500D01*
X150662519Y-110337323D01*
X150649696Y-110339354D01*
X150536658Y-110396950D01*
X150536657Y-110396951D01*
X150536652Y-110396954D01*
X150446954Y-110486652D01*
X150446947Y-110486661D01*
X150406854Y-110565349D01*
X150358880Y-110616145D01*
X150291059Y-110632940D01*
X150224924Y-110610402D01*
X150185885Y-110565349D01*
X150149658Y-110494249D01*
X150149654Y-110494245D01*
X150149653Y-110494243D01*
X150055756Y-110400346D01*
X150055753Y-110400344D01*
X150055751Y-110400342D01*
X149937420Y-110340049D01*
X149937419Y-110340048D01*
X149937416Y-110340047D01*
X149937417Y-110340047D01*
X149839251Y-110324500D01*
X149839246Y-110324500D01*
X149335754Y-110324500D01*
X149335749Y-110324500D01*
X149237582Y-110340047D01*
X149158692Y-110380244D01*
X149119249Y-110400342D01*
X149119248Y-110400343D01*
X149119243Y-110400346D01*
X149025346Y-110494243D01*
X149025343Y-110494248D01*
X149025342Y-110494249D01*
X149009419Y-110525500D01*
X148965047Y-110612582D01*
X148949500Y-110710748D01*
X148949500Y-111289251D01*
X148965047Y-111387417D01*
X148974512Y-111405992D01*
X149025342Y-111505751D01*
X149025344Y-111505753D01*
X149025346Y-111505756D01*
X149119243Y-111599653D01*
X149119245Y-111599654D01*
X149119249Y-111599658D01*
X149237580Y-111659951D01*
X149237581Y-111659951D01*
X149237583Y-111659952D01*
X149237582Y-111659952D01*
X149335749Y-111675500D01*
X149335754Y-111675500D01*
X149839251Y-111675500D01*
X149937417Y-111659952D01*
X149937418Y-111659951D01*
X149937420Y-111659951D01*
X150055751Y-111599658D01*
X150149658Y-111505751D01*
X150185887Y-111434647D01*
X150233859Y-111383854D01*
X150301680Y-111367059D01*
X150367815Y-111389596D01*
X150406853Y-111434647D01*
X150446950Y-111513342D01*
X150446952Y-111513344D01*
X150446954Y-111513347D01*
X150536652Y-111603045D01*
X150536654Y-111603046D01*
X150536658Y-111603050D01*
X150648332Y-111659951D01*
X150649698Y-111660647D01*
X150743475Y-111675499D01*
X150743481Y-111675500D01*
X151206518Y-111675499D01*
X151300304Y-111660646D01*
X151413342Y-111603050D01*
X151503050Y-111513342D01*
X151560646Y-111400304D01*
X151560646Y-111400302D01*
X151560647Y-111400301D01*
X151572729Y-111324016D01*
X151575500Y-111306519D01*
X151575499Y-110710187D01*
X151595183Y-110643149D01*
X151647987Y-110597394D01*
X151717146Y-110587450D01*
X151780702Y-110616475D01*
X151787180Y-110622507D01*
X151988181Y-110823508D01*
X152021666Y-110884831D01*
X152024500Y-110911189D01*
X152024500Y-111306517D01*
X152033259Y-111361819D01*
X152039354Y-111400304D01*
X152096950Y-111513342D01*
X152096952Y-111513344D01*
X152096954Y-111513347D01*
X152186652Y-111603045D01*
X152186654Y-111603046D01*
X152186658Y-111603050D01*
X152298332Y-111659951D01*
X152299698Y-111660647D01*
X152393475Y-111675499D01*
X152393481Y-111675500D01*
X152856518Y-111675499D01*
X152950304Y-111660646D01*
X153063342Y-111603050D01*
X153153050Y-111513342D01*
X153210646Y-111400304D01*
X153210646Y-111400302D01*
X153210647Y-111400301D01*
X153222729Y-111324016D01*
X153225500Y-111306519D01*
X153225499Y-110693482D01*
X153210646Y-110599696D01*
X153153050Y-110486658D01*
X153153046Y-110486654D01*
X153153045Y-110486652D01*
X153063347Y-110396954D01*
X153063344Y-110396952D01*
X153063342Y-110396950D01*
X152986517Y-110357805D01*
X152950301Y-110339352D01*
X152856524Y-110324500D01*
X152856519Y-110324500D01*
X152461189Y-110324500D01*
X152394150Y-110304815D01*
X152373508Y-110288181D01*
X151199864Y-109114537D01*
X151199862Y-109114535D01*
X151162750Y-109093108D01*
X151125640Y-109071682D01*
X151062689Y-109054815D01*
X151042853Y-109049500D01*
X151042852Y-109049500D01*
X146474500Y-109049500D01*
X146407461Y-109029815D01*
X146361706Y-108977011D01*
X146350500Y-108925500D01*
X146350500Y-101686188D01*
X146370185Y-101619149D01*
X146386814Y-101598512D01*
X147557027Y-100428298D01*
X147618348Y-100394815D01*
X147688040Y-100399799D01*
X147706697Y-100408589D01*
X147806814Y-100466392D01*
X147934108Y-100500500D01*
X147934110Y-100500500D01*
X148065890Y-100500500D01*
X148065892Y-100500500D01*
X148193186Y-100466392D01*
X148307314Y-100400500D01*
X148400500Y-100307314D01*
X148466392Y-100193186D01*
X148500500Y-100065892D01*
X148500500Y-99934108D01*
X148466392Y-99806814D01*
X148400500Y-99692686D01*
X148307314Y-99599500D01*
X148240017Y-99560646D01*
X148193187Y-99533608D01*
X148129539Y-99516554D01*
X148065892Y-99499500D01*
X147934108Y-99499500D01*
X147806812Y-99533608D01*
X147692686Y-99599500D01*
X147692683Y-99599502D01*
X147654005Y-99638181D01*
X147592682Y-99671666D01*
X147566324Y-99674500D01*
X147482147Y-99674500D01*
X147399362Y-99696682D01*
X147399359Y-99696683D01*
X147365225Y-99716391D01*
X147365223Y-99716392D01*
X147345180Y-99727963D01*
X147325139Y-99739534D01*
X147325136Y-99739536D01*
X146562181Y-100502492D01*
X146500858Y-100535977D01*
X146431166Y-100530993D01*
X146375233Y-100489121D01*
X146350816Y-100423657D01*
X146350500Y-100414811D01*
X146350500Y-99636533D01*
X146370185Y-99569494D01*
X146418203Y-99526049D01*
X146463342Y-99503050D01*
X146553050Y-99413342D01*
X146610646Y-99300304D01*
X146610646Y-99300302D01*
X146610647Y-99300301D01*
X146625499Y-99206524D01*
X146625500Y-99206519D01*
X146625499Y-98593482D01*
X146610646Y-98499696D01*
X146553050Y-98386658D01*
X146553046Y-98386654D01*
X146553045Y-98386652D01*
X146463347Y-98296954D01*
X146463344Y-98296952D01*
X146463342Y-98296950D01*
X146386517Y-98257805D01*
X146350301Y-98239352D01*
X146256524Y-98224500D01*
X146256519Y-98224500D01*
X145861189Y-98224500D01*
X145794150Y-98204815D01*
X145773508Y-98188181D01*
X139786819Y-92201492D01*
X139753334Y-92140169D01*
X139750500Y-92113811D01*
X139750500Y-91599504D01*
X139770185Y-91532465D01*
X139822989Y-91486710D01*
X139892147Y-91476766D01*
X139906571Y-91479724D01*
X139984108Y-91500500D01*
X139984111Y-91500500D01*
X140115890Y-91500500D01*
X140115892Y-91500500D01*
X140243186Y-91466392D01*
X140357314Y-91400500D01*
X140450500Y-91307314D01*
X140516392Y-91193186D01*
X140550500Y-91065892D01*
X140550500Y-91011189D01*
X140570185Y-90944150D01*
X140586819Y-90923508D01*
X141109832Y-90400495D01*
X141635465Y-89874862D01*
X141678318Y-89800639D01*
X141700500Y-89717853D01*
X141700500Y-89632147D01*
X141700500Y-87293971D01*
X141700501Y-87293958D01*
X141700501Y-87198264D01*
X141699140Y-87193186D01*
X141678318Y-87115478D01*
X141678317Y-87115477D01*
X141678317Y-87115475D01*
X141678316Y-87115474D01*
X141635467Y-87041257D01*
X141635466Y-87041256D01*
X141635465Y-87041254D01*
X141574862Y-86980651D01*
X141574861Y-86980650D01*
X141570531Y-86976320D01*
X141570520Y-86976310D01*
X139333748Y-84739537D01*
X139333747Y-84739536D01*
X139333746Y-84739535D01*
X139296634Y-84718108D01*
X139259524Y-84696682D01*
X139218130Y-84685591D01*
X139176737Y-84674500D01*
X139176736Y-84674500D01*
X134433676Y-84674500D01*
X134366637Y-84654815D01*
X134345995Y-84638181D01*
X134307316Y-84599502D01*
X134307314Y-84599500D01*
X134250250Y-84566554D01*
X134193187Y-84533608D01*
X134129539Y-84516554D01*
X134065892Y-84499500D01*
X133934108Y-84499500D01*
X133806812Y-84533608D01*
X133692686Y-84599500D01*
X133692683Y-84599502D01*
X133599502Y-84692683D01*
X133599500Y-84692686D01*
X133533608Y-84806812D01*
X133499500Y-84934108D01*
X133499500Y-85065891D01*
X133533608Y-85193187D01*
X133566554Y-85250250D01*
X133599500Y-85307314D01*
X133692686Y-85400500D01*
X133766494Y-85443113D01*
X133814709Y-85493680D01*
X133827931Y-85562288D01*
X133801963Y-85627152D01*
X133745049Y-85667680D01*
X133704493Y-85674500D01*
X133274500Y-85674500D01*
X133207461Y-85654815D01*
X133161706Y-85602011D01*
X133150500Y-85550500D01*
X133150500Y-77186188D01*
X133170185Y-77119149D01*
X133186819Y-77098507D01*
X133423507Y-76861819D01*
X133484830Y-76828334D01*
X133511188Y-76825500D01*
X133816324Y-76825500D01*
X133883363Y-76845185D01*
X133904005Y-76861819D01*
X133942686Y-76900500D01*
X134056814Y-76966392D01*
X134184108Y-77000500D01*
X134184110Y-77000500D01*
X134315890Y-77000500D01*
X134315892Y-77000500D01*
X134443186Y-76966392D01*
X134557314Y-76900500D01*
X134650500Y-76807314D01*
X134716392Y-76693186D01*
X134750500Y-76565892D01*
X134750500Y-76434108D01*
X134716392Y-76306814D01*
X134650500Y-76192686D01*
X134557314Y-76099500D01*
X134472444Y-76050500D01*
X134443187Y-76033608D01*
X134377430Y-76015989D01*
X134315892Y-75999500D01*
X134184108Y-75999500D01*
X134056812Y-76033608D01*
X133942686Y-76099500D01*
X133942683Y-76099502D01*
X133904005Y-76138181D01*
X133842682Y-76171666D01*
X133816324Y-76174500D01*
X133274500Y-76174500D01*
X133207461Y-76154815D01*
X133161706Y-76102011D01*
X133150500Y-76050500D01*
X133150500Y-75436533D01*
X133170185Y-75369494D01*
X133218203Y-75326049D01*
X133263342Y-75303050D01*
X133353050Y-75213342D01*
X133410646Y-75100304D01*
X133410646Y-75100302D01*
X133410647Y-75100301D01*
X133425499Y-75006524D01*
X133425500Y-75006519D01*
X133425499Y-74393482D01*
X133410646Y-74299696D01*
X133353050Y-74186658D01*
X133353046Y-74186654D01*
X133353045Y-74186652D01*
X133263347Y-74096954D01*
X133263344Y-74096952D01*
X133263342Y-74096950D01*
X133186517Y-74057805D01*
X133150301Y-74039352D01*
X133056524Y-74024500D01*
X132593482Y-74024500D01*
X132512519Y-74037323D01*
X132499696Y-74039354D01*
X132386658Y-74096950D01*
X132386657Y-74096951D01*
X132386652Y-74096954D01*
X132296954Y-74186652D01*
X132296951Y-74186657D01*
X132296950Y-74186658D01*
X132277751Y-74224337D01*
X132239352Y-74299698D01*
X132224500Y-74393475D01*
X132224500Y-75006517D01*
X132232546Y-75057316D01*
X132239354Y-75100304D01*
X132296950Y-75213342D01*
X132296952Y-75213344D01*
X132296954Y-75213347D01*
X132386652Y-75303045D01*
X132386654Y-75303046D01*
X132386658Y-75303050D01*
X132431796Y-75326049D01*
X132482591Y-75374023D01*
X132499500Y-75436533D01*
X132499500Y-85550500D01*
X132479815Y-85617539D01*
X132427011Y-85663294D01*
X132375500Y-85674500D01*
X126982147Y-85674500D01*
X126899359Y-85696682D01*
X126825138Y-85739535D01*
X126825135Y-85739537D01*
X126476490Y-86088181D01*
X126415167Y-86121666D01*
X126388809Y-86124500D01*
X125993482Y-86124500D01*
X125912519Y-86137323D01*
X125899696Y-86139354D01*
X125786658Y-86196950D01*
X125786657Y-86196951D01*
X125786652Y-86196954D01*
X125696954Y-86286652D01*
X125696951Y-86286657D01*
X125696950Y-86286658D01*
X125684543Y-86311008D01*
X125639352Y-86399698D01*
X125624500Y-86493475D01*
X125624500Y-87106517D01*
X125638215Y-87193113D01*
X125639354Y-87200304D01*
X125661723Y-87244205D01*
X125674620Y-87312873D01*
X125648344Y-87377614D01*
X125591238Y-87417872D01*
X125551239Y-87424500D01*
X125248762Y-87424500D01*
X125181723Y-87404815D01*
X125135968Y-87352011D01*
X125126024Y-87282853D01*
X125138277Y-87244205D01*
X125138278Y-87244204D01*
X125160646Y-87200304D01*
X125160646Y-87200302D01*
X125160647Y-87200301D01*
X125174081Y-87115478D01*
X125175500Y-87106519D01*
X125175499Y-86493482D01*
X125160646Y-86399696D01*
X125103050Y-86286658D01*
X125103046Y-86286654D01*
X125103045Y-86286652D01*
X125013347Y-86196954D01*
X125013344Y-86196952D01*
X125013342Y-86196950D01*
X124936517Y-86157805D01*
X124900301Y-86139352D01*
X124806524Y-86124500D01*
X124343482Y-86124500D01*
X124262519Y-86137323D01*
X124249696Y-86139354D01*
X124136658Y-86196950D01*
X124136657Y-86196951D01*
X124136652Y-86196954D01*
X124046954Y-86286652D01*
X124046947Y-86286661D01*
X124006854Y-86365349D01*
X123958880Y-86416145D01*
X123891059Y-86432940D01*
X123824924Y-86410402D01*
X123785885Y-86365349D01*
X123784086Y-86361818D01*
X123749658Y-86294249D01*
X123749654Y-86294245D01*
X123749653Y-86294243D01*
X123655756Y-86200346D01*
X123655753Y-86200344D01*
X123655751Y-86200342D01*
X123537420Y-86140049D01*
X123537419Y-86140048D01*
X123537416Y-86140047D01*
X123537417Y-86140047D01*
X123439251Y-86124500D01*
X123439246Y-86124500D01*
X122935754Y-86124500D01*
X122935749Y-86124500D01*
X122837582Y-86140047D01*
X122758692Y-86180244D01*
X122719249Y-86200342D01*
X122719248Y-86200343D01*
X122719243Y-86200346D01*
X122625346Y-86294243D01*
X122625343Y-86294248D01*
X122625342Y-86294249D01*
X122616803Y-86311008D01*
X122565047Y-86412582D01*
X122549500Y-86510748D01*
X122549500Y-86977311D01*
X122529815Y-87044350D01*
X122477011Y-87090105D01*
X122407853Y-87100049D01*
X122344297Y-87071024D01*
X122337819Y-87064992D01*
X122286819Y-87013992D01*
X122253334Y-86952669D01*
X122250500Y-86926311D01*
X122250500Y-86510748D01*
X122234952Y-86412582D01*
X122227213Y-86397394D01*
X122174658Y-86294249D01*
X122174654Y-86294245D01*
X122174653Y-86294243D01*
X122080756Y-86200346D01*
X122080753Y-86200344D01*
X122080751Y-86200342D01*
X121962420Y-86140049D01*
X121962419Y-86140048D01*
X121962416Y-86140047D01*
X121962417Y-86140047D01*
X121864251Y-86124500D01*
X121864246Y-86124500D01*
X121360754Y-86124500D01*
X121360749Y-86124500D01*
X121262582Y-86140047D01*
X121183692Y-86180244D01*
X121144249Y-86200342D01*
X121144248Y-86200343D01*
X121144243Y-86200346D01*
X121050344Y-86294245D01*
X121049818Y-86294970D01*
X121048952Y-86295637D01*
X121043441Y-86301149D01*
X121042728Y-86300436D01*
X120994487Y-86337636D01*
X120924874Y-86343614D01*
X120863079Y-86311008D01*
X120828722Y-86250169D01*
X120825500Y-86222084D01*
X120825500Y-84949500D01*
X120845185Y-84882461D01*
X120897989Y-84836706D01*
X120949500Y-84825500D01*
X126542851Y-84825500D01*
X126542853Y-84825500D01*
X126625639Y-84803318D01*
X126699862Y-84760465D01*
X127010465Y-84449862D01*
X127053317Y-84375639D01*
X127053318Y-84375638D01*
X127075500Y-84292853D01*
X127075500Y-76348689D01*
X127095185Y-76281650D01*
X127111819Y-76261008D01*
X127587819Y-75785008D01*
X127649142Y-75751523D01*
X127718834Y-75756507D01*
X127774767Y-75798379D01*
X127799184Y-75863843D01*
X127799500Y-75872689D01*
X127799500Y-75939562D01*
X127813152Y-75990513D01*
X127819979Y-76015990D01*
X127819982Y-76015995D01*
X127859535Y-76084504D01*
X127859539Y-76084509D01*
X127859540Y-76084511D01*
X127915489Y-76140460D01*
X127915491Y-76140461D01*
X127915495Y-76140464D01*
X127974448Y-76174500D01*
X127984011Y-76180021D01*
X128060438Y-76200500D01*
X128060440Y-76200500D01*
X129039560Y-76200500D01*
X129039562Y-76200500D01*
X129115989Y-76180021D01*
X129184511Y-76140460D01*
X129240460Y-76084511D01*
X129280021Y-76015989D01*
X129300500Y-75939562D01*
X129300500Y-75860438D01*
X129280021Y-75784011D01*
X129250421Y-75732742D01*
X129240464Y-75715495D01*
X129240458Y-75715487D01*
X129184512Y-75659541D01*
X129184504Y-75659535D01*
X129115995Y-75619982D01*
X129115990Y-75619979D01*
X129090513Y-75613152D01*
X129039562Y-75599500D01*
X128608069Y-75599500D01*
X128541030Y-75579815D01*
X128495275Y-75527011D01*
X128485331Y-75457853D01*
X128514356Y-75394297D01*
X128555176Y-75367230D01*
X128553725Y-75364381D01*
X128562418Y-75359951D01*
X128562420Y-75359951D01*
X128680751Y-75299658D01*
X128774658Y-75205751D01*
X128834951Y-75087420D01*
X128834951Y-75087418D01*
X128834952Y-75087417D01*
X128850500Y-74989251D01*
X128850500Y-74410748D01*
X129149500Y-74410748D01*
X129149500Y-74989251D01*
X129165047Y-75087417D01*
X129184364Y-75125329D01*
X129225342Y-75205751D01*
X129225344Y-75205753D01*
X129225346Y-75205756D01*
X129319243Y-75299653D01*
X129319245Y-75299654D01*
X129319249Y-75299658D01*
X129437580Y-75359951D01*
X129437581Y-75359951D01*
X129437583Y-75359952D01*
X129437582Y-75359952D01*
X129535749Y-75375500D01*
X129535754Y-75375500D01*
X130039251Y-75375500D01*
X130137417Y-75359952D01*
X130137418Y-75359951D01*
X130137420Y-75359951D01*
X130255751Y-75299658D01*
X130349658Y-75205751D01*
X130385887Y-75134647D01*
X130433859Y-75083854D01*
X130501680Y-75067059D01*
X130567815Y-75089596D01*
X130606853Y-75134647D01*
X130646950Y-75213342D01*
X130646952Y-75213344D01*
X130646954Y-75213347D01*
X130736652Y-75303045D01*
X130736654Y-75303046D01*
X130736658Y-75303050D01*
X130848332Y-75359951D01*
X130849698Y-75360647D01*
X130943475Y-75375499D01*
X130943481Y-75375500D01*
X131406518Y-75375499D01*
X131500304Y-75360646D01*
X131613342Y-75303050D01*
X131703050Y-75213342D01*
X131760646Y-75100304D01*
X131760646Y-75100302D01*
X131760647Y-75100301D01*
X131775499Y-75006524D01*
X131775500Y-75006519D01*
X131775499Y-74393482D01*
X131760646Y-74299696D01*
X131703050Y-74186658D01*
X131703046Y-74186654D01*
X131703045Y-74186652D01*
X131613347Y-74096954D01*
X131613344Y-74096952D01*
X131613342Y-74096950D01*
X131536517Y-74057805D01*
X131500301Y-74039352D01*
X131406524Y-74024500D01*
X130943482Y-74024500D01*
X130862519Y-74037323D01*
X130849696Y-74039354D01*
X130736658Y-74096950D01*
X130736657Y-74096951D01*
X130736652Y-74096954D01*
X130646954Y-74186652D01*
X130646947Y-74186661D01*
X130606854Y-74265349D01*
X130558880Y-74316145D01*
X130491059Y-74332940D01*
X130424924Y-74310402D01*
X130385885Y-74265349D01*
X130349658Y-74194249D01*
X130349654Y-74194245D01*
X130349653Y-74194243D01*
X130255756Y-74100346D01*
X130255753Y-74100344D01*
X130255751Y-74100342D01*
X130137420Y-74040049D01*
X130137419Y-74040048D01*
X130137416Y-74040047D01*
X130137417Y-74040047D01*
X130039251Y-74024500D01*
X130039246Y-74024500D01*
X129535754Y-74024500D01*
X129535749Y-74024500D01*
X129437582Y-74040047D01*
X129358692Y-74080244D01*
X129319249Y-74100342D01*
X129319248Y-74100343D01*
X129319243Y-74100346D01*
X129225346Y-74194243D01*
X129225343Y-74194248D01*
X129165047Y-74312582D01*
X129149500Y-74410748D01*
X128850500Y-74410748D01*
X128834952Y-74312582D01*
X128810885Y-74265349D01*
X128774658Y-74194249D01*
X128774654Y-74194245D01*
X128774653Y-74194243D01*
X128680756Y-74100346D01*
X128680753Y-74100344D01*
X128680751Y-74100342D01*
X128562420Y-74040049D01*
X128562419Y-74040048D01*
X128562416Y-74040047D01*
X128562417Y-74040047D01*
X128464251Y-74024500D01*
X128464246Y-74024500D01*
X127960754Y-74024500D01*
X127960749Y-74024500D01*
X127862582Y-74040047D01*
X127783692Y-74080244D01*
X127744249Y-74100342D01*
X127744248Y-74100343D01*
X127744243Y-74100346D01*
X127650346Y-74194243D01*
X127650343Y-74194248D01*
X127590047Y-74312582D01*
X127574500Y-74410748D01*
X127574500Y-74821809D01*
X127554815Y-74888848D01*
X127502011Y-74934603D01*
X127432853Y-74944547D01*
X127369297Y-74915522D01*
X127343114Y-74883811D01*
X127341717Y-74881391D01*
X127341712Y-74881385D01*
X127286819Y-74826492D01*
X127253334Y-74765169D01*
X127250500Y-74738811D01*
X127250500Y-74684110D01*
X127250500Y-74684108D01*
X127216392Y-74556814D01*
X127150500Y-74442686D01*
X127057314Y-74349500D01*
X126993367Y-74312580D01*
X126943187Y-74283608D01*
X126875042Y-74265349D01*
X126815892Y-74249500D01*
X126684108Y-74249500D01*
X126556812Y-74283608D01*
X126442686Y-74349500D01*
X126442683Y-74349502D01*
X126349502Y-74442683D01*
X126349500Y-74442686D01*
X126283608Y-74556812D01*
X126249500Y-74684108D01*
X126249500Y-74815892D01*
X126252340Y-74826492D01*
X126283608Y-74943187D01*
X126310201Y-74989246D01*
X126349500Y-75057314D01*
X126442686Y-75150500D01*
X126556814Y-75216392D01*
X126663846Y-75245070D01*
X126723503Y-75281433D01*
X126754033Y-75344280D01*
X126755750Y-75364844D01*
X126755750Y-75645061D01*
X126736065Y-75712100D01*
X126719431Y-75732742D01*
X126489537Y-75962635D01*
X126489535Y-75962638D01*
X126458733Y-76015989D01*
X126446682Y-76036861D01*
X126433914Y-76084512D01*
X126431984Y-76091716D01*
X126424500Y-76119644D01*
X126424500Y-84050500D01*
X126404815Y-84117539D01*
X126352011Y-84163294D01*
X126300500Y-84174500D01*
X120457147Y-84174500D01*
X120374362Y-84196682D01*
X120374355Y-84196685D01*
X120300144Y-84239530D01*
X120300136Y-84239536D01*
X120239536Y-84300136D01*
X120239530Y-84300144D01*
X120196685Y-84374355D01*
X120196682Y-84374362D01*
X120174500Y-84457147D01*
X120174500Y-89952382D01*
X120154815Y-90019421D01*
X120102011Y-90065176D01*
X120032853Y-90075120D01*
X119988501Y-90059770D01*
X119943187Y-90033608D01*
X119879539Y-90016554D01*
X119815892Y-89999500D01*
X119684108Y-89999500D01*
X119556812Y-90033608D01*
X119442686Y-90099500D01*
X119442683Y-90099502D01*
X119349502Y-90192683D01*
X119349500Y-90192686D01*
X119283608Y-90306812D01*
X119249500Y-90434108D01*
X119249500Y-90488811D01*
X119229815Y-90555850D01*
X119213181Y-90576492D01*
X112289537Y-97500135D01*
X112289533Y-97500141D01*
X112246681Y-97574361D01*
X112246682Y-97574362D01*
X112224500Y-97657147D01*
X112224500Y-107092852D01*
X112246682Y-107175640D01*
X112264873Y-107207147D01*
X112289535Y-107249862D01*
X112289537Y-107249864D01*
X114463181Y-109423508D01*
X114496666Y-109484831D01*
X114499500Y-109511189D01*
X114499500Y-109565892D01*
X114532352Y-109688500D01*
X114533609Y-109693188D01*
X114536720Y-109700700D01*
X114534122Y-109701775D01*
X114547375Y-109756397D01*
X114524524Y-109822425D01*
X114469604Y-109865617D01*
X114423515Y-109874500D01*
X109169647Y-109874500D01*
X109086859Y-109896682D01*
X109012638Y-109939535D01*
X109012635Y-109939537D01*
X108663992Y-110288181D01*
X108602669Y-110321666D01*
X108576311Y-110324500D01*
X108160749Y-110324500D01*
X108062582Y-110340047D01*
X107983692Y-110380244D01*
X107944249Y-110400342D01*
X107944248Y-110400343D01*
X107944243Y-110400346D01*
X107850346Y-110494243D01*
X107850343Y-110494248D01*
X107850342Y-110494249D01*
X107834419Y-110525500D01*
X107790047Y-110612582D01*
X107774500Y-110710748D01*
X107774500Y-111289251D01*
X107790047Y-111387417D01*
X107799512Y-111405992D01*
X107850342Y-111505751D01*
X107850344Y-111505753D01*
X107850346Y-111505756D01*
X107944243Y-111599653D01*
X107944245Y-111599654D01*
X107944249Y-111599658D01*
X108062580Y-111659951D01*
X108062581Y-111659951D01*
X108062583Y-111659952D01*
X108062582Y-111659952D01*
X108160749Y-111675500D01*
X108160754Y-111675500D01*
X108664251Y-111675500D01*
X108762417Y-111659952D01*
X108762418Y-111659951D01*
X108762420Y-111659951D01*
X108880751Y-111599658D01*
X108974658Y-111505751D01*
X109034951Y-111387420D01*
X109034951Y-111387418D01*
X109034952Y-111387417D01*
X109050500Y-111289251D01*
X109050500Y-110873689D01*
X109070185Y-110806650D01*
X109086819Y-110786008D01*
X109137819Y-110735008D01*
X109199142Y-110701523D01*
X109268834Y-110706507D01*
X109324767Y-110748379D01*
X109349184Y-110813843D01*
X109349500Y-110822689D01*
X109349500Y-111289251D01*
X109365047Y-111387417D01*
X109374512Y-111405992D01*
X109425342Y-111505751D01*
X109425344Y-111505753D01*
X109425346Y-111505756D01*
X109519243Y-111599653D01*
X109519245Y-111599654D01*
X109519249Y-111599658D01*
X109637580Y-111659951D01*
X109637581Y-111659951D01*
X109637583Y-111659952D01*
X109637582Y-111659952D01*
X109735749Y-111675500D01*
X109735754Y-111675500D01*
X110239251Y-111675500D01*
X110337417Y-111659952D01*
X110337418Y-111659951D01*
X110337420Y-111659951D01*
X110455751Y-111599658D01*
X110549658Y-111505751D01*
X110585887Y-111434647D01*
X110633859Y-111383854D01*
X110701680Y-111367059D01*
X110767815Y-111389596D01*
X110806853Y-111434647D01*
X110846950Y-111513342D01*
X110846952Y-111513344D01*
X110846954Y-111513347D01*
X110936652Y-111603045D01*
X110936654Y-111603046D01*
X110936658Y-111603050D01*
X111048332Y-111659951D01*
X111049698Y-111660647D01*
X111143475Y-111675499D01*
X111143481Y-111675500D01*
X111606518Y-111675499D01*
X111700304Y-111660646D01*
X111813342Y-111603050D01*
X111903050Y-111513342D01*
X111960646Y-111400304D01*
X111960646Y-111400302D01*
X111960647Y-111400301D01*
X111972729Y-111324016D01*
X111975500Y-111306519D01*
X111975499Y-110693482D01*
X111975499Y-110693481D01*
X111975499Y-110693477D01*
X111971606Y-110668898D01*
X111980561Y-110599604D01*
X112025557Y-110546152D01*
X112092308Y-110525513D01*
X112094079Y-110525500D01*
X112305920Y-110525500D01*
X112372959Y-110545185D01*
X112418714Y-110597989D01*
X112428658Y-110667147D01*
X112428393Y-110668899D01*
X112424500Y-110693476D01*
X112424500Y-111306517D01*
X112433259Y-111361819D01*
X112439354Y-111400304D01*
X112496950Y-111513342D01*
X112496952Y-111513344D01*
X112496954Y-111513347D01*
X112593558Y-111609951D01*
X112591856Y-111611652D01*
X112626061Y-111656009D01*
X112632040Y-111725622D01*
X112599435Y-111787417D01*
X112538597Y-111821775D01*
X112510510Y-111824998D01*
X112272170Y-111824998D01*
X112212642Y-111831399D01*
X112212635Y-111831401D01*
X112077928Y-111881643D01*
X112077921Y-111881647D01*
X111962827Y-111967807D01*
X111962824Y-111967810D01*
X111876664Y-112082904D01*
X111876660Y-112082911D01*
X111826418Y-112217618D01*
X111826416Y-112217625D01*
X111820015Y-112277153D01*
X111820015Y-113660000D01*
X113840005Y-113660000D01*
X113840005Y-113570630D01*
X113859690Y-113503591D01*
X113912494Y-113457836D01*
X113981652Y-113447892D01*
X114045208Y-113476917D01*
X114071392Y-113508630D01*
X114099497Y-113557310D01*
X114099499Y-113557312D01*
X114099500Y-113557314D01*
X114192686Y-113650500D01*
X114306814Y-113716392D01*
X114434108Y-113750500D01*
X114434110Y-113750500D01*
X114565890Y-113750500D01*
X114565892Y-113750500D01*
X114693186Y-113716392D01*
X114807314Y-113650500D01*
X114845995Y-113611819D01*
X114907318Y-113578334D01*
X114933676Y-113575500D01*
X115604759Y-113575500D01*
X115671798Y-113595185D01*
X115692440Y-113611819D01*
X116841086Y-114760465D01*
X116915309Y-114803318D01*
X116998095Y-114825500D01*
X118563811Y-114825500D01*
X118630850Y-114845185D01*
X118651492Y-114861819D01*
X120524279Y-116734606D01*
X120557764Y-116795929D01*
X120552780Y-116865621D01*
X120510908Y-116921554D01*
X120468693Y-116942061D01*
X120431814Y-116951943D01*
X120431812Y-116951943D01*
X120431812Y-116951944D01*
X120317686Y-117017835D01*
X120317683Y-117017837D01*
X120279005Y-117056516D01*
X120217682Y-117090001D01*
X120191324Y-117092835D01*
X117499500Y-117092835D01*
X117432461Y-117073150D01*
X117386706Y-117020346D01*
X117375500Y-116968835D01*
X117375500Y-116502329D01*
X117395185Y-116435290D01*
X117443203Y-116391845D01*
X117528220Y-116348528D01*
X117623528Y-116253220D01*
X117684719Y-116133126D01*
X117684720Y-116133121D01*
X117700500Y-116033493D01*
X117700500Y-115466506D01*
X117684720Y-115366878D01*
X117684719Y-115366876D01*
X117684719Y-115366874D01*
X117623528Y-115246780D01*
X117623526Y-115246778D01*
X117623523Y-115246774D01*
X117528225Y-115151476D01*
X117528221Y-115151473D01*
X117528220Y-115151472D01*
X117408126Y-115090281D01*
X117408124Y-115090280D01*
X117408121Y-115090279D01*
X117308493Y-115074500D01*
X117308488Y-115074500D01*
X116791512Y-115074500D01*
X116791507Y-115074500D01*
X116691878Y-115090279D01*
X116691874Y-115090280D01*
X116691874Y-115090281D01*
X116622755Y-115125499D01*
X116571778Y-115151473D01*
X116552825Y-115170426D01*
X116491501Y-115203910D01*
X116421809Y-115198924D01*
X116365876Y-115157052D01*
X116359606Y-115147840D01*
X116297571Y-115047266D01*
X116177732Y-114927427D01*
X116177728Y-114927424D01*
X116033492Y-114838457D01*
X116033481Y-114838452D01*
X115872606Y-114785144D01*
X115773322Y-114775000D01*
X115750000Y-114775000D01*
X115750000Y-116724999D01*
X115773308Y-116724999D01*
X115773322Y-116724998D01*
X115872607Y-116714855D01*
X116033481Y-116661547D01*
X116033492Y-116661542D01*
X116177728Y-116572575D01*
X116177732Y-116572572D01*
X116297573Y-116452731D01*
X116359606Y-116352160D01*
X116411554Y-116305435D01*
X116480516Y-116294212D01*
X116544599Y-116322056D01*
X116552826Y-116329575D01*
X116571774Y-116348523D01*
X116571777Y-116348525D01*
X116571780Y-116348528D01*
X116656795Y-116391845D01*
X116707590Y-116439818D01*
X116724500Y-116502329D01*
X116724500Y-116968835D01*
X116704815Y-117035874D01*
X116652011Y-117081629D01*
X116600500Y-117092835D01*
X112909523Y-117092835D01*
X112842484Y-117073150D01*
X112821842Y-117056516D01*
X111813648Y-116048322D01*
X114550001Y-116048322D01*
X114560144Y-116147607D01*
X114613452Y-116308481D01*
X114613457Y-116308492D01*
X114702424Y-116452728D01*
X114702427Y-116452732D01*
X114822267Y-116572572D01*
X114822271Y-116572575D01*
X114966507Y-116661542D01*
X114966518Y-116661547D01*
X115127393Y-116714855D01*
X115226683Y-116724999D01*
X115250000Y-116724998D01*
X115250000Y-116000000D01*
X114550001Y-116000000D01*
X114550001Y-116048322D01*
X111813648Y-116048322D01*
X111308172Y-115542846D01*
X111820015Y-115542846D01*
X111826416Y-115602374D01*
X111826418Y-115602381D01*
X111876660Y-115737088D01*
X111876664Y-115737095D01*
X111946699Y-115830649D01*
X111984363Y-115868313D01*
X112077925Y-115938354D01*
X112077928Y-115938356D01*
X112212635Y-115988598D01*
X112212642Y-115988600D01*
X112272170Y-115995001D01*
X112272187Y-115995002D01*
X112580010Y-115995002D01*
X113080010Y-115995002D01*
X113387833Y-115995002D01*
X113387849Y-115995001D01*
X113447377Y-115988600D01*
X113447384Y-115988598D01*
X113582091Y-115938356D01*
X113582098Y-115938352D01*
X113697192Y-115852192D01*
X113697195Y-115852189D01*
X113783355Y-115737095D01*
X113783359Y-115737088D01*
X113833601Y-115602381D01*
X113833603Y-115602374D01*
X113840004Y-115542846D01*
X113840005Y-115542829D01*
X113840005Y-115451677D01*
X114550000Y-115451677D01*
X114550000Y-115500000D01*
X115250000Y-115500000D01*
X115250000Y-114774999D01*
X115226693Y-114775000D01*
X115226674Y-114775001D01*
X115127392Y-114785144D01*
X114966518Y-114838452D01*
X114966507Y-114838457D01*
X114822271Y-114927424D01*
X114822267Y-114927427D01*
X114702427Y-115047267D01*
X114702424Y-115047271D01*
X114613457Y-115191507D01*
X114613452Y-115191518D01*
X114560144Y-115352393D01*
X114550000Y-115451677D01*
X113840005Y-115451677D01*
X113840005Y-114160000D01*
X113080010Y-114160000D01*
X113080010Y-115995002D01*
X112580010Y-115995002D01*
X112580010Y-114160000D01*
X111820015Y-114160000D01*
X111820015Y-115542846D01*
X111308172Y-115542846D01*
X111036819Y-115271493D01*
X111003334Y-115210170D01*
X111000500Y-115183812D01*
X111000500Y-112305247D01*
X111000499Y-112305245D01*
X110988868Y-112246768D01*
X110988867Y-112246767D01*
X110944552Y-112180445D01*
X110878230Y-112136130D01*
X110878229Y-112136129D01*
X110819752Y-112124498D01*
X110819748Y-112124498D01*
X109760262Y-112124498D01*
X109760257Y-112124498D01*
X109701780Y-112136129D01*
X109701779Y-112136130D01*
X109635457Y-112180445D01*
X109591142Y-112246767D01*
X109591141Y-112246768D01*
X109579510Y-112305245D01*
X109579510Y-115514754D01*
X109591141Y-115573231D01*
X109591142Y-115573232D01*
X109635457Y-115639554D01*
X109701779Y-115683869D01*
X109701780Y-115683870D01*
X109760257Y-115695501D01*
X109760260Y-115695502D01*
X109760262Y-115695502D01*
X110488812Y-115695502D01*
X110555851Y-115715187D01*
X110576493Y-115731821D01*
X112432491Y-117587819D01*
X112465976Y-117649142D01*
X112460992Y-117718834D01*
X112419120Y-117774767D01*
X112353656Y-117799184D01*
X112344810Y-117799500D01*
X111076183Y-117799500D01*
X111009144Y-117779815D01*
X110988502Y-117763181D01*
X108496814Y-115271493D01*
X108463329Y-115210170D01*
X108460495Y-115183812D01*
X108460495Y-112305247D01*
X108460494Y-112305245D01*
X108448863Y-112246768D01*
X108448862Y-112246767D01*
X108404547Y-112180445D01*
X108338225Y-112136130D01*
X108338224Y-112136129D01*
X108279747Y-112124498D01*
X108279743Y-112124498D01*
X107220257Y-112124498D01*
X107220252Y-112124498D01*
X107161775Y-112136129D01*
X107161774Y-112136130D01*
X107095452Y-112180445D01*
X107051137Y-112246767D01*
X107051136Y-112246768D01*
X107039505Y-112305245D01*
X107039505Y-115514754D01*
X107051136Y-115573231D01*
X107051137Y-115573232D01*
X107095452Y-115639554D01*
X107161774Y-115683869D01*
X107161775Y-115683870D01*
X107220252Y-115695501D01*
X107220255Y-115695502D01*
X107220257Y-115695502D01*
X107948807Y-115695502D01*
X108015846Y-115715187D01*
X108036488Y-115731821D01*
X110517486Y-118212819D01*
X110550971Y-118274142D01*
X110545987Y-118343834D01*
X110504115Y-118399767D01*
X110438651Y-118424184D01*
X110429805Y-118424500D01*
X109161177Y-118424500D01*
X109094138Y-118404815D01*
X109073496Y-118388181D01*
X105956809Y-115271493D01*
X105923324Y-115210170D01*
X105920490Y-115183812D01*
X105920490Y-112305247D01*
X105920489Y-112305245D01*
X105908858Y-112246768D01*
X105908857Y-112246767D01*
X105864542Y-112180445D01*
X105798220Y-112136130D01*
X105798219Y-112136129D01*
X105739742Y-112124498D01*
X105739738Y-112124498D01*
X104680252Y-112124498D01*
X104680247Y-112124498D01*
X104621770Y-112136129D01*
X104621769Y-112136130D01*
X104555447Y-112180445D01*
X104511132Y-112246767D01*
X104511131Y-112246768D01*
X104499500Y-112305245D01*
X104499500Y-115514754D01*
X104511131Y-115573231D01*
X104511132Y-115573232D01*
X104555447Y-115639554D01*
X104621769Y-115683869D01*
X104621770Y-115683870D01*
X104680247Y-115695501D01*
X104680250Y-115695502D01*
X104680252Y-115695502D01*
X105408802Y-115695502D01*
X105475841Y-115715187D01*
X105496483Y-115731821D01*
X107064803Y-117300141D01*
X108602482Y-118837819D01*
X108635967Y-118899142D01*
X108630983Y-118968834D01*
X108589111Y-119024767D01*
X108523647Y-119049184D01*
X108514801Y-119049500D01*
X106936189Y-119049500D01*
X106869150Y-119029815D01*
X106848508Y-119013181D01*
X103416804Y-115581477D01*
X103383319Y-115520154D01*
X103380485Y-115493796D01*
X103380485Y-112305247D01*
X103380484Y-112305245D01*
X103368853Y-112246768D01*
X103368852Y-112246767D01*
X103324537Y-112180445D01*
X103258215Y-112136130D01*
X103258214Y-112136129D01*
X103199737Y-112124498D01*
X103199733Y-112124498D01*
X102140247Y-112124498D01*
X102140242Y-112124498D01*
X102081765Y-112136129D01*
X102081764Y-112136130D01*
X102015442Y-112180445D01*
X101971127Y-112246767D01*
X101971126Y-112246768D01*
X101959495Y-112305245D01*
X101959495Y-115514754D01*
X101971126Y-115573231D01*
X101971127Y-115573232D01*
X102015442Y-115639554D01*
X102081764Y-115683869D01*
X102081765Y-115683870D01*
X102140242Y-115695501D01*
X102140245Y-115695502D01*
X102140247Y-115695502D01*
X102558813Y-115695502D01*
X102625852Y-115715187D01*
X102646494Y-115731821D01*
X106202492Y-119287819D01*
X106235977Y-119349142D01*
X106230993Y-119418834D01*
X106189121Y-119474767D01*
X106123657Y-119499184D01*
X106114811Y-119499500D01*
X95045547Y-119499500D01*
X94978508Y-119479815D01*
X94932753Y-119427011D01*
X94922809Y-119357853D01*
X94936369Y-119316712D01*
X95066253Y-119075500D01*
X128890821Y-56258442D01*
X128939936Y-56208749D01*
X129008120Y-56193497D01*
X129073727Y-56217530D01*
G37*
%TD.AperFunction*%
%TA.AperFunction,Conductor*%
G36*
X127030703Y-122826793D02*
G01*
X127056886Y-122858505D01*
X127099500Y-122932314D01*
X127099502Y-122932316D01*
X127138181Y-122970995D01*
X127171666Y-123032318D01*
X127174500Y-123058676D01*
X127174500Y-127997498D01*
X127154815Y-128064537D01*
X127138181Y-128085179D01*
X123875109Y-131348249D01*
X123813786Y-131381734D01*
X123744094Y-131376750D01*
X123711942Y-131358944D01*
X123652589Y-131313401D01*
X123652587Y-131313400D01*
X123506631Y-131252944D01*
X123450000Y-131245487D01*
X123450000Y-133704510D01*
X123450001Y-133704511D01*
X123506627Y-133697057D01*
X123506633Y-133697055D01*
X123652585Y-133636600D01*
X123777926Y-133540422D01*
X123838478Y-133461512D01*
X123894906Y-133420310D01*
X123936850Y-133412999D01*
X124044864Y-133412999D01*
X124048444Y-133412999D01*
X124048444Y-133414271D01*
X124111400Y-133428865D01*
X124160129Y-133478937D01*
X124174500Y-133536880D01*
X124174500Y-133566324D01*
X124154815Y-133633363D01*
X124138181Y-133654005D01*
X124099502Y-133692683D01*
X124099500Y-133692686D01*
X124033608Y-133806812D01*
X124011540Y-133889173D01*
X123999500Y-133934108D01*
X123999500Y-134065892D01*
X124018606Y-134137199D01*
X124025023Y-134161145D01*
X124023360Y-134230995D01*
X123984197Y-134288857D01*
X123919969Y-134316361D01*
X123885851Y-134315711D01*
X123783495Y-134299500D01*
X123783488Y-134299500D01*
X123216512Y-134299500D01*
X123216507Y-134299500D01*
X123116877Y-134315279D01*
X123105791Y-134320928D01*
X123037121Y-134333822D01*
X122972382Y-134307543D01*
X122932127Y-134250435D01*
X122925500Y-134210441D01*
X122925500Y-133829515D01*
X122945185Y-133762476D01*
X122997989Y-133716721D01*
X123043926Y-133709836D01*
X123050000Y-133704510D01*
X123050000Y-131245487D01*
X122993368Y-131252944D01*
X122847413Y-131313399D01*
X122722074Y-131409576D01*
X122661522Y-131488488D01*
X122605093Y-131529690D01*
X122563148Y-131537000D01*
X122455143Y-131537000D01*
X122455118Y-131537002D01*
X122430012Y-131539913D01*
X122325086Y-131586243D01*
X122255807Y-131595314D01*
X122224914Y-131586243D01*
X122203367Y-131576729D01*
X122119991Y-131539915D01*
X122094865Y-131537000D01*
X121805143Y-131537000D01*
X121805117Y-131537002D01*
X121780013Y-131539913D01*
X121675086Y-131586243D01*
X121605807Y-131595314D01*
X121574914Y-131586243D01*
X121553367Y-131576729D01*
X121469991Y-131539915D01*
X121444865Y-131537000D01*
X121155143Y-131537000D01*
X121155117Y-131537002D01*
X121130013Y-131539913D01*
X121025086Y-131586243D01*
X120955807Y-131595314D01*
X120924914Y-131586243D01*
X120903367Y-131576729D01*
X120819991Y-131539915D01*
X120794865Y-131537000D01*
X120505143Y-131537000D01*
X120505117Y-131537002D01*
X120480013Y-131539913D01*
X120472560Y-131543204D01*
X120424432Y-131564454D01*
X120355155Y-131573525D01*
X120291970Y-131543701D01*
X120254940Y-131484451D01*
X120250348Y-131451019D01*
X120250348Y-127773980D01*
X120270033Y-127706941D01*
X120322837Y-127661186D01*
X120391995Y-127651242D01*
X120424428Y-127660543D01*
X120480009Y-127685085D01*
X120505135Y-127688000D01*
X120794864Y-127687999D01*
X120794879Y-127687997D01*
X120794882Y-127687997D01*
X120819987Y-127685086D01*
X120819987Y-127685085D01*
X120819991Y-127685085D01*
X120922765Y-127639706D01*
X120922766Y-127639704D01*
X120924912Y-127638757D01*
X120994190Y-127629685D01*
X121025085Y-127638757D01*
X121130004Y-127685083D01*
X121130009Y-127685085D01*
X121155135Y-127688000D01*
X121444864Y-127687999D01*
X121444879Y-127687997D01*
X121444882Y-127687997D01*
X121469987Y-127685086D01*
X121469987Y-127685085D01*
X121469991Y-127685085D01*
X121572765Y-127639706D01*
X121572766Y-127639704D01*
X121574912Y-127638757D01*
X121644190Y-127629685D01*
X121675085Y-127638757D01*
X121780004Y-127685083D01*
X121780009Y-127685085D01*
X121805135Y-127688000D01*
X122094864Y-127687999D01*
X122094879Y-127687997D01*
X122094882Y-127687997D01*
X122119987Y-127685086D01*
X122119987Y-127685085D01*
X122119991Y-127685085D01*
X122222765Y-127639706D01*
X122222766Y-127639704D01*
X122224912Y-127638757D01*
X122294190Y-127629685D01*
X122325085Y-127638757D01*
X122430004Y-127685083D01*
X122430009Y-127685085D01*
X122455135Y-127688000D01*
X122744864Y-127687999D01*
X122744879Y-127687997D01*
X122744882Y-127687997D01*
X122769987Y-127685086D01*
X122769987Y-127685085D01*
X122769991Y-127685085D01*
X122872765Y-127639706D01*
X122872766Y-127639704D01*
X122874912Y-127638757D01*
X122944190Y-127629685D01*
X122975085Y-127638757D01*
X123080004Y-127685083D01*
X123080009Y-127685085D01*
X123105135Y-127688000D01*
X123394864Y-127687999D01*
X123394879Y-127687997D01*
X123394882Y-127687997D01*
X123419987Y-127685086D01*
X123419987Y-127685085D01*
X123419991Y-127685085D01*
X123522765Y-127639706D01*
X123522766Y-127639704D01*
X123524912Y-127638757D01*
X123594190Y-127629685D01*
X123625085Y-127638757D01*
X123730004Y-127685083D01*
X123730009Y-127685085D01*
X123755135Y-127688000D01*
X124044864Y-127687999D01*
X124044879Y-127687997D01*
X124044882Y-127687997D01*
X124069987Y-127685086D01*
X124069987Y-127685085D01*
X124069991Y-127685085D01*
X124172765Y-127639706D01*
X124172766Y-127639704D01*
X124174912Y-127638757D01*
X124244190Y-127629685D01*
X124275085Y-127638757D01*
X124380004Y-127685083D01*
X124380009Y-127685085D01*
X124405135Y-127688000D01*
X124694864Y-127687999D01*
X124694879Y-127687997D01*
X124694882Y-127687997D01*
X124719987Y-127685086D01*
X124719987Y-127685085D01*
X124719991Y-127685085D01*
X124822765Y-127639706D01*
X124822766Y-127639704D01*
X124824912Y-127638757D01*
X124894190Y-127629685D01*
X124925085Y-127638757D01*
X125030004Y-127685083D01*
X125030009Y-127685085D01*
X125055135Y-127688000D01*
X125344864Y-127687999D01*
X125344879Y-127687997D01*
X125344882Y-127687997D01*
X125369987Y-127685086D01*
X125369987Y-127685085D01*
X125369991Y-127685085D01*
X125472765Y-127639706D01*
X125472766Y-127639704D01*
X125474912Y-127638757D01*
X125544190Y-127629685D01*
X125575085Y-127638757D01*
X125680004Y-127685083D01*
X125680009Y-127685085D01*
X125705135Y-127688000D01*
X125994864Y-127687999D01*
X125994879Y-127687997D01*
X125994882Y-127687997D01*
X126019987Y-127685086D01*
X126019987Y-127685085D01*
X126019991Y-127685085D01*
X126122765Y-127639706D01*
X126122766Y-127639704D01*
X126124912Y-127638757D01*
X126194190Y-127629685D01*
X126225085Y-127638757D01*
X126330004Y-127685083D01*
X126330009Y-127685085D01*
X126355135Y-127688000D01*
X126644864Y-127687999D01*
X126644879Y-127687997D01*
X126644882Y-127687997D01*
X126669987Y-127685086D01*
X126669988Y-127685085D01*
X126669991Y-127685085D01*
X126772765Y-127639706D01*
X126852206Y-127560265D01*
X126897585Y-127457491D01*
X126900500Y-127432365D01*
X126900499Y-126067636D01*
X126898528Y-126050638D01*
X126897586Y-126042512D01*
X126897585Y-126042510D01*
X126897585Y-126042509D01*
X126852206Y-125939735D01*
X126852203Y-125939732D01*
X126847199Y-125932426D01*
X126825554Y-125865994D01*
X126825500Y-125862351D01*
X126825500Y-122920506D01*
X126845185Y-122853467D01*
X126897989Y-122807712D01*
X126967147Y-122797768D01*
X127030703Y-122826793D01*
G37*
%TD.AperFunction*%
%TA.AperFunction,Conductor*%
G36*
X135405506Y-121970185D02*
G01*
X135448950Y-122018203D01*
X135471950Y-122063342D01*
X135471952Y-122063344D01*
X135471954Y-122063347D01*
X135561652Y-122153045D01*
X135561654Y-122153046D01*
X135561658Y-122153050D01*
X135674694Y-122210645D01*
X135674698Y-122210647D01*
X135768475Y-122225499D01*
X135768481Y-122225500D01*
X135950500Y-122225499D01*
X136017539Y-122245183D01*
X136063294Y-122297987D01*
X136074500Y-122349499D01*
X136074500Y-125738810D01*
X136054815Y-125805849D01*
X136038181Y-125826491D01*
X135076490Y-126788181D01*
X135015167Y-126821666D01*
X134988809Y-126824500D01*
X134593482Y-126824500D01*
X134512519Y-126837323D01*
X134499696Y-126839354D01*
X134386658Y-126896950D01*
X134386657Y-126896951D01*
X134386652Y-126896954D01*
X134296954Y-126986652D01*
X134296951Y-126986657D01*
X134239352Y-127099698D01*
X134224500Y-127193475D01*
X134224500Y-127806517D01*
X134235292Y-127874657D01*
X134239354Y-127900304D01*
X134296950Y-128013342D01*
X134296952Y-128013344D01*
X134296954Y-128013347D01*
X134386652Y-128103045D01*
X134386654Y-128103046D01*
X134386658Y-128103050D01*
X134431796Y-128126049D01*
X134482591Y-128174023D01*
X134499500Y-128236533D01*
X134499500Y-129542852D01*
X134521682Y-129625640D01*
X134543108Y-129662750D01*
X134564535Y-129699862D01*
X135184858Y-130320185D01*
X135788181Y-130923507D01*
X135821666Y-130984830D01*
X135824500Y-131011188D01*
X135824500Y-131406517D01*
X135835292Y-131474657D01*
X135839354Y-131500304D01*
X135896950Y-131613342D01*
X135896952Y-131613344D01*
X135896954Y-131613347D01*
X135986652Y-131703045D01*
X135986654Y-131703046D01*
X135986658Y-131703050D01*
X136098964Y-131760273D01*
X136099698Y-131760647D01*
X136187116Y-131774491D01*
X136193468Y-131775498D01*
X136193475Y-131775499D01*
X136193481Y-131775500D01*
X136806518Y-131775499D01*
X136806523Y-131775499D01*
X136806523Y-131775498D01*
X136900298Y-131760647D01*
X136902660Y-131760273D01*
X136971953Y-131769228D01*
X137009738Y-131795065D01*
X137788181Y-132573508D01*
X137821666Y-132634831D01*
X137824500Y-132661189D01*
X137824500Y-132988810D01*
X137804815Y-133055849D01*
X137788181Y-133076491D01*
X137239537Y-133625135D01*
X137239533Y-133625141D01*
X137196681Y-133699361D01*
X137196682Y-133699362D01*
X137174500Y-133782147D01*
X137174500Y-134026714D01*
X137154815Y-134093753D01*
X137102011Y-134139508D01*
X137032853Y-134149452D01*
X136994205Y-134137199D01*
X136893205Y-134085737D01*
X136842409Y-134037763D01*
X136825500Y-133975252D01*
X136825500Y-133524748D01*
X136845185Y-133457709D01*
X136893205Y-133414263D01*
X136900304Y-133410646D01*
X137013342Y-133353050D01*
X137103050Y-133263342D01*
X137160646Y-133150304D01*
X137160646Y-133150302D01*
X137160647Y-133150301D01*
X137175499Y-133056524D01*
X137175500Y-133056519D01*
X137175499Y-132593482D01*
X137160646Y-132499696D01*
X137103050Y-132386658D01*
X137103046Y-132386654D01*
X137103045Y-132386652D01*
X137013347Y-132296954D01*
X137013344Y-132296952D01*
X137013342Y-132296950D01*
X136936517Y-132257805D01*
X136900301Y-132239352D01*
X136806524Y-132224500D01*
X136193482Y-132224500D01*
X136112519Y-132237323D01*
X136099696Y-132239354D01*
X135986658Y-132296950D01*
X135986657Y-132296951D01*
X135986652Y-132296954D01*
X135896954Y-132386652D01*
X135896951Y-132386657D01*
X135839352Y-132499698D01*
X135824500Y-132593475D01*
X135824500Y-133056517D01*
X135833790Y-133115173D01*
X135839354Y-133150304D01*
X135896950Y-133263342D01*
X135896952Y-133263344D01*
X135896954Y-133263347D01*
X135986652Y-133353045D01*
X135986656Y-133353048D01*
X135986658Y-133353050D01*
X136099696Y-133410646D01*
X136099699Y-133410646D01*
X136106795Y-133414262D01*
X136157591Y-133462236D01*
X136174500Y-133524747D01*
X136174500Y-133591275D01*
X136154815Y-133658314D01*
X136102011Y-133704069D01*
X136032853Y-133714013D01*
X135982385Y-133692757D01*
X135981900Y-133693599D01*
X135975203Y-133689732D01*
X135975019Y-133689655D01*
X135974867Y-133689538D01*
X135900640Y-133646682D01*
X135850931Y-133633363D01*
X135817853Y-133624500D01*
X135817852Y-133624500D01*
X135450412Y-133624500D01*
X135383373Y-133604815D01*
X135337618Y-133552011D01*
X135327674Y-133482853D01*
X135344295Y-133436350D01*
X135418019Y-133314395D01*
X135468590Y-133152106D01*
X135475000Y-133081572D01*
X135475000Y-133075000D01*
X134750000Y-133075000D01*
X134750000Y-133500500D01*
X134730315Y-133567539D01*
X134677511Y-133613294D01*
X134626000Y-133624500D01*
X134374000Y-133624500D01*
X134306961Y-133604815D01*
X134261206Y-133552011D01*
X134250000Y-133500500D01*
X134250000Y-133075000D01*
X133525001Y-133075000D01*
X133525001Y-133081582D01*
X133531408Y-133152102D01*
X133531409Y-133152107D01*
X133581981Y-133314398D01*
X133581982Y-133314400D01*
X133610531Y-133361626D01*
X133628367Y-133429181D01*
X133606849Y-133495654D01*
X133552808Y-133539942D01*
X133483403Y-133547982D01*
X133450902Y-133536230D01*
X133450700Y-133536720D01*
X133443188Y-133533609D01*
X133443187Y-133533608D01*
X133443186Y-133533608D01*
X133315892Y-133499500D01*
X133184108Y-133499500D01*
X133056812Y-133533608D01*
X133011499Y-133559770D01*
X132943599Y-133576242D01*
X132877572Y-133553389D01*
X132834382Y-133498467D01*
X132825500Y-133452382D01*
X132825500Y-133144649D01*
X132825500Y-133144647D01*
X132810753Y-133089611D01*
X132803318Y-133061861D01*
X132760465Y-132987638D01*
X131986819Y-132213992D01*
X131953334Y-132152669D01*
X131950500Y-132126311D01*
X131950500Y-131599500D01*
X131970185Y-131532461D01*
X132022989Y-131486706D01*
X132074500Y-131475500D01*
X133750728Y-131475500D01*
X133817767Y-131495185D01*
X133861212Y-131543204D01*
X133896949Y-131613340D01*
X133896954Y-131613347D01*
X133986652Y-131703045D01*
X133986654Y-131703046D01*
X133986658Y-131703050D01*
X134035612Y-131727993D01*
X134086408Y-131775968D01*
X134103203Y-131843789D01*
X134080665Y-131909924D01*
X134025950Y-131953375D01*
X134016208Y-131956863D01*
X133935603Y-131981981D01*
X133790122Y-132069927D01*
X133669927Y-132190122D01*
X133581980Y-132335604D01*
X133531409Y-132497893D01*
X133525000Y-132568427D01*
X133525000Y-132575000D01*
X135474999Y-132575000D01*
X135474999Y-132568417D01*
X135468591Y-132497897D01*
X135468590Y-132497892D01*
X135418018Y-132335603D01*
X135330072Y-132190122D01*
X135209877Y-132069927D01*
X135064395Y-131981980D01*
X135064396Y-131981980D01*
X134983791Y-131956863D01*
X134925643Y-131918126D01*
X134897669Y-131854100D01*
X134908751Y-131785115D01*
X134955369Y-131733072D01*
X134964369Y-131728002D01*
X135013342Y-131703050D01*
X135103050Y-131613342D01*
X135160646Y-131500304D01*
X135160646Y-131500302D01*
X135160647Y-131500301D01*
X135175499Y-131406524D01*
X135175500Y-131406519D01*
X135175499Y-130943482D01*
X135160646Y-130849696D01*
X135103050Y-130736658D01*
X135103046Y-130736654D01*
X135103045Y-130736652D01*
X135013347Y-130646954D01*
X135013344Y-130646952D01*
X135013342Y-130646950D01*
X134930740Y-130604862D01*
X134900301Y-130589352D01*
X134806524Y-130574500D01*
X134193482Y-130574500D01*
X134112519Y-130587323D01*
X134099696Y-130589354D01*
X133986658Y-130646950D01*
X133986657Y-130646951D01*
X133986652Y-130646954D01*
X133896954Y-130736652D01*
X133896949Y-130736659D01*
X133886689Y-130756796D01*
X133838714Y-130807591D01*
X133776205Y-130824500D01*
X131945544Y-130824500D01*
X131878505Y-130804815D01*
X131832750Y-130752011D01*
X131822806Y-130682853D01*
X131851831Y-130619297D01*
X131857863Y-130612819D01*
X131889196Y-130581485D01*
X131889198Y-130581483D01*
X131940573Y-130476393D01*
X131950500Y-130408260D01*
X131950500Y-129316740D01*
X131940573Y-129248607D01*
X131889198Y-129143517D01*
X131889196Y-129143515D01*
X131889196Y-129143514D01*
X131806485Y-129060803D01*
X131701391Y-129009426D01*
X131633261Y-128999500D01*
X131633260Y-128999500D01*
X131266740Y-128999500D01*
X131266739Y-128999500D01*
X131198608Y-129009426D01*
X131093514Y-129060803D01*
X131062681Y-129091637D01*
X131001358Y-129125122D01*
X130931666Y-129120138D01*
X130887319Y-129091637D01*
X130861819Y-129066137D01*
X130828334Y-129004814D01*
X130825500Y-128978456D01*
X130825500Y-128299500D01*
X130845185Y-128232461D01*
X130897989Y-128186706D01*
X130949500Y-128175500D01*
X131033493Y-128175500D01*
X131133121Y-128159720D01*
X131133121Y-128159719D01*
X131133126Y-128159719D01*
X131253220Y-128098528D01*
X131348528Y-128003220D01*
X131404584Y-127893203D01*
X131452558Y-127842409D01*
X131515068Y-127825500D01*
X132475253Y-127825500D01*
X132542292Y-127845185D01*
X132585738Y-127893205D01*
X132589353Y-127900300D01*
X132589354Y-127900304D01*
X132646950Y-128013342D01*
X132646951Y-128013343D01*
X132646954Y-128013347D01*
X132736652Y-128103045D01*
X132736654Y-128103046D01*
X132736658Y-128103050D01*
X132847877Y-128159719D01*
X132849698Y-128160647D01*
X132943475Y-128175499D01*
X132943481Y-128175500D01*
X133406518Y-128175499D01*
X133500304Y-128160646D01*
X133613342Y-128103050D01*
X133703050Y-128013342D01*
X133760646Y-127900304D01*
X133760646Y-127900302D01*
X133760647Y-127900301D01*
X133775499Y-127806524D01*
X133775500Y-127806519D01*
X133775499Y-127193482D01*
X133760646Y-127099696D01*
X133703050Y-126986658D01*
X133703046Y-126986654D01*
X133703045Y-126986652D01*
X133613347Y-126896954D01*
X133613344Y-126896952D01*
X133613342Y-126896950D01*
X133536517Y-126857805D01*
X133500301Y-126839352D01*
X133406524Y-126824500D01*
X132943482Y-126824500D01*
X132862519Y-126837323D01*
X132849696Y-126839354D01*
X132736658Y-126896950D01*
X132736657Y-126896951D01*
X132736652Y-126896954D01*
X132646954Y-126986652D01*
X132646951Y-126986657D01*
X132646950Y-126986658D01*
X132589354Y-127099696D01*
X132585737Y-127106795D01*
X132537762Y-127157591D01*
X132475252Y-127174500D01*
X131515068Y-127174500D01*
X131448029Y-127154815D01*
X131404583Y-127106795D01*
X131400967Y-127099698D01*
X131348528Y-126996780D01*
X131348524Y-126996776D01*
X131348523Y-126996774D01*
X131253225Y-126901476D01*
X131253221Y-126901473D01*
X131253220Y-126901472D01*
X131133126Y-126840281D01*
X131133124Y-126840280D01*
X131133121Y-126840279D01*
X131033493Y-126824500D01*
X131033488Y-126824500D01*
X130516512Y-126824500D01*
X130516507Y-126824500D01*
X130416878Y-126840279D01*
X130296778Y-126901473D01*
X130296774Y-126901476D01*
X130201476Y-126996774D01*
X130201473Y-126996778D01*
X130140279Y-127116878D01*
X130124500Y-127216506D01*
X130124500Y-127783493D01*
X130140279Y-127883123D01*
X130160985Y-127923759D01*
X130174500Y-127980054D01*
X130174500Y-128978456D01*
X130154815Y-129045495D01*
X130138181Y-129066137D01*
X130112681Y-129091637D01*
X130051358Y-129125122D01*
X129981666Y-129120138D01*
X129937319Y-129091637D01*
X129906485Y-129060803D01*
X129801391Y-129009426D01*
X129733261Y-128999500D01*
X129733260Y-128999500D01*
X129674500Y-128999500D01*
X129607461Y-128979815D01*
X129561706Y-128927011D01*
X129550500Y-128875500D01*
X129550500Y-128252329D01*
X129570185Y-128185290D01*
X129618203Y-128141845D01*
X129703220Y-128098528D01*
X129798528Y-128003220D01*
X129859719Y-127883126D01*
X129859720Y-127883121D01*
X129875500Y-127783493D01*
X129875500Y-127216506D01*
X129859720Y-127116878D01*
X129859719Y-127116876D01*
X129859719Y-127116874D01*
X129798528Y-126996780D01*
X129798526Y-126996778D01*
X129798523Y-126996774D01*
X129703225Y-126901476D01*
X129703222Y-126901474D01*
X129703220Y-126901472D01*
X129618204Y-126858154D01*
X129567409Y-126810180D01*
X129550500Y-126747670D01*
X129550500Y-123320731D01*
X131799500Y-123320731D01*
X131799500Y-125029258D01*
X131802354Y-125059698D01*
X131802354Y-125059699D01*
X131847206Y-125187881D01*
X131856050Y-125199864D01*
X131927850Y-125297150D01*
X132037118Y-125377793D01*
X132165302Y-125422646D01*
X132165301Y-125422646D01*
X132169271Y-125423018D01*
X132195735Y-125425500D01*
X134804264Y-125425499D01*
X134834698Y-125422646D01*
X134962882Y-125377793D01*
X135072150Y-125297150D01*
X135152793Y-125187882D01*
X135197646Y-125059698D01*
X135200500Y-125029265D01*
X135200499Y-123320736D01*
X135197646Y-123290302D01*
X135152793Y-123162118D01*
X135072150Y-123052850D01*
X134962882Y-122972207D01*
X134962881Y-122972206D01*
X134834695Y-122927353D01*
X134834698Y-122927353D01*
X134804268Y-122924500D01*
X132195741Y-122924500D01*
X132165301Y-122927354D01*
X132165300Y-122927354D01*
X132037118Y-122972206D01*
X131927850Y-123052850D01*
X131847206Y-123162118D01*
X131802353Y-123290302D01*
X131799500Y-123320731D01*
X129550500Y-123320731D01*
X129550500Y-122958676D01*
X129570185Y-122891637D01*
X129586819Y-122870995D01*
X129612826Y-122844988D01*
X129650500Y-122807314D01*
X129716392Y-122693186D01*
X129750500Y-122565892D01*
X129750500Y-122434108D01*
X129716392Y-122306814D01*
X129650500Y-122192686D01*
X129619995Y-122162181D01*
X129586510Y-122100858D01*
X129591494Y-122031166D01*
X129633366Y-121975233D01*
X129698830Y-121950816D01*
X129707676Y-121950500D01*
X135338467Y-121950500D01*
X135405506Y-121970185D01*
G37*
%TD.AperFunction*%
%TA.AperFunction,Conductor*%
G36*
X118972959Y-98445185D02*
G01*
X119018714Y-98497989D01*
X119028658Y-98567147D01*
X119028393Y-98568899D01*
X119024500Y-98593476D01*
X119024500Y-99206517D01*
X119027507Y-99225500D01*
X119039354Y-99300304D01*
X119096950Y-99413342D01*
X119096952Y-99413344D01*
X119096954Y-99413347D01*
X119186652Y-99503045D01*
X119186654Y-99503046D01*
X119186658Y-99503050D01*
X119293155Y-99557313D01*
X119299698Y-99560647D01*
X119393475Y-99575499D01*
X119393481Y-99575500D01*
X119788810Y-99575499D01*
X119855849Y-99595183D01*
X119876491Y-99611818D01*
X122025138Y-101760465D01*
X122099361Y-101803318D01*
X122182147Y-101825500D01*
X124449536Y-101825500D01*
X124449552Y-101825501D01*
X124457148Y-101825501D01*
X124550449Y-101825501D01*
X124550465Y-101825500D01*
X135382147Y-101825500D01*
X135467853Y-101825500D01*
X136457147Y-101825500D01*
X136542853Y-101825500D01*
X145575500Y-101825500D01*
X145642539Y-101845185D01*
X145688294Y-101897989D01*
X145699500Y-101949500D01*
X145699500Y-108916323D01*
X145679815Y-108983362D01*
X145663186Y-109003999D01*
X145654010Y-109013176D01*
X145592689Y-109046665D01*
X145566324Y-109049500D01*
X141683676Y-109049500D01*
X141616637Y-109029815D01*
X141595995Y-109013181D01*
X141557316Y-108974502D01*
X141557314Y-108974500D01*
X141472444Y-108925500D01*
X141443187Y-108908608D01*
X141379539Y-108891554D01*
X141315892Y-108874500D01*
X141184108Y-108874500D01*
X141056812Y-108908608D01*
X140942686Y-108974500D01*
X140942683Y-108974502D01*
X140849502Y-109067683D01*
X140849500Y-109067686D01*
X140783608Y-109181812D01*
X140749500Y-109309108D01*
X140749500Y-109440891D01*
X140770270Y-109518407D01*
X140768607Y-109588257D01*
X140729444Y-109646119D01*
X140665216Y-109673623D01*
X140650495Y-109674500D01*
X134207147Y-109674500D01*
X134124359Y-109696682D01*
X134050138Y-109739535D01*
X134050135Y-109739537D01*
X133951492Y-109838181D01*
X133890169Y-109871666D01*
X133863811Y-109874500D01*
X121007145Y-109874500D01*
X120963342Y-109886237D01*
X120899158Y-109886237D01*
X120855354Y-109874500D01*
X120855353Y-109874500D01*
X120849505Y-109874500D01*
X120782466Y-109854815D01*
X120736711Y-109802011D01*
X120726767Y-109732853D01*
X120729730Y-109718407D01*
X120750500Y-109640892D01*
X120750500Y-109509108D01*
X120716392Y-109381814D01*
X120650500Y-109267686D01*
X120557314Y-109174500D01*
X120499852Y-109141324D01*
X120443187Y-109108608D01*
X120379539Y-109091554D01*
X120315892Y-109074500D01*
X120315891Y-109074500D01*
X120261188Y-109074500D01*
X120194149Y-109054815D01*
X120173507Y-109038181D01*
X115374319Y-104238992D01*
X115340834Y-104177669D01*
X115338000Y-104151311D01*
X115338000Y-99648380D01*
X115357685Y-99581341D01*
X115405702Y-99537897D01*
X115480751Y-99499658D01*
X115574658Y-99405751D01*
X115634951Y-99287420D01*
X115634951Y-99287418D01*
X115634952Y-99287417D01*
X115650500Y-99189251D01*
X115650500Y-98773689D01*
X115670185Y-98706650D01*
X115686819Y-98686008D01*
X115737819Y-98635008D01*
X115799142Y-98601523D01*
X115868834Y-98606507D01*
X115924767Y-98648379D01*
X115949184Y-98713843D01*
X115949500Y-98722689D01*
X115949500Y-99189251D01*
X115965047Y-99287417D01*
X115979556Y-99315891D01*
X116025342Y-99405751D01*
X116025344Y-99405753D01*
X116025346Y-99405756D01*
X116119243Y-99499653D01*
X116119245Y-99499654D01*
X116119249Y-99499658D01*
X116237580Y-99559951D01*
X116237581Y-99559951D01*
X116237583Y-99559952D01*
X116237582Y-99559952D01*
X116335749Y-99575500D01*
X116335754Y-99575500D01*
X116839251Y-99575500D01*
X116937417Y-99559952D01*
X116937418Y-99559951D01*
X116937420Y-99559951D01*
X117055751Y-99499658D01*
X117149658Y-99405751D01*
X117185887Y-99334647D01*
X117233859Y-99283854D01*
X117301680Y-99267059D01*
X117367815Y-99289596D01*
X117406853Y-99334647D01*
X117446950Y-99413342D01*
X117446952Y-99413344D01*
X117446954Y-99413347D01*
X117536652Y-99503045D01*
X117536654Y-99503046D01*
X117536658Y-99503050D01*
X117643155Y-99557313D01*
X117649698Y-99560647D01*
X117743475Y-99575499D01*
X117743481Y-99575500D01*
X118206518Y-99575499D01*
X118300304Y-99560646D01*
X118413342Y-99503050D01*
X118503050Y-99413342D01*
X118560646Y-99300304D01*
X118560646Y-99300302D01*
X118560647Y-99300301D01*
X118575499Y-99206524D01*
X118575500Y-99206519D01*
X118575499Y-98593482D01*
X118575499Y-98593481D01*
X118575499Y-98593477D01*
X118571606Y-98568898D01*
X118580561Y-98499604D01*
X118625557Y-98446152D01*
X118692308Y-98425513D01*
X118694079Y-98425500D01*
X118905920Y-98425500D01*
X118972959Y-98445185D01*
G37*
%TD.AperFunction*%
%TA.AperFunction,Conductor*%
G36*
X135700694Y-86345185D02*
G01*
X135746449Y-86397989D01*
X135756393Y-86467147D01*
X135756129Y-86468897D01*
X135749500Y-86510753D01*
X135749500Y-87089251D01*
X135765047Y-87187417D01*
X135779811Y-87216392D01*
X135825342Y-87305751D01*
X135825344Y-87305753D01*
X135825346Y-87305756D01*
X135919243Y-87399653D01*
X135919245Y-87399654D01*
X135919249Y-87399658D01*
X136037580Y-87459951D01*
X136037581Y-87459951D01*
X136037583Y-87459952D01*
X136037582Y-87459952D01*
X136135749Y-87475500D01*
X136135754Y-87475500D01*
X136639251Y-87475500D01*
X136737417Y-87459952D01*
X136737418Y-87459951D01*
X136737420Y-87459951D01*
X136855751Y-87399658D01*
X136949658Y-87305751D01*
X136985887Y-87234647D01*
X137033859Y-87183854D01*
X137101680Y-87167059D01*
X137167815Y-87189596D01*
X137206853Y-87234647D01*
X137246950Y-87313342D01*
X137246952Y-87313344D01*
X137246954Y-87313347D01*
X137336652Y-87403045D01*
X137336654Y-87403046D01*
X137336658Y-87403050D01*
X137448332Y-87459951D01*
X137449698Y-87460647D01*
X137543475Y-87475499D01*
X137543481Y-87475500D01*
X138006518Y-87475499D01*
X138100304Y-87460646D01*
X138213342Y-87403050D01*
X138303050Y-87313342D01*
X138360646Y-87200304D01*
X138360646Y-87200302D01*
X138360647Y-87200301D01*
X138374081Y-87115478D01*
X138375500Y-87106519D01*
X138375499Y-86510187D01*
X138395183Y-86443149D01*
X138447987Y-86397394D01*
X138517146Y-86387450D01*
X138580702Y-86416475D01*
X138587180Y-86422507D01*
X138788181Y-86623508D01*
X138821666Y-86684831D01*
X138824500Y-86711189D01*
X138824500Y-87106517D01*
X138827507Y-87125500D01*
X138839354Y-87200304D01*
X138896950Y-87313342D01*
X138896952Y-87313344D01*
X138896954Y-87313347D01*
X138986652Y-87403045D01*
X138986654Y-87403046D01*
X138986658Y-87403050D01*
X139031796Y-87426049D01*
X139082591Y-87474023D01*
X139099500Y-87536533D01*
X139099500Y-92342852D01*
X139121682Y-92425640D01*
X139143108Y-92462750D01*
X139164535Y-92499862D01*
X139164536Y-92499863D01*
X139164537Y-92499864D01*
X144677492Y-98012819D01*
X144710977Y-98074142D01*
X144705993Y-98143834D01*
X144664121Y-98199767D01*
X144598657Y-98224184D01*
X144589811Y-98224500D01*
X144143482Y-98224500D01*
X144062519Y-98237323D01*
X144049696Y-98239354D01*
X143936658Y-98296950D01*
X143936657Y-98296951D01*
X143936652Y-98296954D01*
X143846954Y-98386652D01*
X143846947Y-98386661D01*
X143806854Y-98465349D01*
X143758880Y-98516145D01*
X143691059Y-98532940D01*
X143624924Y-98510402D01*
X143585885Y-98465349D01*
X143549658Y-98394249D01*
X143549654Y-98394245D01*
X143549653Y-98394243D01*
X143455756Y-98300346D01*
X143455753Y-98300344D01*
X143455751Y-98300342D01*
X143337420Y-98240049D01*
X143337419Y-98240048D01*
X143337416Y-98240047D01*
X143337417Y-98240047D01*
X143239251Y-98224500D01*
X143239246Y-98224500D01*
X142735754Y-98224500D01*
X142735749Y-98224500D01*
X142637582Y-98240047D01*
X142584146Y-98267275D01*
X142519249Y-98300342D01*
X142519248Y-98300343D01*
X142519243Y-98300346D01*
X142425346Y-98394243D01*
X142425343Y-98394248D01*
X142365047Y-98512582D01*
X142349500Y-98610748D01*
X142349500Y-99189251D01*
X142365047Y-99287417D01*
X142379556Y-99315891D01*
X142425342Y-99405751D01*
X142425344Y-99405753D01*
X142425346Y-99405756D01*
X142519243Y-99499653D01*
X142519245Y-99499654D01*
X142519249Y-99499658D01*
X142637580Y-99559951D01*
X142637581Y-99559951D01*
X142637583Y-99559952D01*
X142637582Y-99559952D01*
X142735749Y-99575500D01*
X142735754Y-99575500D01*
X143239251Y-99575500D01*
X143337417Y-99559952D01*
X143337418Y-99559951D01*
X143337420Y-99559951D01*
X143455751Y-99499658D01*
X143549658Y-99405751D01*
X143585887Y-99334647D01*
X143633859Y-99283854D01*
X143701680Y-99267059D01*
X143767815Y-99289596D01*
X143806853Y-99334647D01*
X143846950Y-99413342D01*
X143846952Y-99413344D01*
X143846954Y-99413347D01*
X143936652Y-99503045D01*
X143936654Y-99503046D01*
X143936658Y-99503050D01*
X144043155Y-99557313D01*
X144049698Y-99560647D01*
X144143475Y-99575499D01*
X144143481Y-99575500D01*
X144606518Y-99575499D01*
X144700304Y-99560646D01*
X144813342Y-99503050D01*
X144903050Y-99413342D01*
X144960646Y-99300304D01*
X144960646Y-99300302D01*
X144960647Y-99300301D01*
X144975499Y-99206524D01*
X144975500Y-99206519D01*
X144975499Y-98610186D01*
X144995183Y-98543148D01*
X145047987Y-98497393D01*
X145117146Y-98487449D01*
X145180702Y-98516474D01*
X145187180Y-98522506D01*
X145388181Y-98723507D01*
X145421666Y-98784830D01*
X145424500Y-98811188D01*
X145424500Y-99206517D01*
X145427507Y-99225500D01*
X145439354Y-99300304D01*
X145496950Y-99413342D01*
X145496952Y-99413344D01*
X145496954Y-99413347D01*
X145586652Y-99503045D01*
X145586654Y-99503046D01*
X145586658Y-99503050D01*
X145631796Y-99526049D01*
X145682591Y-99574023D01*
X145699500Y-99636533D01*
X145699500Y-101050500D01*
X145679815Y-101117539D01*
X145627011Y-101163294D01*
X145575500Y-101174500D01*
X136949500Y-101174500D01*
X136882461Y-101154815D01*
X136836706Y-101102011D01*
X136825500Y-101050500D01*
X136825500Y-100183676D01*
X136845185Y-100116637D01*
X136861819Y-100095995D01*
X136900500Y-100057314D01*
X136966392Y-99943186D01*
X137000500Y-99815892D01*
X137000500Y-99684108D01*
X136966392Y-99556814D01*
X136900500Y-99442686D01*
X136807314Y-99349500D01*
X136749102Y-99315891D01*
X136693187Y-99283608D01*
X136624370Y-99265169D01*
X136565892Y-99249500D01*
X136434108Y-99249500D01*
X136306812Y-99283608D01*
X136192686Y-99349500D01*
X136192683Y-99349502D01*
X136099502Y-99442683D01*
X136099500Y-99442686D01*
X136033608Y-99556812D01*
X135999500Y-99684108D01*
X135999500Y-99815891D01*
X136033608Y-99943187D01*
X136066554Y-100000250D01*
X136099500Y-100057314D01*
X136099502Y-100057316D01*
X136138181Y-100095995D01*
X136171666Y-100157318D01*
X136174500Y-100183676D01*
X136174500Y-101050500D01*
X136154815Y-101117539D01*
X136102011Y-101163294D01*
X136050500Y-101174500D01*
X135611189Y-101174500D01*
X135544150Y-101154815D01*
X135523508Y-101138181D01*
X133461818Y-99076491D01*
X133428333Y-99015168D01*
X133425499Y-98988810D01*
X133425499Y-98593477D01*
X133421606Y-98568898D01*
X133430561Y-98499604D01*
X133475557Y-98446152D01*
X133542308Y-98425513D01*
X133544079Y-98425500D01*
X140426311Y-98425500D01*
X140493350Y-98445185D01*
X140513992Y-98461819D01*
X140738181Y-98686008D01*
X140771666Y-98747331D01*
X140774500Y-98773689D01*
X140774500Y-99189251D01*
X140790047Y-99287417D01*
X140804556Y-99315891D01*
X140850342Y-99405751D01*
X140850344Y-99405753D01*
X140850346Y-99405756D01*
X140944243Y-99499653D01*
X140944245Y-99499654D01*
X140944249Y-99499658D01*
X141062580Y-99559951D01*
X141062581Y-99559951D01*
X141062583Y-99559952D01*
X141062582Y-99559952D01*
X141160749Y-99575500D01*
X141160754Y-99575500D01*
X141664251Y-99575500D01*
X141762417Y-99559952D01*
X141762418Y-99559951D01*
X141762420Y-99559951D01*
X141880751Y-99499658D01*
X141974658Y-99405751D01*
X142034951Y-99287420D01*
X142034951Y-99287418D01*
X142034952Y-99287417D01*
X142050500Y-99189251D01*
X142050500Y-98610748D01*
X142034952Y-98512582D01*
X142010885Y-98465349D01*
X141974658Y-98394249D01*
X141974654Y-98394245D01*
X141974653Y-98394243D01*
X141880756Y-98300346D01*
X141880753Y-98300344D01*
X141880751Y-98300342D01*
X141762420Y-98240049D01*
X141762419Y-98240048D01*
X141762416Y-98240047D01*
X141762417Y-98240047D01*
X141664251Y-98224500D01*
X141664246Y-98224500D01*
X141248689Y-98224500D01*
X141181650Y-98204815D01*
X141161008Y-98188181D01*
X140812364Y-97839537D01*
X140812362Y-97839535D01*
X140775250Y-97818108D01*
X140738140Y-97796682D01*
X140696746Y-97785591D01*
X140655353Y-97774500D01*
X129055353Y-97774500D01*
X128969647Y-97774500D01*
X128886859Y-97796682D01*
X128812638Y-97839535D01*
X128812635Y-97839537D01*
X128463992Y-98188181D01*
X128402669Y-98221666D01*
X128376311Y-98224500D01*
X128048689Y-98224500D01*
X127981650Y-98204815D01*
X127961008Y-98188181D01*
X127612364Y-97839537D01*
X127612362Y-97839535D01*
X127575250Y-97818108D01*
X127538140Y-97796682D01*
X127496746Y-97785591D01*
X127455353Y-97774500D01*
X115855353Y-97774500D01*
X115769647Y-97774500D01*
X115686859Y-97796682D01*
X115612638Y-97839535D01*
X115612635Y-97839537D01*
X115263992Y-98188181D01*
X115202669Y-98221666D01*
X115176311Y-98224500D01*
X114760749Y-98224500D01*
X114662582Y-98240047D01*
X114609146Y-98267275D01*
X114544249Y-98300342D01*
X114544248Y-98300343D01*
X114544243Y-98300346D01*
X114450346Y-98394243D01*
X114450343Y-98394248D01*
X114390047Y-98512582D01*
X114374500Y-98610748D01*
X114374500Y-99189251D01*
X114390047Y-99287417D01*
X114404556Y-99315891D01*
X114450342Y-99405751D01*
X114450344Y-99405753D01*
X114450346Y-99405756D01*
X114544243Y-99499653D01*
X114544247Y-99499656D01*
X114544249Y-99499658D01*
X114619297Y-99537897D01*
X114670091Y-99585869D01*
X114687000Y-99648380D01*
X114687000Y-103927311D01*
X114667315Y-103994350D01*
X114614511Y-104040105D01*
X114545353Y-104050049D01*
X114481797Y-104021024D01*
X114475319Y-104014992D01*
X113443049Y-102982722D01*
X113409564Y-102921399D01*
X113406730Y-102895041D01*
X113406730Y-98384085D01*
X113406731Y-98384072D01*
X113406731Y-98354956D01*
X113426416Y-98287917D01*
X113443045Y-98267280D01*
X120689652Y-91020672D01*
X120689657Y-91020669D01*
X120699860Y-91010465D01*
X120699862Y-91010465D01*
X120760465Y-90949862D01*
X120763763Y-90944150D01*
X120788963Y-90900503D01*
X120788964Y-90900501D01*
X120803317Y-90875641D01*
X120803318Y-90875639D01*
X120825501Y-90792853D01*
X120825501Y-90707147D01*
X120825501Y-90699552D01*
X120825500Y-90699534D01*
X120825500Y-87377915D01*
X120845185Y-87310876D01*
X120897989Y-87265121D01*
X120967147Y-87255177D01*
X121030703Y-87284202D01*
X121049822Y-87305034D01*
X121050340Y-87305748D01*
X121050342Y-87305751D01*
X121050343Y-87305752D01*
X121050347Y-87305757D01*
X121144243Y-87399653D01*
X121144245Y-87399654D01*
X121144249Y-87399658D01*
X121262580Y-87459951D01*
X121262581Y-87459951D01*
X121262583Y-87459952D01*
X121262582Y-87459952D01*
X121360749Y-87475500D01*
X121360754Y-87475500D01*
X121776311Y-87475500D01*
X121843350Y-87495185D01*
X121863992Y-87511819D01*
X122362638Y-88010465D01*
X122436861Y-88053318D01*
X122519647Y-88075500D01*
X122519649Y-88075500D01*
X133905351Y-88075500D01*
X133905353Y-88075500D01*
X133988139Y-88053318D01*
X134062362Y-88010465D01*
X134561008Y-87511819D01*
X134622331Y-87478334D01*
X134648689Y-87475500D01*
X135064251Y-87475500D01*
X135162417Y-87459952D01*
X135162418Y-87459951D01*
X135162420Y-87459951D01*
X135280751Y-87399658D01*
X135374658Y-87305751D01*
X135434951Y-87187420D01*
X135434951Y-87187418D01*
X135434952Y-87187417D01*
X135450500Y-87089251D01*
X135450500Y-86510753D01*
X135443871Y-86468897D01*
X135452827Y-86399603D01*
X135497824Y-86346152D01*
X135564576Y-86325513D01*
X135566345Y-86325500D01*
X135633655Y-86325500D01*
X135700694Y-86345185D01*
G37*
%TD.AperFunction*%
%TD*%
D43*
X94000000Y-120000000D02*
X118000000Y-120000000D01*
X118000000Y-120000000D02*
X118000000Y-147000000D01*
X118000000Y-147000000D02*
X140000000Y-147000000D01*
X129000000Y-55000000D02*
X94000000Y-120000000D01*
X140000000Y-120000000D02*
X164000000Y-120000000D01*
X140000000Y-147000000D02*
X140000000Y-120000000D01*
X164000000Y-120000000D02*
X129000000Y-55000000D01*
M02*
